<?xml version="1.0" encoding="utf-8"?>
<!-- Generator: Adobe Illustrator 22.1.0, SVG Export Plug-In . SVG Version: 6.00 Build 0)  -->
<svg version="1.1" id="Layer_1" xmlns="http://www.w3.org/2000/svg" xmlns:xlink="http://www.w3.org/1999/xlink" x="0px" y="0px"
	 viewBox="0 0 1440 529" style="enable-background:new 0 0 1440 529;" xml:space="preserve">
<style type="text/css">
	.st0{filter:url(#Adobe_OpacityMaskFilter);}
	.st1{fill:#FFFFFF;}
	.st2{mask:url(#mask-2_1_);fill:#F9A422;}
	.st3{fill:#F9A422;}
	.st4{filter:url(#Adobe_OpacityMaskFilter_1_);}
	.st5{mask:url(#mask-4_1_);fill:#F9A422;}
</style>
<title>E2022B86-5AC9-44F2-ACEB-73DAF0C25E88</title>
<desc>Created with sketchtool.</desc>
<g id="HUB-AND-CONTENT-PAGES">
	<g id="large_x2F_hub_x2F_EN-default" transform="translate(0.000000, -3169.000000)">
		<g id="business-of-doing-good-" transform="translate(-707.000000, 3169.000000)">
			<g id="orange-clouds">
				<g id="Group-3" transform="translate(1715.000000, 118.000000)">
					<g id="Clip-2">
					</g>
					<defs>
						<filter id="Adobe_OpacityMaskFilter" filterUnits="userSpaceOnUse" x="9" y="-236.8" width="1256.3" height="830.4">
							<feColorMatrix  type="matrix" values="1 0 0 0 0  0 1 0 0 0  0 0 1 0 0  0 0 0 1 0"/>
						</filter>
					</defs>
					<mask maskUnits="userSpaceOnUse" x="9" y="-236.8" width="1256.3" height="830.4" id="mask-2_1_">
						<g class="st0">
							<polygon id="path-1_1_" class="st1" points="9,-236.8 1265.4,-236.8 1265.4,593.6 9,593.6 							"/>
						</g>
					</mask>
					<path id="Fill-1" class="st2" d="M800.2,593.6c4.6-9.3,7-18.4,8.9-28c2-10.1-1-13.2-7.5-21.7c-10.9-14.3-0.8-33.4,5.2-47.7
						c11.1-26.6,33.1-48.1,32.7-76.1c-0.1-10.4-4.4-20.5-1.2-30.9c4.2-13.8,13-26.5,13.8-40.8c0.6-10.5-5.9-20.2-6.4-30.6
						c-0.7-14.5,0.4-27.6-3.7-42c-3.9-14-7.2-28.3-7.8-42.5c-0.6-15.8,5.7-32.3,2.6-48c-2.8-14-20.2-26-28.4-39
						c-7.1-11.3-8.6-22.9-13.3-34.5c-9.6-23.5-28.8-44.3-42.8-66.9c-8.3-13.3-6.4-30.9-25.5-41c-21.6-11.5-32-3.4-22.4,10.7
						c3.2,4.7,26.4,25.2,8.6,27.9c-15.2,2.3-32.1-26.7-35.3-31.6c-9.1-14.1-20.1-31.3-51.7-31.5c-32.3-0.2-20.9,14.1-9.5,24.3
						c24,21.6,57.6,38.4,59.6,65.4c1.8,24.6,25.5,43.2,34.3,66.7c5.6,14.9,2.5,31,10.8,45.5c4.3,7.6,15.1,11.4,19.2,18.9
						c6.1,11.1,9.2,21.4,18,32.2c6.2,7.6,10.1,15.3,14.2,23.3c5,9.8,14.1,26-1.2,34.9c-13.5,7.8-24.8,1.2-36.8-3.4
						c-7.3,10.6,0.7,18.1-0.3,28.3c-0.9,10.6,50.1,4.6,42,10.9c-13,10.1-69.4,31.9-68.9,43c0.5,8.5-9.1,15.6-13.7,23.7
						c-10.4,18.3-6.7,37.8-0.2,56.2c6.6,18.9-0.1,39.5-11.4,57.5c-3.4,5.4-9.5,13.6-21.6,14.7c-16.6,1.6-19.1-9.4-20.6-16.7
						c-2.9-14.5,4.4-28.1,7.1-42.4c2.7-14.4,3.5-30.4,2.4-44.9c-1.6-22.8-25.4-39.9-30.5-62.2c-2-8.7,1.9-16.7-2.9-25.1
						c-4.9-8.5-9.8-15.6-12.4-24.5c-4.4-15.1-17.8-27.9-23.8-42.5c-2.6-6.4-1.7-15.8-7.6-21.5c-2.6-2.5-15.1-9.2-21.2-8.3
						c-5.7,0.8-3.5,6.5-10.4,6.4c-6.2-0.1-11.8-8.8-13.8-11.2c-9.2-11.3-6.6-23.8-16.6-35.2c-6.6-7.5-14.1-13.6-29.6-14.6
						c-11.2-0.7-10.2,2.3-17.4-3.4c-12.2-9.7-17.5-24.5-26.1-35.3c-15.1-19-34.3-25.8-65.1-35.6c-32.6-10.3-43.3-34-65-50
						c-30.5-22.6-67.1-42.6-99.3-64.5c-22.1-15-43.5-30.2-67-44.4C114.8-70,83.2-82,56.7-97.3c-26.6-15.3-56.6-38.1-45.2-60.8
						c10-19.9,46.4-28,77.8-35c86-19.3,183.3-29.1,275.1-35.6c89.6-6.4,179.2-7.9,269.5-8c44.5,0,89,0.5,133.5,1
						c66,0.8,134.7-0.5,200.3,3.2c84.6,4.8,156.3,17.1,201.5,59.5c64.4,60.3,80.4,133.5,88.2,202.3c8.9,78.6,10.4,157.7,4.4,236.4
						c-5.2,67.5-25,132.7-39,199.5c-7.7,36.4-3.3,73.3-12.3,109.5"/>
				</g>
				<path id="Fill-4" class="st3" d="M1984,136.3c-18.1-10.5-37-21-63.6-24c-11.4-1.3-26,0.1-26.7,8.2c-0.5,6.2,10.4,12.6,18.2,16.4
					c15.9,7.8,32.4,14.7,47.4,23c14.1,7.8,27.1,16.1,39.3,24.8c8.2,5.8,18.7,12,23.4,18.9c2,3,5.3,8.4-0.8,10.7
					c-11.1,4.3-28-13.1-33.4-17c-17.3-12.6-36.1-24.8-57.2-35.5c-13.8-7-27.5-12.8-45.4-16.1c-16.7-3.1-34.3-4.4-50.7-8
					c-26.7-5.9-35.1-22.4-62.6-27.4c-14.9-2.7-20.5-3.4-30.4-10.6c-9.5-6.9-21.9-13.8-35.4-18.3c-8.8-3-18.6-3.7-27.8-6
					c-11.4-2.9-17.8-8.7-27.9-12.6c-11-4.2-24.2-6.5-35.7-10.2c-12.2-3.9-22.2-6.9-36.1-8.7c-22.7-2.9-40-11.4-64.2-12.8
					c-23.5-1.4-47.3-3.1-70.8-4.3c-14.3-0.7-28.4-1.7-42.6-3.2c-36.1-3.9-49.6-16.5-50.8-36.9c-1.5-25.8,31.4-48.2,65.1-64.3
					c46.6-22.3,106.1-39.8,166.5-47.1c84.9-10.2,181.4-10.4,264.2,4.9c97.5,18.1,188,49.8,263.1,88"/>
				<path id="Fill-6" class="st3" d="M1469.6-79c80.6,0-41.6,14.8,38.9,17.3c49,1.5,86.5,14.1,126.8,28.8
					c31.3,11.4,63.5,23.4,90.7,37.7c25.1,13.1,48.8,27.5,69.3,42.9c10.8,8.1,24.1,17.9,28.9,27.9c2.4,5,4,11.5-5.6,14.3
					c-6.4,1.9-25.2-2-30.9-3c-28.6-5-57.4-11.5-85.3-17.7c-19.9-4.4-38.7-10.4-59.2-13.9c-39.6-6.8-85.2-18-127.6-14.1
					c-24.3,2.2-43.5,9.8-68.8,9.9c-19.7,0.1-36.9-2.9-56.1-3.8c-17.6-0.9-39.4,4.5-56.2,7.2c-19.8,3.3-37.4,9.6-57.4,12.5
					c-37.3,5.4-76.3,2.2-113.9,8.4c-21.9,3.6-44.8,8-65.8,13.1c-13.3,3.2-23.8,8.2-35.9,12.6c-4.7,1.7-11.7,3.1-16.1,5.1
					c-6.3,2.9-8.1,7.6-13.6,11.3c-12.2,8.3-32.5,15.9-50.3,19.8c-13.2,3-26.8,3.9-38.5,8.9c-14.8,6.4-22.6,16-30.6,25
					c-11.4,12.9-21.8,22.8-42.6,31.7c-16.9,7.2-36.3,12.1-54.2,18.5c-36.8,13.2-64.3,33.2-84.6,54.4c-8.3,8.6-73.4,82.2-101.2,58.4
					c-11-9.4,9.6-28.2,18.3-36c9.6-8.6,19.2-22.4,34.9-28.3c4.4-1.6,8.1-1.5,12.6-3.8c8.6-4.3,14.5-10.6,21.2-15.8
					c14.7-11.2,25.9-24.3,41.6-35c8.6-5.9,17.9-11.2,29.3-15.3c6-2.2,11.2-4.1,15.8-7.3c13.7-9.1,22.8-20.5,35-30.3
					c16.8-13.6,42.9-22.5,64.3-33.6c12.1-6.3,30.7-13,30.7-23.4c0.2-22.8-52.7-6.7-68,0.2c-22.7,10.1-36.5,25.3-58,36.3
					C787,153,768.2,162.6,753,175.8c-14.7,12.7-21,22.9-42.8,32.5c-22.7,10-40.7,23.1-54,37.2c-6.3,6.7-12.3,13.8-17,20.8
					c-2.1,3.2-2.9,6.5-6.9,9.1c-7.2,4.7-16.6,4.8-21.4-0.3c-6.6-7.1-2.8-12.7-21.7-9.1c-12.1,2.3-18.6,7.7-23.3,14
					c-8.3,11.3-16.7,22.6-23.2,34.3c-3.5,6.1-5.8,11.6-12.5,16.9c-7,5.6-13,10.9-17.8,17.2c-10.7,14-13.9,27.4-15.8,42.4
					c-0.8,6.5-2.1,13-6.9,19c-22,27.7-23.3,58.1-26.1,88c-1,10.1-3.1,28.9-17.7,36.4c-5.7,2.9-20,5.7-25.1,2.2
					c-15.2-10.2,12.7-45.8,12.7-70.3c0-24.4-2.5-41.2,5.1-57.9c7.6-16.8,8.9-4.2,15.2-25.8c6.3-21.6-2.5-34.9,10.1-57.2
					c12.7-22.3,43-69.1,44.3-83.1c1.3-14,11.4-32.8-13.9-32.1c-25.3,0.7-41.8,3.5-54.4,23.7c-12.7,20.2-25.3,46.8-49.3,40.5
					c-24-6.3,16.4-80.3,51.9-108.9C477.6,136.7,559.8,42.5,610.4,9C661-24.5,1325.4-153,1325.4-153l206.3,71.2"/>
				<g id="Group-10" transform="translate(44.000000, 0.000000)">
					<g id="Clip-9">
					</g>
					<defs>
						<filter id="Adobe_OpacityMaskFilter_1_" filterUnits="userSpaceOnUse" x="9.4" y="-236.8" width="1235.1" height="940.8">
							<feColorMatrix  type="matrix" values="1 0 0 0 0  0 1 0 0 0  0 0 1 0 0  0 0 0 1 0"/>
						</filter>
					</defs>
					<mask maskUnits="userSpaceOnUse" x="9.4" y="-236.8" width="1235.1" height="940.8" id="mask-4_1_">
						<g class="st4">
							<polygon id="path-3_1_" class="st1" points="9.4,-236.8 1244.6,-236.8 1244.6,704 9.4,704 							"/>
						</g>
					</mask>
					<path id="Fill-8" class="st5" d="M408.1,177.9c33.2-21.9,18-52.6-31.6-27.2c-26.5,13.6-23.9,35.9-51.7,48.4
						c-21.2,9.5-27.2,9.7-34,26.3C284,242,281.3,259,277,275.8c-4.3,16.9-5.1,35.7-14.3,52.1c-11.7,20.8-33.7,39-42.4,60.7
						c-9.6,24.3-6.4,47.4-2.2,71.8c3.3,19.4-7.6,34.1-7.9,52.5c-0.2,9.9,6.7,19.3,7.8,29.2c1.5,13-7.3,25.9-4.8,38.6
						c5.3,27.3,22.1,54.4,27.6,82c3.4,17.3,3.3,27.4-28.2,36.2c-54.5,15.2-80.2-6.7-95.2-34.5C60.7,558.7,9.9,448.3,9.4,337.8
						c-0.3-80,15.2-160.5,21-240.3c4.8-65.6-2.7-133.4,11.8-198.6c26.5-118.8,268.6-114.3,438.8-120.2
						c254.3-8.9,514.4-32.4,763.5,5.6"/>
				</g>
				<path id="Fill-11" class="st3" d="M1478,86.4c6.9-0.3,14,0.9,20.8,1.4c15.9,1.1,31.6,1.4,46.9,4.2c12,2.2,25.3,3.7,36.8,6.3
					c11.1,2.5,17.5,6.2,29.9,6.6c19,0.6,40.2,1.1,57.1,6.5c12.2,3.9,31.9,9.9,40.5,16.1c3.7,2.7,6.2,5.1,0.4,6.9
					c-11.6,3.5-28.9-7.2-37.8-9.7c-18.5-5.1-46.3-8.7-66.4-6.9c-14.7,1.3-23.1-2-37.1-2.7c-13-0.7-26.4,0.2-39.4-0.1
					c-12.3-0.3-24.4-1.7-36.6-2.5c-14.6-1-26.6,0.3-41,1.2c-22.6,1.5-45.5-1.2-67.7,1.4c-41.1,4.6-86.6,4.7-125.5,13.8
					c-5.2,1.2-20.5,4.3-22.8-0.9c-3.2-7,22.4-13.1,30.8-14.3c24-3.3,49.5-4.2,72.7-8.9c13.7-2.7,26.1-7.1,40.2-9.3
					c12.2-1.9,24.7-2.5,37.1-4.6c13.4-2.3,27.1-4.4,40.8-6.4c14.7-2.1,28.1-1.6,43.1-1.5c16.7,0.1,32.7,2.9,49.3,3.7
					c16.9,0.8,33,2.6,49.2,5.4c28.4,4.9,55.5,13.4,77.2,23.9c-2.6,1.7-7.8,1.9-11.9,1.7c-24.1-0.8-57.7-4.9-81.5-7.4"/>
				<path id="Fill-13" class="st3" d="M1699.1,80c-9.9-2-20.5-1.8-30.4-4.2c-10-2.4-16.8-6.8-25.8-10c-11.9-4.3-24.4-4.9-38.3-4.9
					c-19.4,0-34.8-1.3-52.8-5.5c-17.1-3.9-33.4-5.8-51.9-3.3c-11.2,1.5-22.5,4.7-34,5.4c-14.9,1-31.1-2.1-45.5-3.9
					c-26.5-3.3-48.7,0.7-75.3,1.2c-19.1,0.3-47.6,1.3-64.6-4.2c-24-7.7-8.6-27.3,6-35.5c19.4-10.9,49.3-17,75.2-21.4
					c39.1-6.6,80.2-10.1,121-11.5c51.5-1.7,103.1,0.9,151.9,10.7c42.6,8.5,75.9,22.3,107.4,39.9"/>
				<path id="Fill-15" class="st3" d="M1045,150.4c15.8,0.7,25.4-6.9,37.3-11c8-2.8,19.6-3.3,28.5-4.9c4.1-0.8,14-1.6,15-4.2
					c2.9-7.5-20.4-2.8-25-1.6c-10,2.6-17.6,6.7-27.8,8.7c-10.8,2.1-20.7,3.8-28.8,8.6c-5,3-8.1,4.5-0.8,5.9
					c11.9,2.2,46.9-14.2,55.3-17.2"/>
				<path id="Fill-19" class="st3" d="M1409.8,194.7c9.8-3.7,17.1-9.9,28.1-12.6c20.2-5,25,0.2,41.5,4.3c26.1,6.5,39.1-7,66.2-5.1
					c13.9,1,100.1,9.3,51.8,17.5c-19.8,3.3-38.5-0.3-58.2-0.7c-18.9-0.3-37.5,1.3-55.3,3.1c-26.3,2.7-72.1,9.1-96,0.6
					c7.1-9.7,40.3-14.3,56.2-14.8"/>
				<path id="Fill-26" class="st3" d="M673.3,277.8c-4.1,2.3-7.1,6.3-9.8,9.2c-4.8,5-9.4,9.2-16.1,13.4c-5,3.1-10.7,5.7-14.1,9.5
					c-3.8,4.3-5.3,8.1-6.2,12.8c-0.7,4-1.7,7.9-4.1,11.7c-1.6,2.6-4.7,4.7-5.7,7.4c-1.3,3.6,0,7.3-0.6,10.9
					c-0.8,4.5-6.2,8.7-10.7,12.1c-2.3,1.7-5.6,3.7-7,5.7c-1.5,2.3-0.6,5.3,0.1,7.7c0.6,2.4,2,5,1.6,7.5c-0.4,3.2-3.7,5.8-6.6,8.4
					c-3.6,3.2-6.1,6.2-7.2,10c-0.8,2.9-2.1,5.6-4.2,8.2c-2.4,2.9-5.5,5.5-5.8,8.7c-0.3,2.8,2.1,4.5,5.7,1.7c2.4-1.8,4.5-4.8,6-6.9
					c3.3-4.6,6.5-8.7,10.6-13c9.9-10.7,19.5-21.4,29.3-32.1c5.2-5.6,9.2-11.6,14.9-17c4-3.8,9-7.1,13.1-10.9
					c5-4.6,11.4-8.5,16.7-12.9c2.4-2,4.9-4,7.4-6c5.5-4.5,9.2-9.5,14.4-14.1c6.5-5.8,13.7-11.9,19.3-18c3.5-3.9,4.7-10.3,4.5-14.7"
					/>
				<path id="Fill-38" class="st3" d="M1954,179.4c3.4,2.3,8.9,3.9,12.6,6.2c4.1,2.6,7.9,5.2,10.2,8.5c2.6,3.6,6.8,5.9,11.3,8.7
					c4.9,3.1,11.7,4.5,16.5,7.5c4,2.5,6.3,6.2,11.2,8c6.5,2.4,12.9,3.1,18.2,6.6c4.1,2.8,7.7,5.6,11,8.7c2.6,2.5,7,5.8,12.9,5.3
					c0.4-4.5-4.8-7.7-10-10.8c-4.8-2.9-9.3-5.5-12.9-9.1c-3-3-4.6-6.4-6.4-9.7c-3.6-6.5-15.1-11.1-17.8-17.6
					c-1.6-3.8-2.5-6.7-7.2-9.8c-4.5-3-9.9-5.7-15.4-8.1c-5.4-2.4-11.5-3.8-17.2-5.9"/>
				<path id="Fill-40" class="st3" d="M2064,209.7c1.9,1.6,4.2,2.7,6.5,4.2c3.4,2.1,5.8,4.7,9.2,6.8c6.7,4,16.9,6,24.9,9.2
					c5.7,2.3,10.8,5.9,14.9,9.2c5.6,4.3,7,10.2,11.4,14.9c3.7,3.9,7.9,7.9,12,11.7c3.4,3.1,8.6,5.1,12.6,7.9c6.9,5,7,12,13.4,17.2
					c5.7,4.6,15.5,7.1,21,11.7c3.4,2.8,6.2,9.2,12.8,10c5.7,0.7,6.8-2.9,5.6-5.5c-0.9-1.8-6.6-5.8-0.4-6.5c4.3-0.5,7.7,3.1,9.4,4.9
					c5.2,5.2,12.5,19,27.1,14.8c11.4-3.2,10.5-19.8,8.6-25.4c-4.9-14.2-16.9-29.1-32.7-40.3c-16.2-11.5-37.8-21.3-58.2-30.1
					c-22.5-9.8-50-17-76.3-22.4"/>
				<path id="Fill-46" class="st3" d="M603.8,167.6c-7.4,6.1-18.3,10.6-22.1,18.2c-3,6,0.3,12,0.2,18.1
					c-0.1,11.2-23.2,18.1-28.8,28.4c-4.4,8-1.5,17.2-10,24.4c-5.8,4.9-10.7,9.6-13.4,15.3c-1.1,2.4-8.2,8.6-6.6,10.9
					c3.7,5.3,12.6-6.9,13.7-8.2c3.3-4.1,7.3-7.9,11.1-11.9c3.3-3.3,7.1-4.8,12-7.2c13.8-7,15.5-18.4,28.1-25.9
					c7.6-4.5,19.7-5.9,26.6-10.6c4.6-3.1,7.1-7.3,11.5-10.5c5.7-4.2,11.9-8.4,18.6-12.1c19.9-10.9,44-18.3,66.8-26.8
					c19.3-7.2,39-14.2,57.6-22c7.1-2.9,14-5.9,20.6-9.3c6.6-3.3,14.4-6.6,18.2-11.2c-6.1-3.3-13.2-4.4-21.2-5.5
					c-15.2-2.1-30.5-3.3-46-4.5"/>
			</g>
		</g>
	</g>
</g>
</svg>
