<?xml version="1.0" encoding="utf-8"?>
<!-- Generator: Adobe Illustrator 22.1.0, SVG Export Plug-In . SVG Version: 6.00 Build 0)  -->
<svg version="1.1" id="Layer_1" xmlns="http://www.w3.org/2000/svg" xmlns:xlink="http://www.w3.org/1999/xlink" x="0px" y="0px"
	 width="1440px" height="976px" viewBox="0 0 1440 976" style="enable-background:new 0 0 1440 976;" xml:space="preserve">
<style type="text/css">
	.st0{opacity:5.000000e-02;}
	.st1{fill:#FEFCEF;}
	.st2{fill:#F9BEE1;}
</style>
<title>clouds + vignette Mask</title>
<desc>Created with Sketch.</desc>
<g class="st0">
	<path class="st1" d="M1772.1,483.8c-8.9-92.6-25.7-189.9-75.8-266.1c-3.2-9.5-6.5-18.8-10.1-28C1644.4,81.8,1582.8-25.1,1501.4-104
		c-30.4-29.5-64-50.3-99.6-64.8c-54-53.5-117.3-97.6-186.4-128.7c-51.3-23.1-106.4-39.4-162.5-39c-24.9,0.2-49.7,3.7-74,9.3
		c-44.7-48.6-100.3-86.3-160.6-108.1c-70.5-25.5-146.1-30.6-219.8-18.8c-8.3-8.8-17.3-16.8-27-23.8c-45.7-33-102.6-46.7-158.7-51
		c-117.7-9.2-237.9,21-337.9,84.2c-30.7-3.7-61.7-2.7-92.8,3c-71.8,17.4-138,73.8-181.4,135.9c-44.1,62.9-61.3,136.1-56.9,210.3
		c-2.9,4.3-5.9,8.7-8.7,13.1C-408.7,135.9-470.7,407.4-436,666.9c4.9,36.7,11.8,73.8,28.8,106.6c32.7,63.3,97.9,102.3,162.2,132.6
		c18.4,8.6,38.8,17,58.4,11.9c12.5-3.2,22.4-11.3,30.1-21.7c-4.2,32.9-6.4,66.1-6.4,99.4c0,47.2,0.8,105.9,27.5,146.6
		c17.7,26.8,46,34.2,71.5,13.1c21.8-18,34.1-49.8,36.7-78.8c2-22.5-3.6-44.6-1.8-66.9c1.7-20.6,10.7-39.5,23.2-55.1
		c8.3-10.3,17.9-16.9,23.7-29.4c4.9-10.4,4.7-21.2,5.2-32.5c1.3-31.9,20-56,43.6-73c13.3-9.6,29.3-19.3,40.6-31.5
		c11.8-13,19.6-31,24.6-48c9.8-32.8,0.9-66.9-4.5-99.4c-3.8-22.6,5.7-38.1,15.5-56.1c4.7-6.5,8.3-13.8,10.5-22c4.3-11.3,7-23,7.8-35
		c21.4-63.2,77.7-35.2,112.3-117.9c20.7-49.2-4.9-114.9,34-148.5c25-21.7,106.4-20,130.5-42.7c30.2-28.5,38.9-75.9,80.1-80.1
		c51.9-5.3,78.4-12.8,105-51.6c17.5-12,33.1-28.8,42.3-47.3c8-16.3,14.6-29.4,27.3-42.6c26.7-27.8,67.5-32.1,99.2-10.9
		c12.4,8.1,22.3,19.2,36.3,24c16.2,5.6,33.2,3.5,49.9,2c1.5-0.1,3.1-0.3,4.7-0.6c11.5,2.1,23.3,3.6,34.7,5.7
		c12.2,2.3,24.8,6.1,36.1,11.9C959.5,34,965,39.3,970,45.2c10,11.9,17.8,25.5,26.6,38.3c10.1,20,33.8,41.5,45.9,48.9
		c25.2,15.5,58.5,15.9,86.9,15.3c51.1-1.1,103.9-30,153.9-4.3c14.1,7.2,34.9,22.3,30.9,42.5c-3.1,15.6-20.8,18.1-34.3,14.8
		c-23.3-5.8-39.3-15.4-64.6-9.2c-24.4,5.9-42.7,13.4-67.6,4.7c-15.6-5.5-98.9-45.5-105.9-15.3c11.1,10.4,24.5,9,38.3,11.9
		c19,4,26.7,9.3,40,23.7c14.3,15.6,32.9,21.5,52.8,25.2c24.4,4.6,44.6,16.3,66.8,27.5c25.7,13.1,48.1,30.4,61.4,58.5
		c7,14.9,8.1,30,11.2,46.2c4.1,20.9,15.6,39,25.8,57.1c25,44.2,69.8,75.4,84.7,126.3c7.3,24.8,8.7,55.5,6.8,81.3
		c-3.8,53.5-3.7,97.9,6.2,151c7.9,42.4,14.3,85.5,28.3,126.2c14.4,42,46.2,103.6,83.5,126.9c35.7,22.2,81.7,6.6,110.5-23.7
		c7.9-8.4,14.9-17.4,21.2-26.9l95.3-64.7C1787.1,780,1786.4,631.3,1772.1,483.8z"/>
	<path class="st1" d="M877.4,91.9c-7.4-1.6-15.3-1.5-22.3-4.4c-8.3-3.3-14.7-10.8-23-14.5c-14.1-6.3-30.5-0.7-44,6.8
		c-4.8,2.8-9.8,5.8-15.1,7.3c-9.1,2.6-18.9,0.7-28.4,1.7c-6.5,0.7-13.5,3.7-17.5,8.8l2.4-5.9c-3.4,6.9-8.6,13-14.9,17.1
		c-2.6,1.7-5.8,4.1-4.8,7.1c0.6,1.8,2.6,2.7,4.3,3c6.5,0.8,12.1-4.3,18-6.9c9.6-4.1,20.5-1.9,30.2,1.9c9.6,3.9,18.7,9.4,28.7,12.2
		c14.7,4,31.1,1.3,44.1-7.1c9.7-6.3,19-16.3,30.4-15.2c8.8,0.9,16.7,8.6,25.5,7c1.4-0.3,2.9-0.8,3.4-2.2c0.4-0.9,0.2-1.9,0-2.8
		C892.6,98,884.9,93.5,877.4,91.9z"/>
	<path class="st1" d="M984.5,197.9c-4.2-3.6-6.4-9.6-11.1-12.7c-4.9-3.3-11.7-2.4-16.4-6c-2.8-2-4.5-5.4-6.8-8.1
		c-5.6-6.9-14.6-10.2-22.9-8.4c-0.8,0.2-1.6,0.5-2.5,0.7c-2.6,0.2-5,1.6-7.5,2.4c-1.7,0.5-5.8-0.4-9.3-0.4
		c-4.4-0.7-9.1-0.5-12.5,2.6c-0.2,1.1,0.8,2.1,1.9,2.3c1,0.2,2.1-0.2,3.1-0.2c1.1-0.1,2.1,0.1,3.1,0.5c0.7,1.2,2.1,1.9,3.9,2.5
		c2.5,2,4.8,4.7,7.7,6c4.2,2,9.2,1.1,13.2,3.3c6.4,3.5,7.8,13.3,13.6,17.9c5.1,4.1,12.2,3.2,18.6,1.9c6.3-1.3,13.3-2.8,18.8,0.6
		c2.1,1.2,3.8,3.2,5.9,4.4c2.3,1.2,5.1,1.6,6.9,0c0.4-0.4,0.8-0.9,0.8-1.5c0-0.5-0.2-1-0.5-1.5C990.6,201.3,987.2,200.1,984.5,197.9
		z"/>
	<path class="st1" d="M584.5,193c-15,1.9-30,8.8-43.8,15.1c-28.2,12.9-56.7,25.7-82,44.5c-16.1,11.9-30.8,24.6-44.9,39
		c-6.1,6.3-19.6,19.4-24.1,27.3c-1.3,2.5-21.9,19.3-33.9,29c-3,2-5.8,4.2-8.3,6.8c-3,3-5.1,6.9-7.8,10.5
		c-5.1,6.2-10.3,12.4-15.4,18.5c-4.9,5.8-16.1,15.2-15.5,24.4c6.5,1,14.7-6.6,18.5-11.4c6.5-8.3,10.5-15.3,20.8-18.8
		c10.8-3.7,22.2-3.6,32.2-10c10.9-7.1,15.4-19.6,24.1-28.9c17-18.2,44.5-8.4,64.7-17.9c12.5-5.8,23.2-12.6,31.7-24.2
		c6.1-8.4,8.1-18.9,12.7-28.1c5.4-11,10.1-14.2,20.1-19.9c9.1-5,17.2-10.1,23.4-19.1c5.1-7.5,7.5-15,14.1-21.2
		c4.8-4.4,9.2-7,15.3-8.8c2.5-0.8,11.9-0.9,11-5.5C596.8,190.2,587,192.6,584.5,193z"/>
</g>
<g>
	<path class="st2" d="M1423.4,208.7c27.4,16.5,61.1,12.6,87.4-4.7c42.9-28.1,55.1-89.1,52.6-139.4c-2-41.1-12.2-81.2-27.4-118.9
		c-18.2-45-48-81.7-83.7-112.1c-13.4-11.3-27-21.4-42.3-29.7c-29.9-16.4-63.8-19-96.7-19.3c-63.1-0.5-122.8,12.9-180.6,39.9
		c-31.2-20-63.9-34.4-101.5-42.5c-36.5-7.7-80.5-12.7-117.4-3.6c-40.5,10-80.6,33.7-103.6,72.1c-12.1,20.2-13.8,41.4-1.3,62.1
		c11.9,19.5,31.3,29.6,50.3,38.8c24.3,11.8,52.6,8.5,78.3,15.8c11.4,3.2,24.6,6.3,34.1,14.5c3.9,3.5,7.1,8.5,10.9,12.2
		c6.6,6.4,13.6,10.7,22.6,10.6c9.8-0.1,14.6-2,23.8,3.3c4.8,2.8,19.7,23.3,26.1,15.8c3.5-4-3.2-12.6-5.5-15.1
		c-5.4-5.9-15.9-6.3-20.4-11.9c-11.5-14.4,15.7-21.3,24.4-18.6c8,2.4,13.7,8.4,22.3,9c8.7,0.6,14.1-4.7,22-6.7
		c17.6-4.5,31.3,4.9,42.2,18.9c14.4,18.6,28.5,29,51.8,27.5c8.8-0.6,16.9-2.6,24.7-5.3c8.3-0.8,16.5-3.9,25.1-7.5
		c31.2-13.3,65.6-6.2,85.7,24c14.2,21.4,9.5,46.9,18.6,70.2C1361.5,147.7,1388,187.5,1423.4,208.7z"/>
	<path class="st2" d="M1580.5,385.8l-110.2-62c10.1-33.9-34.1-41.5-47.6-61.3c-3.3-4.9-26.1-45.9-35-29.8
		c-3.3,5.9,7.4,8.1,10.7,12.2c6.3,7.7,5.1,17.2,6.6,26.6c2.1,12.6,9.3,19.1,15.7,29.1c7.8,12.1,12.6,29.6,13.4,44.2
		c0.9,16.3-2,31.9-4.4,47.8c-4.7,29.7-5.2,54.3,3.8,83.4c13.1,41.4,43.9,107.6,89.8,113c28.5,3.4,52.5-18.5,61.8-46.6
		C1602.7,489.5,1593,438.3,1580.5,385.8z"/>
	<path class="st2" d="M397.5-32c-9.6-1.3-22,17.1-32.2,18.3c-23.9,2.8-24.9-16.1-16.6-32.8c18.2-36.7,49.9-64.4,15.5-106.9
		c-39.8-48.9-130-46.5-183.2-36.2C30.7-160.7-112,6.4-118.7,169l6,4.5c-29.4,47.6-55.4,97.1-70.9,152.3
		c-11.7,41.9-13.5,83.3-9.7,126.7c3.2,37.4,13.4,73.4,28.1,107.3c11.2,26,24.4,55.6,45.4,74.4c14.6,13.1,33.9,19.1,53.1,18.5
		c2,8.9,5.7,15.6,12.1,16.8c15.5,3,26.3-14.5,35.9-23.8c9.3-8.8,25.3-19.7,33.8-5.1c5.5,9.7,3.9,26.8,1,37
		c-6.2,21-12.3,32.2-5.6,53.5c3.1,10,4.9,17.1,4.7,27.3c-0.1,3.2-1.5,10.9,1.3,13.4c10.8,9.9,14.9-20.2,14.3-27
		c-1.1-11.1-5-21.4-2-32.8c3.1-11.7,12.3-21.2,17.8-31.9c13-25.4,8.8-43,6.8-69.7c-2.8-37.9,11.5-66,27.5-98.3
		c14.9-30,15.1-63.2,10.4-96.1c-2.5-17.1-13.5-53.2-29.1-66.8c-2-3.9-3.5-7.9-4.3-12.1c-1.4-7.6,0.1-16.4,0.6-24.1
		c1.4-19.2,8.2-37.8,8.8-56.8c0.1-3.1,0.1-6.5-0.1-10c1.5-0.3,2.9-0.7,4.4-1.1c35.5-9.9,66.9-27.8,85.1-61.6
		c17.8-33,37.7-70.7,69.1-91.6c32.3-21.5,74.4-25.1,109.6-41.2C356.9,41.1,392.2,26.2,404,3C409.6-7.9,412.6-30,397.5-32z"/>
	<path class="st2" d="M549.7-113.4c-3.1,15.7-8.6,26.8-17.4,39.8c-8.6,12.7-19.4,22-33.9,24.5c-13.5,2.4-30.4,6.5-40.3,17.6
		c-4.5,5-14.9,21.8-4.4,26.5c6.2,2.8,12-6.4,16.5-9.2c11.3-7.1,23-6.8,35.3-5.4c16.1,1.8,28.1,0,42.9-8.5
		c8.4-4.8,13.9-10.3,23.6-11.9c10.2-1.8,21.2-0.8,31.6-0.1c22.5,1.4,50.6,8.5,72.4,0.2c13.1-5.1,30.7-15.1,40.6-25.5
		c6.4-6.8,11.1-23.9,20.2-26l-41.9-87C648.6-178.9,562.2-178.7,549.7-113.4z"/>
</g>
</svg>
