<?xml version="1.0" encoding="UTF-8"?>
<svg width="20px" height="26px" viewBox="0 0 20 26" version="1.1" xmlns="http://www.w3.org/2000/svg" xmlns:xlink="http://www.w3.org/1999/xlink">
    <!-- Generator: Sketch 52.5 (67469) - http://www.bohemiancoding.com/sketch -->
    <title>share-icon</title>
    <desc>Created with Sketch.</desc>
    <g id="Questionnaire" stroke="none" stroke-width="1" fill="none" fill-rule="evenodd">
        <g id="medium-/-cause-1" transform="translate(-312.000000, -693.000000)" fill="#FFE641">
            <g id="stat" transform="translate(35.000000, 111.000000)">
                <g id="share-btn" transform="translate(277.000000, 582.000000)">
                    <g id="Group-2">
                        <path d="M15.7140539,16.6615619 C14.839639,16.6615619 14.0287616,16.9440037 13.3586974,17.4240475 L8.20356453,13.706125 C8.28187035,13.3739247 8.32789219,13.0284794 8.32789219,12.670863 C8.32789219,12.3136045 8.28187035,11.9681592 8.20356453,11.6359589 L13.358354,7.91767847 C14.0284182,8.39772218 14.8389521,8.680164 15.7137105,8.680164 C18.0134286,8.680164 19.8776566,6.73707879 19.8776566,4.340082 C19.8776566,1.94308521 18.0134286,0 15.7137105,0 C13.4139923,0 11.5497644,1.94308521 11.5497644,4.340082 C11.5497644,4.69734048 11.5957862,5.04278581 11.6737486,5.37498608 L6.5193026,9.0932665 C5.84923836,8.61322278 5.03870448,8.33078096 4.16394609,8.33078096 C1.86422793,8.33078096 0,10.2738662 0,12.670863 C0,15.0678598 1.86422793,17.010945 4.16394609,17.010945 C5.03836104,17.010945 5.84923836,16.7288611 6.5193026,16.2484594 L11.6744355,19.9663819 C11.5961297,20.2985821 11.5501078,20.6440275 11.5501078,21.0016439 C11.5501078,23.3986407 13.4143357,25.3417259 15.7140539,25.3417259 C18.0137721,25.3417259 19.878,23.3986407 19.878,21.0016439 C19.878,18.6046471 18.0134286,16.6615619 15.7140539,16.6615619 Z" id="share-icon"></path>
                    </g>
                </g>
            </g>
        </g>
    </g>
</svg>