<svg id="Layer_1" data-name="Layer 1" xmlns="http://www.w3.org/2000/svg" viewBox="0 0 103.2 8"><defs><style>.cls-1{fill:#fff;}</style></defs><title>squiggle</title><path class="cls-1" d="M113.5,7.8Z"/><path class="cls-1" d="M103.2,1.6V0a6.33,6.33,0,0,0-3.5,1.1A9.12,9.12,0,0,0,98,2.8a17.42,17.42,0,0,1-2.2,2.4,3.53,3.53,0,0,1-1.3.8,4.15,4.15,0,0,1-1.6.3,4.24,4.24,0,0,1-2.6-.8A10.61,10.61,0,0,1,88.8,4a18.94,18.94,0,0,0-2.4-2.6,4.78,4.78,0,0,0-1.7-1A4.64,4.64,0,0,0,82.6,0a6.33,6.33,0,0,0-3.5,1.1,9.12,9.12,0,0,0-1.7,1.7,17.42,17.42,0,0,1-2.2,2.4,3.75,3.75,0,0,1-1.2.7,4.15,4.15,0,0,1-1.6.3,4.24,4.24,0,0,1-2.6-.8,10.61,10.61,0,0,1-1.5-1.5,18.94,18.94,0,0,0-2.4-2.6,4.78,4.78,0,0,0-1.7-1A8.52,8.52,0,0,0,61.9,0a6.07,6.07,0,0,0-3.5,1.1,9.12,9.12,0,0,0-1.7,1.7,17.42,17.42,0,0,1-2.2,2.4,3.75,3.75,0,0,1-1.2.7,4.15,4.15,0,0,1-1.6.3,4.24,4.24,0,0,1-2.6-.8,10.61,10.61,0,0,1-1.5-1.5,18.94,18.94,0,0,0-2.4-2.6,4.78,4.78,0,0,0-1.7-1A7.8,7.8,0,0,0,41.3,0a6.33,6.33,0,0,0-3.5,1.1,9.12,9.12,0,0,0-1.7,1.7,17.42,17.42,0,0,1-2.2,2.4,6.55,6.55,0,0,1-1.3.8,4.15,4.15,0,0,1-1.6.3,4.24,4.24,0,0,1-2.6-.8A10.61,10.61,0,0,1,26.9,4a18.94,18.94,0,0,0-2.4-2.6,4.78,4.78,0,0,0-1.7-1A4.81,4.81,0,0,0,20.6,0a6.33,6.33,0,0,0-3.5,1.1,9.12,9.12,0,0,0-1.7,1.7,17.42,17.42,0,0,1-2.2,2.4,3.75,3.75,0,0,1-1.2.7,4.15,4.15,0,0,1-1.6.3,3.78,3.78,0,0,1-2.7-.7A10.61,10.61,0,0,1,6.2,4,26.82,26.82,0,0,0,3.9,1.4,4.78,4.78,0,0,0,2.2.4,5.38,5.38,0,0,0,0,0V1.6a4.24,4.24,0,0,1,2.6.8A10.61,10.61,0,0,1,4.1,3.9,18.94,18.94,0,0,0,6.5,6.5a4.78,4.78,0,0,0,1.7,1,7.19,7.19,0,0,0,2.2.4,6.33,6.33,0,0,0,3.5-1.1,9.12,9.12,0,0,0,1.7-1.7,17.42,17.42,0,0,1,2.2-2.4A4.7,4.7,0,0,1,19,1.8a4.15,4.15,0,0,1,1.6-.3,4.24,4.24,0,0,1,2.6.8,10.61,10.61,0,0,1,1.5,1.5,18.94,18.94,0,0,0,2.4,2.6,4.78,4.78,0,0,0,1.7,1,7.19,7.19,0,0,0,2.2.4,6.33,6.33,0,0,0,3.5-1.1A9.12,9.12,0,0,0,36.2,5a17.42,17.42,0,0,1,2.2-2.4,3.75,3.75,0,0,1,1.2-.7,4.15,4.15,0,0,1,1.6-.3,4.24,4.24,0,0,1,2.6.8,10.61,10.61,0,0,1,1.5,1.5,18.94,18.94,0,0,0,2.4,2.6,4.78,4.78,0,0,0,1.7,1,7.19,7.19,0,0,0,2.2.4,6.07,6.07,0,0,0,3.5-1.1,9.12,9.12,0,0,0,1.7-1.7A17.42,17.42,0,0,1,59,2.7,3.75,3.75,0,0,1,60.2,2a4.15,4.15,0,0,1,1.6-.3,4.24,4.24,0,0,1,2.6.8A10.61,10.61,0,0,1,65.9,4a18.94,18.94,0,0,0,2.4,2.6,4.78,4.78,0,0,0,1.7,1,7.19,7.19,0,0,0,2.2.4,6.07,6.07,0,0,0,3.5-1.1A15.25,15.25,0,0,0,77.5,5a17.42,17.42,0,0,1,2.2-2.4A5.67,5.67,0,0,1,81,1.8a4.15,4.15,0,0,1,1.6-.3,4.24,4.24,0,0,1,2.6.8,10.61,10.61,0,0,1,1.5,1.5,18.94,18.94,0,0,0,2.4,2.6,4.78,4.78,0,0,0,1.7,1,7.19,7.19,0,0,0,2.2.4,6.33,6.33,0,0,0,3.5-1.1A9.12,9.12,0,0,0,98.2,5a17.42,17.42,0,0,1,2.2-2.4,3.75,3.75,0,0,1,1.2-.7,4.15,4.15,0,0,1,1.6-.3Z"/></svg>