<?xml version="1.0" encoding="UTF-8"?>
<svg width="278px" height="547px" viewBox="0 0 278 547" version="1.1" xmlns="http://www.w3.org/2000/svg" xmlns:xlink="http://www.w3.org/1999/xlink">
    <!-- Generator: sketchtool 52.5 (67469) - http://www.bohemiancoding.com/sketch -->
    <title>B88E6B64-D7D3-433D-A8EF-7A6265416577</title>
    <desc>Created with sketchtool.</desc>
    <g id="HUB-AND-CONTENT-PAGES" stroke="none" stroke-width="1" fill="none" fill-rule="evenodd">
        <g id="large/hub/EN-default" transform="translate(0.000000, -3603.000000)">
            <g id="business-of-doing-good-" transform="translate(-707.000000, 3169.000000)">
                <g id="left-confetti1" transform="translate(676.000000, 434.000000)">
                    <path d="M133.501028,225 C132.531631,225 131.668689,224.802346 130.94329,224.408775 C130.509935,224.173328 130.146293,223.880539 129.794427,223.597741 C129.639456,223.473067 129.484484,223.348393 129.324331,223.230235 C127.593737,221.953953 125.198507,221.520851 123.074124,222.099913 C122.544206,222.244136 122.032659,222.446568 121.491907,222.660295 C120.946915,222.87576 120.382612,223.099044 119.788161,223.262381 C116.65717,224.12424 113.043364,223.08384 111,220.732841 L111.992007,220 C113.720717,221.988271 116.776813,222.868375 119.42452,222.139444 C119.949256,221.995222 120.455622,221.794961 120.990722,221.582971 C121.541837,221.365334 122.111793,221.139878 122.714251,220.975673 C125.232422,220.290182 128.069014,220.80278 130.118031,222.314944 C130.292315,222.443527 130.460947,222.578627 130.629578,222.714162 C130.95224,222.973501 131.25653,223.218506 131.588141,223.398784 C132.842045,224.079496 134.491621,223.826672 135.654144,223.495656 C136.10163,223.367941 136.557124,223.21199 136.998016,223.061685 C137.835522,222.774978 138.701761,222.479149 139.623112,222.328844 C141.393274,222.040834 143.029661,222.438749 144,223.39444 L143.071584,224.195048 C142.396586,223.529974 141.190728,223.262381 139.8445,223.483058 C139.035728,223.615117 138.260399,223.87967 137.43985,224.160295 C136.982943,224.316681 136.510491,224.47828 136.029561,224.615117 C135.129407,224.871851 134.280596,225 133.501028,225" id="Fill-7" fill="#FF6ABC"></path>
                    <path d="M165.729209,110 C165.579539,109.67117 165.139884,109.429356 164.664214,109.190748 C163.294267,108.502861 161.878015,107.791616 160.375704,107.618042 C159.700318,107.540643 159.010901,107.570412 158.281261,107.601554 C157.398208,107.640025 156.485222,107.679869 155.56522,107.519118 C153.615769,107.178838 152.052187,106.03526 150.540521,104.928778 C149.451204,104.131891 148.422224,103.378971 147.264621,102.906793 C145.470921,102.175397 143.335786,102.192343 141.555182,102.952133 L141,101.703219 C143.15244,100.784509 145.631816,100.765274 147.799223,101.649635 C149.116318,102.186847 150.263631,103.025868 151.373059,103.837868 C152.818309,104.895346 154.184047,105.89466 155.808901,106.17815 C156.577362,106.312338 157.374822,106.277532 158.219522,106.240893 C158.973484,106.208377 159.752703,106.174944 160.538002,106.265624 C162.289608,106.468052 163.887802,107.270434 165.29844,107.978473 C165.831639,108.245933 166.637518,108.65033 167,109.445385 L165.729209,110 Z" id="Fill-9" fill="#FFE641"></path>
                    <path d="M109.407381,342 C108.937036,342 108.464408,341.905636 108,341.656244 L108.621494,340.368843 C109.370849,340.771817 110.271353,340.457911 111.314788,340.096823 C111.891074,339.89702 112.487453,339.690478 113.101641,339.59852 C114.069729,339.453603 115.004025,339.615371 115.908182,339.771361 C116.647034,339.898946 117.348442,340.01979 118.02656,339.971645 C119.38234,339.876318 120.618022,339.126698 121.92631,338.332785 C123.293963,337.502762 124.70865,336.644816 126.354856,336.507121 C127.680497,336.395905 128.925312,336.774326 130.131312,337.138304 C130.726321,337.318366 131.287994,337.488319 131.857431,337.602904 C133.856167,338.007805 135.956279,337.696787 137.772357,336.72907 C138.41851,336.384832 139.022652,335.964525 139.662412,335.519664 C140.288929,335.08395 140.936909,334.63283 141.631923,334.256817 C144.523857,332.693063 148.025413,332.581847 151,333.960724 L150.448829,335.28279 C147.848691,334.077717 144.785971,334.173526 142.257527,335.542292 C141.629183,335.882197 141.04011,336.291912 140.41679,336.725218 C139.77292,337.17345 139.107131,337.636606 138.390655,338.017915 C136.304243,339.128624 133.894526,339.483935 131.599883,339.021742 C130.969713,338.894638 130.351415,338.707354 129.753666,338.526809 C128.61525,338.18209 127.53848,337.856148 126.463537,337.946661 C125.124654,338.058839 123.903127,338.800274 122.609451,339.584558 C121.223533,340.425654 119.790124,341.295155 118.117889,341.413111 C117.279945,341.471366 116.469399,341.332227 115.686253,341.196458 C114.847396,341.051541 114.054203,340.915771 113.294345,341.028431 C112.800255,341.102575 112.286529,341.280712 111.742208,341.468959 C111.007466,341.723647 110.211076,342 109.407381,342" id="Fill-13" fill="#00BA9F"></path>
                    <path d="M79.6524182,121 C78.090736,118.432056 74.5824693,117.842822 72.6299067,117.719851 C71.5257845,117.649982 70.4221221,117.664887 69.2540795,117.680724 C67.2472534,117.706343 65.1705288,117.734291 63.1020816,117.300633 C58.3167856,116.296373 54.5960639,113.105658 50.9976648,110.019747 C49.7542052,108.953536 48.4688984,107.850992 47.1803726,106.880735 C41.6119362,102.687157 34.728762,100.176507 27.7982224,99.811321 C24.9572115,99.6604025 21.3721483,100.356305 20.6386727,102.808264 L18,101.998708 C19.1933349,98.0063543 23.9193091,96.8148434 27.9421583,97.0225892 C35.408894,97.4161884 42.8255049,100.121542 48.8248295,104.639782 C50.1837138,105.66314 51.5030502,106.794097 52.7791598,107.888722 C56.2676525,110.880076 59.5625445,113.706071 63.6617304,114.565934 C65.4349479,114.938572 67.2707062,114.913885 69.2182104,114.888266 C70.3862531,114.872895 71.5943035,114.856592 72.8005145,114.932983 C75.286054,115.089025 79.7862373,115.894855 82,119.535532 L79.6524182,121 Z" id="Fill-17" fill="#FF6ABC"></path>
                    <polygon id="Fill-19" fill="#FFE641" points="91.5621135 178 69 171.995509 69.4383528 170 92 176.004491"></polygon>
                    <polygon id="Fill-21" fill="#FF6ABC" points="307.952308 29 283 0.917428999 284.047692 0 309 28.0830332"></polygon>
                    <polygon id="Fill-24" fill="#FF6ABC" points="71.152208 481 70 478.565061 94.847792 467 96 469.434939"></polygon>
                    <path d="M6.56332337,435 C4.50176961,435 2.29626925,434.489517 0,433.174567 L0.91502364,431.594348 C7.69747592,435.477211 13.5965361,431.266636 17.1213942,428.750228 C17.801244,428.265269 18.3884911,427.846399 18.8996391,427.541021 C23.4229548,424.843209 26.7717763,424.987238 31.7489365,425.547402 C32.4063232,425.62124 33.0866314,425.714676 33.7820677,425.809936 C36.945684,426.245214 40.217031,426.694622 42.8562049,425.541477 C44.8609135,424.664995 46.1807297,423.045123 47.5784787,421.329535 C48.1927731,420.575661 48.8276969,419.796263 49.5313849,419.073838 C54.8097327,413.65588 60.8609912,415.778487 66.7132917,417.830447 C69.6710735,418.867821 72.7301681,419.940747 75.6677791,420.028259 C79.5373755,420.128988 81.8125571,417.833181 84.20693,415.386509 C86.7502923,412.787603 89.3899247,410.100729 93.9742114,410.35278 C94.4404334,410.378304 95.0941527,410.472197 95.9220749,410.590702 C101.006966,411.320875 111.589333,412.838195 116.438592,405 L118,405.954877 C112.519944,414.813582 100.704861,413.119417 95.6603121,412.395169 C94.8773159,412.283045 94.2588957,412.194622 93.8728987,412.1732 C90.1165341,411.965816 87.8826112,414.245214 85.5212451,416.658159 C83.0750696,419.157247 80.3189964,421.997721 75.6132261,421.850501 C72.3895556,421.75433 69.1938493,420.633546 66.1031231,419.550137 C60.3117937,417.519143 55.3094199,415.764357 50.8484505,420.342297 C50.2011492,421.006381 49.5923559,421.753874 49.003275,422.476755 C47.5294268,424.285779 46.0060684,426.156335 43.5938167,427.210574 C40.4797106,428.571103 36.7879845,428.06381 33.5308488,427.616226 C32.8514575,427.522789 32.1862774,427.431176 31.543102,427.358706 C26.9643164,426.84412 23.9510647,426.653601 19.8435437,429.10392 C19.3965758,429.370556 18.8377512,429.769371 18.1904499,430.231541 C15.6292089,432.059708 11.5097688,434.999544 6.56332337,435" id="Fill-34" fill="#FF6ABC"></path>
                    <path d="M110.750414,547 L109,546.398171 C109.227188,545.72584 109.429853,545.083858 109.623264,544.469889 C110.863314,540.541424 111.842398,537.438431 116.661472,534.765917 C118.294359,533.860138 120.035981,533.277918 121.720691,532.714841 C124.519594,531.779181 127.163029,530.895813 129.139243,528.646774 C131.589267,525.859403 132.096854,522.425848 132.633592,518.791527 C133.236497,514.713188 133.859298,510.495714 137.293496,506.984654 C140.210852,504.003054 143.973571,503.347532 147.612747,502.71302 C151.43099,502.048159 155.037314,501.419717 157.41238,498.141638 C158.204531,497.049101 158.640862,495.713777 159.102642,494.300482 C159.603752,492.768595 160.121519,491.183949 161.142247,489.886912 C162.481315,488.186475 164.65603,487.183582 166.574405,486.298814 C166.794653,486.19703 167.010274,486.098048 167.218954,486 L168,487.691565 C167.787156,487.791481 167.567371,487.892331 167.343421,487.995982 C165.613829,488.79344 163.653348,489.697819 162.590514,491.047616 C161.774765,492.084126 161.330105,493.444661 160.859071,494.885503 C160.372305,496.373502 159.869345,497.912859 158.905067,499.243513 C156.089043,503.129958 151.939966,503.85318 147.927387,504.552124 C144.42147,505.163291 141.109889,505.739908 138.609892,508.296165 C135.599995,511.373012 135.047525,515.11005 134.462666,519.066529 C133.909733,522.81057 133.337367,526.682074 130.522731,529.88545 C128.216609,532.509874 125.209951,533.514635 122.302311,534.486246 C120.696724,535.023176 119.036538,535.577849 117.552643,536.400987 C113.380893,538.714925 112.586891,541.229629 111.385708,545.036234 C111.188133,545.661408 110.981766,546.315063 110.750414,547" id="Fill-38" fill="#FFE641"></path>
                    <path d="M7.98858653,289 L7,287.506448 C7.5872882,287.141604 8.13609573,286.785193 8.66199811,286.443873 C12.0217264,284.261911 14.6736853,282.53889 20.0412796,283.427919 C21.8590327,283.729293 23.5645506,284.336034 25.21418,284.922803 C27.9540947,285.897939 30.5423773,286.81937 33.446293,286.326253 C37.0474416,285.715073 39.5372321,283.463427 42.1736155,281.080402 C45.1315873,278.405767 48.1903418,275.640144 52.9963017,275.078675 C57.0789166,274.6042 60.3932927,276.360955 63.6000145,278.062228 C66.9643238,279.847833 70.1408108,281.533571 73.9852122,280.513162 C75.2665266,280.17273 76.4195722,279.440823 77.6408751,278.665419 C78.9652512,277.823881 80.3340633,276.954381 81.9177258,276.599302 C83.9915586,276.133704 86.2894039,276.684965 88.3155939,277.172311 C88.5487684,277.22868 88.7773619,277.283717 89,277.335203 L88.5721317,279.060001 C88.3453706,279.007183 88.1121962,278.951258 87.8748987,278.894001 C86.0484416,278.455478 83.9805641,277.956592 82.3309348,278.32765 C81.0651959,278.611713 79.8892452,279.358267 78.6441209,280.149206 C77.3586836,280.965445 76.0288102,281.810089 74.4694272,282.224201 C69.9131336,283.432801 66.2565545,281.494957 62.7204565,279.618363 C59.6310091,277.979672 56.7115179,276.433302 53.215733,276.840312 C49.0025587,277.332096 46.2924206,279.782587 43.4228627,282.377328 C40.7072274,284.832258 37.8990553,287.371518 33.7623841,288.073687 C30.3710468,288.648472 27.4286504,287.601876 24.5824558,286.588124 C23.010704,286.028875 21.3853541,285.450539 19.7325181,285.176684 C15.0882686,284.408826 12.9365583,285.804287 9.68081945,287.917896 C9.145755,288.264986 8.5868692,288.628055 7.98858653,289" id="Fill-40" fill="#FFE641"></path>
                    <path d="M105.772556,44 C101.079237,43.4125333 99.4554904,40.8469562 97.5749527,37.8765779 C97.1379489,37.1853867 96.6858128,36.4712475 96.1708545,35.7419627 C92.9059366,31.1211702 89.5103302,30.2156454 84.3703773,28.8442779 C83.7660006,28.6831835 83.1405304,28.5161227 82.4912153,28.3371289 C76.6161972,26.7142523 75.3216939,23.863662 73.5296575,19.9179972 C73.0298316,18.8174152 72.462598,17.5699664 71.7376211,16.2151214 C68.9849101,11.0729522 61.4095668,1.93922242 52.4452578,4.18352867 L52,2.40231138 C62.0620919,-0.113239252 70.3679147,9.76951056 73.3544892,15.3481491 C74.1078965,16.7553154 74.6875111,18.0321374 75.1992595,19.1584212 C76.9605727,23.0366191 77.9308769,25.1730702 82.9795773,26.5673856 C83.6224726,26.7450025 84.2433573,26.9106864 84.8426899,27.0704039 C90.1711093,28.4917979 94.0202274,29.5184877 97.6680395,34.6822279 C98.2105111,35.4496062 98.6745697,36.1839396 99.124413,36.8939481 C100.889853,39.6830379 102.165556,41.698324 106,42.1783944 L105.772556,44 Z" id="Fill-42" fill="#00BA9F"></path>
                    <path d="M219.38644,53 C219.141382,53 218.879864,52.8096526 218.17395,52.2970382 C216.974262,51.425183 214.740849,49.8019804 212.771697,49.1702277 C211.54732,48.7772082 210.30557,48.7845117 208.98701,48.7918152 C207.186107,48.8000316 205.330339,48.8123563 203.601216,47.7040503 C200.897346,45.9708387 199.863163,42.9430819 198.863271,40.0148352 C198.414302,38.7002054 197.990022,37.4581541 197.430412,36.3744974 C194.35804,30.4321881 192.093995,29.6269773 186,28.1731245 L186.280262,27 C192.885862,28.5752734 195.291181,29.6073491 198.503456,35.8212574 C199.105129,36.9843396 199.563698,38.326814 200.006724,39.6254674 C200.939865,42.357889 201.90501,45.1829737 204.253637,46.6884075 C205.681467,47.6036272 207.282118,47.5940413 208.980152,47.5853684 C210.335288,47.5780649 211.733857,47.5698485 213.14157,48.0217525 C215.294974,48.7128461 217.630342,50.4099967 218.884894,51.3215646 C219.18253,51.5379308 219.519485,51.782598 219.608181,51.8287013 C219.536401,51.7917274 219.34895,51.7460805 219.148697,51.8396566 L219.399242,52.3760073 L220,52.511122 L219.616411,52.9516143 C219.533201,52.9826542 219.460506,53 219.38644,53" id="Fill-44" fill="#478AF6"></path>
                    <path d="M186.04784,415 L185,414.374908 L185.231024,414.040006 C187.683356,410.467423 188.914228,408.674119 193.609983,407.547111 C194.547252,407.321359 196.141363,407.287606 197.829576,407.251223 C199.767634,407.210018 201.964947,407.162675 202.935152,406.802349 C206.860672,405.344384 208.112246,403.601052 209.43628,401.755145 C211.002159,399.573897 212.621206,397.317253 218.719102,396 L219,397.128322 C213.381561,398.342562 211.967188,400.312961 210.470005,402.399525 C209.162439,404.221761 207.680312,406.287283 203.395317,407.878507 C202.217614,408.315984 200.00101,408.363326 197.858278,408.409791 C196.314983,408.442668 194.719461,408.47686 193.920524,408.668858 C189.698108,409.682332 188.697319,411.140735 186.278394,414.663783 L186.04784,415 Z" id="Fill-48" fill="#478AF6"></path>
                    <path d="M203.100923,173 C199.882549,173.000468 197.152181,170.828357 194.811458,168.96608 C192.838998,167.397723 190.975828,165.917824 189.350722,166.095206 C188.453588,166.193959 187.571659,166.796309 186.655042,167.937826 L185,166.647945 C186.283929,165.049166 187.630581,164.192678 189.11646,164.029337 C191.613516,163.750861 193.812636,165.500344 196.137202,167.349049 C199.474847,170.004163 202.627172,172.510912 206.773093,169.593235 L208,171.284215 C206.251348,172.515125 204.621015,173 203.100923,173" id="Fill-56" fill="#00BA9F"></path>
                </g>
            </g>
        </g>
    </g>
</svg>