<?xml version="1.0" encoding="UTF-8"?>
<svg width="19px" height="22px" viewBox="0 0 19 22" version="1.1" xmlns="http://www.w3.org/2000/svg" xmlns:xlink="http://www.w3.org/1999/xlink">
    <!-- Generator: Sketch 49 (51002) - http://www.bohemiancoding.com/sketch -->
    <title>Combined Shape</title>
    <desc>Created with Sketch.</desc>
    <defs></defs>
    <g id="Taking-Action" stroke="none" stroke-width="1" fill="none" fill-rule="evenodd">
        <g id="TA---superpage-blue-large" transform="translate(-505.000000, -4892.000000)" fill="#FFFFFF">
            <g id="spotlight" transform="translate(484.000000, 4885.000000)">
                <g id="tab" transform="translate(5.000000, 0.000000)">
                    <path d="M27.0585606,24.8913963 C27.3598485,24.8913963 27.6045974,25.1359075 27.6045974,25.4371954 C27.6045974,25.7386736 27.3598485,25.9831371 27.0585606,25.9831371 L23.1663541,25.9831371 C22.8650186,25.9831371 22.620555,25.7386736 22.620555,25.4371954 C22.620555,25.1359075 22.8650186,24.8913963 23.1663541,24.8913963 L27.0585606,24.8913963 Z M24.1101614,28.0727991 C23.4407753,28.0341396 22.9082432,27.484679 22.9082432,26.8062581 L27.316624,26.8062581 C27.316624,27.484251 26.7856135,28.0333787 26.1174162,28.0727991 C26.0436634,28.5628675 25.6242094,28.9400005 25.1137413,28.9400005 C24.6027501,28.9400005 24.1841995,28.5628675 24.1101614,28.0727991 Z M25.1137413,10.14902 C24.7115009,10.14902 24.3860567,9.8231003 24.3860567,9.42119284 L24.3860567,7.72787475 C24.3860567,7.32577709 24.7115009,7 25.1137413,7 C25.516362,7 25.8418062,7.32577709 25.8418062,7.72787475 L25.8418062,9.42119284 C25.8418062,9.8231003 25.516362,10.14902 25.1137413,10.14902 Z M20.3373099,11.2095193 L19.3424795,9.83912524 C19.1063851,9.51391877 19.178949,9.05865824 19.5038226,8.82280152 C19.8298375,8.58599377 20.2840994,8.65927103 20.5207645,8.98414464 L21.5159277,10.3545387 C21.7520222,10.6797452 21.6794582,11.1348631 21.3544895,11.3708625 C21.2251963,11.4647296 21.0753131,11.5099038 20.9275223,11.5099038 C20.7020318,11.5099038 20.4802029,11.405813 20.3373099,11.2095193 Z M18.5648656,13.6511119 C18.9471342,13.7754122 19.1562193,14.1863069 19.0317764,14.5682902 C18.9314421,14.8760927 18.6464169,15.0716255 18.3393752,15.0716255 C18.2647665,15.0716255 18.1894921,15.0598327 18.1142652,15.0356764 L16.5034018,14.5117987 C16.1211333,14.3874033 15.9120006,13.9765561 16.0364911,13.5945728 C16.1610292,13.2121141 16.5680722,13.0028388 16.9540023,13.1271866 L18.5648656,13.6511119 Z M33.7235576,18.5768082 C34.1061115,18.7012036 34.3155294,19.1116229 34.1913242,19.4940341 C34.09099,19.8014087 33.8059648,19.9972268 33.4989231,19.9972268 C33.4243144,19.9972268 33.3490399,19.9856242 33.2744312,19.9614203 L31.6635679,19.4383034 C31.2812993,19.3139556 31.0716436,18.9033937 31.1960866,18.5209349 C31.3203393,18.1389041 31.7304257,17.930247 32.1130747,18.0536914 L33.7235576,18.5768082 Z M18.1148834,18.0536914 C18.5007183,17.930247 18.9081893,18.139237 19.0317764,18.5213629 C19.1562193,18.903679 18.9465636,19.3142409 18.5639146,19.4383034 L16.9528135,19.9606595 C16.8781573,19.9848633 16.8020744,19.9966562 16.7279412,19.9966562 C16.4208996,19.9966562 16.1353512,19.8007905 16.0359205,19.492988 C15.9113825,19.1105292 16.1211333,18.7001575 16.5034018,18.576095 L18.1148834,18.0536914 Z M31.8884402,15.0716255 C31.5813985,15.0716255 31.2961355,14.8758074 31.1960866,14.5682902 C31.0716436,14.1859741 31.2812993,13.7754122 31.6635679,13.6511119 L33.2744312,13.1279474 C33.6546551,13.0043129 34.0667862,13.2132077 34.1913242,13.5953337 C34.3155294,13.9776023 34.1061115,14.3881641 33.7235576,14.5125595 L32.1130747,15.0356764 C32.0383233,15.0598327 31.9630964,15.0716255 31.8884402,15.0716255 Z M29.7070984,8.98414464 C29.9437635,8.6585102 30.3970268,8.5853756 30.7240403,8.82280152 C31.0489614,9.05865824 31.1214303,9.51391877 30.8854785,9.83912524 L29.8902677,11.2095193 C29.7476125,11.405813 29.5257835,11.5099038 29.3002931,11.5099038 C29.1525022,11.5099038 29.0026191,11.4647296 28.8733259,11.3708625 C28.5484047,11.1348631 28.4759358,10.6797452 28.7118876,10.3545387 L29.7070984,8.98414464 Z M25.1131231,11.3133248 C28.0168236,11.3133248 30.3707307,13.6674221 30.3707307,16.5713604 C30.3707307,17.7971496 29.9494697,18.9217962 29.2450379,19.8150085 C28.6591527,20.5582424 28.0106894,21.5209278 27.5091135,22.3571254 L27.5091135,24.0573385 L22.6873177,24.0573385 L22.6873177,22.3108576 C22.1810817,21.4511693 21.5969084,20.5968069 20.9801145,19.8142476 C20.2762534,18.9212256 19.8549448,17.7963888 19.8549448,16.5713604 C19.8549448,13.6674221 22.208947,11.3133248 25.1131231,11.3133248 Z" id="Combined-Shape"></path>
                </g>
            </g>
        </g>
    </g>
</svg>