<?xml version="1.0" encoding="UTF-8"?>
<svg width="10px" height="18px" viewBox="0 0 10 18" version="1.1" xmlns="http://www.w3.org/2000/svg" xmlns:xlink="http://www.w3.org/1999/xlink">
    <!-- Generator: sketchtool 57.1 (101010) - https://sketch.com -->
    <title>44211F41-CB12-4DF5-BB1C-E4F066B24ED3</title>
    <desc>Created with sketchtool.</desc>
    <g id="nav" stroke="none" stroke-width="1" fill="none" fill-rule="evenodd">
        <g id="nav-level1-large" transform="translate(-435.000000, -8.000000)" fill="#7705BC">
            <g id="header/preheader">
                <g id="preheader">
                    <g id="icon/social/facebook" transform="translate(429.000000, 8.000000)">
                        <path d="M15.1986137,0.00351114463 L12.9058572,0 C10.3303281,0 8.66541857,1.7389529 8.66541857,4.42989415 L8.66541857,6.47267809 L6.36001772,6.47267809 C6.16161715,6.47267809 6,6.63629743 6,6.83924159 L6,9.79913652 C6,10.0011444 6.16161715,10.1657 6.36001772,10.1657 L8.66541857,10.1657 L8.66541857,17.6334365 C8.66541857,17.8354444 8.82703572,18 9.02635588,18 L12.0329407,18 C12.2324907,18 12.393878,17.8354444 12.393878,17.6334365 L12.393878,10.1657 L15.0889532,10.1657 C15.2885032,10.1657 15.4492008,10.0011444 15.4492008,9.79913652 L15.45104,6.83924159 C15.45104,6.742334 15.4124174,6.64917163 15.3450577,6.57965097 C15.2776981,6.51106661 15.1859694,6.47267809 15.0898728,6.47267809 L12.393878,6.47267809 L12.393878,4.74098156 C12.393878,3.90884028 12.5888301,3.48633254 13.6530204,3.48633254 L15.1976942,3.48539624 C15.3970143,3.48539624 15.5577119,3.32084059 15.5577119,3.11883274 L15.5577119,0.371245026 C15.5577119,0.16806679 15.3970143,0.00444744987 15.1986137,0.00351114463" id="facebook"></path>
                    </g>
                </g>
            </g>
        </g>
    </g>
</svg>