<?xml version="1.0" encoding="UTF-8"?>
<svg width="41px" height="35px" viewBox="0 0 41 35" version="1.1" xmlns="http://www.w3.org/2000/svg" xmlns:xlink="http://www.w3.org/1999/xlink">
    <!-- Generator: Sketch 60.1 (88133) - https://sketch.com -->
    <title>icon/social/weibo</title>
    <desc>Created with Sketch.</desc>
    <g id="footer" stroke="none" stroke-width="1" fill="none" fill-rule="evenodd">
        <g id="footer-large" transform="translate(-420.000000, -190.000000)" fill="#7705BC">
            <g id="connect" transform="translate(233.000000, 51.000000)">
                <g id="icon/social/telegram" transform="translate(186.000000, 139.000000)">
                    <path d="M10.978409,19.9022546 C11.7284564,20.205688 11.5652148,20.1030664 11.8200809,20.9940082 C12.3825596,22.9613104 12.9702749,24.7749135 13.5429846,26.7268225 C15.4843775,33.3454476 15.245199,33.3829978 18.007347,31.0770443 C22.5660621,27.2716498 22.1434073,26.8989469 24.7595927,28.7934811 L32.3048562,34.4386006 C34.4510968,36.1010701 34.5638654,32.7343828 34.9328642,30.9312751 L40.9796243,1.34407585 C41.1130823,0.767995654 41.0344171,0.413717992 40.8266137,0.214305615 C40.3898628,-0.204343761 39.3831305,0.0627055625 38.576244,0.399724141 L6.42424101,13.1196683 C-3.21065143,16.8359686 4.82160859,17.4115824 10.978409,19.9022546 Z M17.3763011,22.9091131 C17.7901547,19.8835928 39.5192447,3.36823081 34.4021002,6.12303905 L20.5978208,14.2492176 C12.4313785,19.2942401 13.024087,18.4900519 14.7522277,24.494609 C14.9152107,25.0748095 15.5943854,28.2898764 16.1295287,28.942331 C17.0903702,30.1130884 17.3646933,22.9929279 17.3763011,22.9091131 L17.3763011,22.9091131 Z" id="Fill-5"></path>
                </g>
            </g>
        </g>
    </g>
</svg>