<?xml version="1.0" encoding="UTF-8"?>
<svg width="22px" height="16px" viewBox="0 0 22 16" version="1.1" xmlns="http://www.w3.org/2000/svg" xmlns:xlink="http://www.w3.org/1999/xlink">
    <!-- Generator: sketchtool 57.1 (101010) - https://sketch.com -->
    <title>1BA18A5E-DFAE-4380-AEB9-44A8BA59FBA2</title>
    <desc>Created with sketchtool.</desc>
    <g id="nav" stroke="none" stroke-width="1" fill="none" fill-rule="evenodd">
        <g id="nav-level1-large" transform="translate(-537.000000, -10.000000)" fill="#FFFFFF">
            <g id="header/preheader">
                <g id="preheader">
                    <g id="icon/social/youtube" transform="translate(537.000000, 9.000000)">
                        <path d="M8.7285,11.59025 L8.7278125,5.4089375 L14.6719375,8.51025 L8.7285,11.59025 Z M21.78,4.3378125 C21.78,4.3378125 21.5648125,2.821875 20.9055,2.1543125 C20.0688125,1.27775 19.1310625,1.273625 18.701375,1.22275 C15.62275,1 11.0048125,1 11.0048125,1 L10.9951875,1 C10.9951875,1 6.37725,1 3.298625,1.22275 C2.86825,1.273625 1.9311875,1.27775 1.0938125,2.1543125 C0.4345,2.821875 0.22,4.3378125 0.22,4.3378125 C0.22,4.3378125 0,6.1184375 0,7.898375 L0,9.567625 C0,11.34825 0.22,13.1281875 0.22,13.1281875 C0.22,13.1281875 0.4345,14.644125 1.0938125,15.3116875 C1.9311875,16.18825 3.0305,16.16075 3.52,16.2521875 C5.28,16.4213125 11,16.4735625 11,16.4735625 C11,16.4735625 15.62275,16.4666875 18.701375,16.2439375 C19.1310625,16.192375 20.0688125,16.18825 20.9055,15.3116875 C21.5648125,14.644125 21.78,13.1281875 21.78,13.1281875 C21.78,13.1281875 22,11.34825 22,9.567625 L22,7.898375 C22,6.1184375 21.78,4.3378125 21.78,4.3378125 L21.78,4.3378125 Z" id="youtube"></path>
                    </g>
                </g>
            </g>
        </g>
    </g>
</svg>