<?xml version="1.0" encoding="UTF-8"?>
<svg width="1500px" height="742px" viewBox="0 0 1500 742" version="1.1" xmlns="http://www.w3.org/2000/svg" xmlns:xlink="http://www.w3.org/1999/xlink">
    <!-- Generator: Sketch 59.1 (86144) - https://sketch.com -->
    <title>co-create-header</title>
    <desc>Created with Sketch.</desc>
    <g id="co-create-header" stroke="none" stroke-width="1" fill="none" fill-rule="evenodd" opacity="0.1">
        <g id="shapes/splat" transform="translate(0.000000, -276.000000)" fill="#FFFFFF">
            <path d="M993.193246,31.8807258 C993.193246,22.7412538 950.316681,13.5522007 891.792188,13.5522007 C798.867091,13.5522007 811.751794,95.8570293 740.280503,95.8570293 C665.983892,95.8570293 684.488188,10.5112191 590.165955,10.5112191 C533.023075,10.5112191 480.18027,21.204236 480.18027,34.9051803 C480.18027,53.1841242 547.28939,45.5320889 547.28939,95.8570293 C547.28939,149.024626 403.027291,164.279116 403.027291,196.209423 C403.027291,206.836331 414.35962,211.348222 428.68803,211.348222 C460.170171,211.348222 510.187656,196.209423 545.861206,196.209423 C565.917876,196.209423 584.484267,200.721314 584.484267,220.537276 C584.484267,258.5826 507.331288,327.070795 507.331288,357.447557 C507.331288,366.587029 514.472208,369.677592 521.597603,369.677592 C550.207853,369.677592 598.750582,292.116033 644.467991,292.116033 C720.270405,292.116033 670.268444,463.981076 711.685778,463.981076 C754.608914,463.981076 735.949381,295.074379 797.423384,295.074379 C847.471916,295.074379 884.604698,412.234807 918.896635,412.234807 C927.527834,412.234807 934.653229,404.632353 934.653229,393.955863 C934.653229,362.075138 891.792188,296.561816 891.792188,254.004601 C891.792188,228.13973 908.899348,215.909695 931.812385,215.909695 C964.59852,215.909695 1008.98089,237.279202 1033.16687,237.279202 C1041.7515,237.279202 1050.33613,234.254747 1050.33613,223.56173 C1050.33613,187.069951 923.181187,147.487609 923.181187,100.36892 C923.181187,53.1841242 993.193246,53.1841242 993.193246,31.8807258 M1329.04932,187.069951 C1329.04932,214.422258 1419.087,273.837089 1460.53538,273.837089 C1484.79899,273.837089 1491.93991,238.81622 1491.93991,202.258332 C1491.93991,156.676662 1473.42009,155.090063 1436.17864,155.090063 C1389.07962,155.090063 1329.04932,168.857115 1329.04932,187.069951 M1477.65807,488.308929 C1477.65807,397.029899 1245.82656,231.230293 1243.24962,159.701116 C1243.04781,153.189449 1246.32332,146.677782 1251.58587,140.794144 C1291.28007,96.2536791 1456.25083,63.7449245 1456.25083,25.6996001 C1456.25083,5.99932787 1421.91232,5.99932787 1404.74307,5.99932787 C1271.90644,5.99932787 1077.53372,57.6960154 1077.53372,107.905266 C1077.53372,159.701116 1251.83425,286.001016 1251.83425,348.374193 C1251.83425,365.1657 1241.82144,371.214609 1226.09589,371.214609 C1177.53764,371.214609 1071.78993,308.725743 1021.78797,308.725743 C998.874934,308.725743 990.352402,325.467669 990.352402,349.86163 C990.352402,422.911297 1071.78993,561.358596 1071.78993,602.378794 C1071.78993,606.940266 1070.40832,613.005702 1064.61797,613.005702 C1038.89513,613.005702 917.54607,460.940094 874.560839,460.940094 C858.86634,460.940094 857.469203,483.747456 857.469203,517.214781 L857.469203,568.96105 C857.469203,603.849703 856.009972,625.21921 840.330996,625.21921 C803.167167,625.21921 785.935818,514.190327 750.308838,514.190327 C713.082914,514.190327 705.941995,711.92024 670.268444,711.92024 C628.789016,711.92024 664.524661,494.423946 624.504464,494.423946 C580.246286,494.423946 530.197754,638.920154 498.746661,638.920154 C487.32119,638.920154 484.464822,626.772755 484.464822,616.030157 C484.464822,571.985505 508.728425,500.472855 508.728425,457.91564 C508.728425,436.612241 502.984641,424.448315 485.861958,424.448315 C441.557209,424.448315 344.332037,500.472855 307.26135,500.472855 C301.517567,500.472855 294.392171,497.448401 294.392171,491.333383 C294.392171,454.891185 450.188408,339.234721 450.188408,287.538034 C450.188408,237.279202 235.696917,270.812635 235.696917,212.88524 C235.696917,164.279116 388.714404,114.020284 388.714404,63.860614 C388.714404,19.7167993 207.210857,-1.77635684e-15 137.183274,-1.77635684e-15 C52.8583286,-1.77635684e-15 7.14091957,10.5112191 7.14091957,36.4421982 C7.14091957,76.0245405 198.672801,88.204994 198.672801,123.093647 C198.672801,156.676662 8.34887715e-14,246.402146 8.34887715e-14,298.098834 C8.34887715e-14,343.796194 280.063761,301.139816 280.063761,348.374193 C280.063761,400.054354 35.7977403,623.682192 35.7977403,698.219296 C35.7977403,714.961222 47.2697828,722.613257 62.8400922,722.613257 C137.183274,722.613257 330.065722,571.985505 382.955098,571.985505 C401.599107,571.985505 403.027291,596.263776 403.027291,617.616756 C403.027291,657.199098 390.158112,717.985676 390.158112,762.146018 C390.158112,797.150361 398.742739,821.478214 427.290894,821.478214 C480.18027,821.478214 528.738523,725.58813 564.52074,725.58813 C610.238149,725.58813 583.08713,1007.11031 651.717577,1007.11031 C710.226546,1007.11031 734.552244,702.797295 771.653978,702.797295 C808.848855,702.797295 838.902812,791.035344 873.132655,791.035344 C916.040267,791.035344 896.030169,637.383136 941.794149,637.383136 C991.749539,637.383136 1134.66107,820.007304 1198.99144,820.007304 C1218.9084,820.007304 1226.09589,803.19927 1226.09589,781.895872 C1226.09589,701.24375 1120.39476,518.80138 1120.39476,460.940094 C1120.39476,445.751713 1124.58617,441.190241 1140.34276,441.190241 C1196.10403,441.190241 1359.08776,523.26369 1436.17864,523.26369 C1461.99462,523.26369 1477.65807,508.075309 1477.65807,488.308929 M172.810254,400.054354 C172.810254,430.513751 64.2837999,532.403162 25.7694054,532.403162 C11.50309,532.403162 7.14091957,514.190327 7.14091957,497.448401 C7.14091957,467.071639 20.0721935,424.448315 35.7977403,410.681262 C54.31756,392.468427 97.1165062,383.395063 130.057879,383.395063 C149.974835,383.395063 172.810254,387.906954 172.810254,400.054354 M1223.23952,556.731015 C1223.23952,609.981248 1401.85565,870.200028 1436.17864,870.200028 C1464.83546,870.200028 1486.19612,816.966323 1486.19612,771.219382 C1486.19612,759.154618 1483.33976,746.94111 1477.65807,737.801638 C1451.96628,699.756314 1270.44721,547.60807 1230.38044,547.60807 C1226.09589,547.60807 1223.23952,552.169543 1223.23952,556.731015"></path>
        </g>
    </g>
</svg>