<?xml version="1.0" encoding="UTF-8"?>
<svg width="1240px" height="901px" viewBox="0 0 1240 901" version="1.1" xmlns="http://www.w3.org/2000/svg" xmlns:xlink="http://www.w3.org/1999/xlink">
    <!-- Generator: Sketch 59.1 (86144) - https://sketch.com -->
    <title>Fill 1</title>
    <desc>Created with Sketch.</desc>
    <defs>
        <rect id="path-1" x="0" y="0.34860321" width="1500" height="908"></rect>
    </defs>
    <g id="Pages-1" stroke="none" stroke-width="1" fill="none" fill-rule="evenodd" opacity="0.1">
        <g id="Homepage" transform="translate(-121.000000, -279.000000)">
            <g id="nav/hive-navigation/desktop" transform="translate(0.000000, 149.000000)">
                <g id="Fill-1" transform="translate(0.000000, 129.651397)">
                    <mask id="mask-2" fill="white">
                        <use xlink:href="#path-1"></use>
                    </mask>
                    <g id="Mask"></g>
                    <g mask="url(#mask-2)" fill="#FFFFFF">
                        <g transform="translate(121.876014, -650.000000)">
                            <path d="M1238.63423,481.325758 C1238.41727,447.307364 1210.79344,419.796837 1176.71978,419.796837 C1142.65598,419.796837 1115.03216,447.307364 1114.80533,481.325758 L1114.77574,481.325758 L1114.77574,505.000588 C1114.08539,521.487183 1100.60386,534.660683 1083.94672,534.660683 C1067.05289,534.660683 1053.36426,521.112488 1053.04867,504.290639 L1053.04867,373.96568 L1052.8317,373.96568 C1052.67391,339.917705 1025.02049,312.357876 990.917248,312.357876 C956.715381,312.357876 928.992933,340.075472 928.992933,374.271352 C928.992933,375.484182 929.170452,387.080017 929.170452,387.080017 C929.170452,404.177958 914.830914,417.686711 897.729981,417.686711 C881.605398,417.686711 867.315172,405.479531 867.048894,389.554979 L867.048894,195.374044 L867.048894,195.305021 C867.048894,161.10914 839.326446,133.391545 805.124579,133.391545 C770.922712,133.391545 743.200264,161.10914 743.200264,195.305021 L743.18054,195.305021 L743.18054,699.654822 C741.494115,715.165238 728.50569,727.283674 712.548764,727.283674 C695.44783,727.283674 681.246362,714.997611 681.246362,697.89967 L681.246362,124.310113 C681.246362,90.124092 653.523915,62.3966362 619.312185,62.3966362 C585.110318,62.3966362 557.38787,90.124092 557.38787,124.310113 L557.38787,696.322006 L557.279387,696.322006 C557.279387,713.419946 543.413232,727.283674 526.312298,727.283674 C509.556539,727.283674 495.99611,713.952408 495.453693,697.337627 L495.453693,61.9134764 C495.453693,27.7175955 467.721383,0 433.519516,0 C399.327511,0 371.595201,27.7175955 371.595201,61.9134764 L371.476855,1055.32945 C371.476855,1072.16116 357.433182,1084.04295 340.401283,1084.04295 C323.724421,1084.04295 310.233027,1070.95819 309.670886,1054.62936 L309.670886,302.556635 L309.661024,302.556635 C309.641299,268.380475 281.918852,240.672739 247.726847,240.672739 C213.544704,240.672739 185.822256,268.380475 185.802532,302.556635 L185.782807,302.556635 L185.782807,696.322006 L185.743359,696.322006 C185.743359,713.419946 171.877204,727.283674 154.786132,727.283674 C137.892303,727.283674 124.203667,713.735479 123.878216,696.92349 L123.878216,409.827969 L123.858492,409.827969 C123.858492,375.622228 96.1261823,347.904632 61.9341772,347.904632 C27.7323099,347.904632 -5.68434189e-13,375.622228 -5.68434189e-13,409.827969 L-5.68434189e-13,910.312492 L0.0197242602,910.312492 C0.0197242602,944.508373 27.742172,972.235829 61.9539014,972.235829 C96.1459066,972.235829 123.878216,944.508373 123.878216,910.312492 L123.878216,838.301962 L124.045873,838.301962 C124.045873,821.204022 137.912028,807.340294 155.012961,807.340294 C171.472856,807.340294 184.806456,820.217981 185.782807,836.418625 L185.782807,1196.31351 L185.832118,1196.31351 C185.832118,1196.48114 185.812394,1196.64876 185.812394,1196.82625 C185.812394,1231.02213 213.534841,1258.74959 247.736709,1258.74959 C281.938576,1258.74959 309.670886,1231.02213 309.670886,1196.82625 C309.670886,1196.64876 309.641299,1196.48114 309.641299,1196.31351 L309.670886,1196.31351 L309.789231,1178.4366 C309.789231,1161.33866 323.606076,1147.47493 340.628112,1147.47493 C357.28525,1147.47493 370.973887,1162.40358 371.595201,1179.03808 L371.595201,1304.07786 L371.605063,1304.07786 C371.605063,1338.27374 399.327511,1366.0012 433.529378,1366.0012 C467.731245,1366.0012 495.463555,1338.27374 495.463555,1304.07786 C495.463555,1304.00884 495.453693,1303.93982 495.453693,1303.87079 L495.453693,838.301962 L495.581901,838.301962 C495.581901,821.204022 509.448056,807.340294 526.548989,807.340294 C543.225851,807.340294 556.727108,820.553235 557.38787,837.079272 L557.38787,1446.53112 C557.38787,1474.30788 575.691984,1497.82494 600.899588,1505.66396 C606.718245,1507.46842 612.911663,1508.4446 619.312185,1508.4446 C625.732432,1508.4446 631.915988,1507.46842 637.734644,1505.66396 C662.942249,1497.82494 681.246362,1474.30788 681.246362,1446.53112 L681.246362,1446.5114 L681.246362,837.838523 C682.291748,821.529415 696.325559,807.340294 712.785455,807.340294 C727.943549,807.340294 742.539501,822.988755 743.18054,836.832762 L743.18054,1124.796 L743.190402,1124.796 C743.190402,1158.99188 770.91285,1186.70947 805.114717,1186.70947 C839.316584,1186.70947 867.039032,1158.99188 867.039032,1124.796 L867.048894,1124.796 L867.048894,528.182398 C867.334896,511.330967 881.033395,497.743331 897.966672,497.743331 C915.057743,497.743331 928.933761,511.597198 928.933761,528.704999 L929.170452,1303.66373 L929.180314,1303.66373 C929.180314,1337.86947 956.912624,1365.58706 991.104629,1365.58706 C1025.3065,1365.58706 1053.03881,1337.86947 1053.03881,1303.66373 L1053.04867,1303.66373 L1053.04867,645.678971 L1053.21632,645.678971 C1053.21632,628.581031 1067.08248,614.717303 1084.18341,614.717303 C1100.04172,614.717303 1112.97097,626.687833 1114.77574,642.050342 L1114.77574,1124.63823 L1114.77574,1124.77628 C1114.77574,1158.97216 1142.50805,1186.68975 1176.70992,1186.68975 C1210.90192,1186.68975 1238.63423,1158.97216 1238.63423,1124.77628 L1238.66382,1124.77628 L1238.66382,481.325758 L1238.63423,481.325758 Z M309.789231,1181.95676 C309.789231,1181.36514 309.937163,1180.82281 309.96675,1180.24105 C309.937163,1179.63957 309.789231,1179.0578 309.789231,1178.44646 L309.789231,1181.95676 Z M805.114717,1277.34631 C770.91285,1277.34631 743.190402,1305.07376 743.190402,1339.27951 C743.190402,1373.47539 770.91285,1401.19298 805.114717,1401.19298 C839.316584,1401.19298 867.039032,1373.47539 867.039032,1339.27951 C867.039032,1305.07376 839.316584,1277.34631 805.114717,1277.34631 L805.114717,1277.34631 Z M61.9539014,1027.66116 C27.7520342,1027.66116 0.0197242602,1055.38862 0.0197242602,1089.5845 C0.0197242602,1123.78038 27.7520342,1151.49797 61.9539014,1151.49797 C96.1459066,1151.49797 123.878216,1123.78038 123.878216,1089.5845 C123.878216,1055.38862 96.1459066,1027.66116 61.9539014,1027.66116 L61.9539014,1027.66116 Z M436.931813,1425.71581 C402.443944,1425.71581 374.484805,1453.67005 374.484805,1488.15188 C374.484805,1522.64358 402.443944,1550.59782 436.931813,1550.59782 C471.419682,1550.59782 499.388683,1522.64358 499.388683,1488.15188 C499.388683,1453.67005 471.419682,1425.71581 436.931813,1425.71581 L436.931813,1425.71581 Z"></path>
                        </g>
                    </g>
                </g>
            </g>
        </g>
    </g>
</svg>