<?xml version="1.0" encoding="UTF-8"?>
<svg width="1500px" height="742px" viewBox="0 0 1500 742" version="1.1" xmlns="http://www.w3.org/2000/svg" xmlns:xlink="http://www.w3.org/1999/xlink">
    <!-- Generator: Sketch 59.1 (86144) - https://sketch.com -->
    <title>ourstory_header</title>
    <desc>Created with Sketch.</desc>
    <g id="ourstory_header" stroke="none" stroke-width="1" fill="none" fill-rule="evenodd" opacity="0.1">
        <g transform="translate(0.000000, -572.000000)" fill="#FFFFFF" id="Group">
            <g>
                <g transform="translate(0.447179, 0.000000)" id="Shape">
                    <path d="M1066.42251,783.194894 C1066.42251,856.760387 1127.13955,917.48662 1199.53739,917.48662 C1272.86045,917.48662 1333.34618,856.876056 1333.34618,783.194894 C1333.34618,709.976408 1272.86045,649.36568 1199.53739,649.36568 C1127.13955,649.250176 1066.42251,709.976408 1066.42251,783.194894 M1199.42174,1163.16761 C1199.42174,1246.21796 1266.26831,1313.30599 1348.49653,1313.30599 C1431.18736,1313.30599 1498.38088,1246.10229 1498.38088,1163.16761 C1498.38088,1080.23292 1431.18736,1013.02923 1348.49653,1013.02923 C1266.38396,1013.02923 1199.42174,1080.23292 1199.42174,1163.16761 M735.196608,1006.89877 C735.196608,1076.99419 792.444102,1134.71303 862.528913,1134.71303 C932.498072,1134.71303 989.861218,1076.99419 989.861218,1006.89877 C989.861218,936.687676 932.498072,879.200002 862.528913,879.200002 C792.444102,879.084507 735.196608,936.572007 735.196608,1006.89877 M646.14495,515.07412 C646.14495,626.810387 738.43485,719.345599 849.922899,719.345599 C961.295297,719.345599 1053.8165,626.810387 1053.8165,515.07412 C1053.8165,403.337852 961.295297,310.802641 849.922899,310.802641 C738.43485,310.91831 646.14495,403.453521 646.14495,515.07412 M884.849653,122.493486 C884.849653,189.465845 939.090208,243.598944 1006.05243,243.598944 C1072.899,243.598944 1127.2552,189.465845 1127.2552,122.493486 C1127.2552,55.5211268 1072.899,1.04102113 1006.05243,1.04102113 C939.090208,1.04102113 884.849653,55.4054577 884.849653,122.493486 M308.905166,429.016373 C308.905166,496.104401 363.145721,550.468838 429.414032,550.468838 C496.376253,550.468838 550.501157,496.104401 550.501157,429.016373 C550.501157,361.928345 496.376253,307.679577 429.414032,307.679577 C363.145721,307.679577 308.905166,361.928345 308.905166,429.016373 M293.06091,843.921127 C293.06091,952.534331 379.105628,1038.70775 486.661527,1038.70775 C595.026985,1038.70775 681.071704,952.534331 681.071704,843.921127 C681.071704,735.423592 595.026985,649.250176 486.661527,649.250176 C378.989977,649.250176 293.06091,735.539261 293.06091,843.921127 M0,598.240141 C0,668.219894 57.3631457,725.938732 127.216654,725.938732 C197.417116,725.938732 254.664611,668.219894 254.664611,598.240141 C254.664611,528.029049 197.417116,470.42588 127.216654,470.42588 C57.3631457,470.42588 0,528.029049 0,598.240141"></path>
                </g>
            </g>
        </g>
    </g>
</svg>