<?xml version="1.0" encoding="UTF-8"?>
<svg width="320px" height="191px" viewBox="0 0 320 191" version="1.1" xmlns="http://www.w3.org/2000/svg" xmlns:xlink="http://www.w3.org/1999/xlink">
    <!-- Generator: Sketch 59.1 (86144) - https://sketch.com -->
    <title>Background</title>
    <desc>Created with Sketch.</desc>
    <defs>
        <polygon id="path-1" points="0 0 320 0 320 320 0 320"></polygon>
    </defs>
    <g id="Pages-1" stroke="none" stroke-width="1" fill="none" fill-rule="evenodd">
        <g id="Mobile-Let's-Co-Create" transform="translate(0.000000, -3514.000000)">
            <g id="Got-A-Question" transform="translate(0.000000, 3514.000000)">
                <g id="Background">
                    <mask id="mask-2" fill="white">
                        <use xlink:href="#path-1"></use>
                    </mask>
                    <g id="Rectangle"></g>
                    <g id="honeydrop" mask="url(#mask-2)" fill="#FFFFFF" fill-opacity="0.08">
                        <g transform="translate(-328.975000, -294.125000)" id="Fill-1">
                            <path d="M137.106785,308.143847 C137.10316,310.664718 135.058678,312.70759 132.536599,312.70759 C130.014922,312.70759 127.97044,310.664718 127.966816,308.143847 L127.966816,9.13996907 C127.963997,4.09218689 123.872212,0 118.824028,0 C113.776245,0 109.684059,4.09218689 109.684059,9.13996907 L109.684059,353.809463 C109.684059,356.333153 107.637965,358.379247 105.113873,358.379247 C102.638506,358.379247 100.622615,356.410873 100.546506,353.954031 L100.546506,9.13996907 C100.546506,4.09218689 96.4543188,0 91.4061339,0 C86.3583517,0 82.2661648,4.09218689 82.2661648,9.13996907 L82.2661648,353.767986 C82.2653594,353.791745 82.2661648,353.815504 82.2661648,353.839263 C82.2661648,356.362952 80.2200713,358.409046 77.6959789,358.409046 C75.1722892,358.409046 73.1261957,356.362952 73.1261957,353.839263 L73.1261957,9.14037177 C73.1261957,4.09218689 69.0340088,0 63.9858239,0 C58.9380418,0 54.8458549,4.09218689 54.8458549,9.13996907 L54.8458549,406.574593 C54.8458549,409.098685 52.7997614,411.144779 50.275669,411.144779 C47.7515765,411.144779 45.7058858,409.098685 45.7058858,406.574593 L45.7058858,9.13473404 C45.7002481,4.08936802 41.6092693,0 36.5630979,0 C31.5153157,0 27.4227261,4.09218689 27.4227261,9.13996907 C27.4227261,9.14278794 27.4231288,9.14560681 27.4231288,9.14802298 L27.4231288,353.839263 C27.4231288,356.362952 25.3770353,358.409046 22.8529429,358.409046 C20.3288505,358.409046 18.282757,356.362952 18.282757,353.839263 L18.282757,9.14923106 L18.282757,9.13996907 C18.282757,4.09218689 14.1909728,0 9.14278794,0 C4.09500575,0 0.0028188652,4.09218689 0.0028188652,9.13996907 L0,9.13996907 L0,385.427466 L0.00322156023,385.427466 C0.00322156023,390.475248 4.09540845,394.567435 9.14319063,394.567435 C14.1913755,394.567435 18.2835624,390.475248 18.2835624,385.427466 C18.2835624,385.400888 18.2831597,385.374713 18.282757,385.348538 L18.282757,374.796317 C18.2831597,372.27303 20.3288505,370.226937 22.8529429,370.226937 C25.3766326,370.226937 27.4227261,372.272628 27.4231288,374.795915 L27.4231288,427.644805 C27.4231288,427.670577 27.4231288,427.695545 27.4231288,427.721317 C27.4231288,432.769099 31.5153157,436.861286 36.5630979,436.861286 C41.61088,436.861286 45.7034696,432.769099 45.7034696,427.721317 C45.7034696,427.695545 45.7030669,427.670577 45.7030669,427.644805 L45.7058858,425.082054 C45.7058858,422.558364 47.7519792,420.512673 50.275669,420.512673 C52.7997614,420.512673 54.8458549,422.558767 54.8458549,425.082457 L54.8458549,443.552869 C54.8458549,448.600652 58.9380418,452.693241 63.9858239,452.693241 C69.0340088,452.693241 73.1261957,448.600652 73.1261957,443.552869 L73.1261957,374.686382 C73.1294173,372.165511 75.1743026,370.122639 77.6959789,370.122639 C80.2180579,370.122639 82.2629432,372.165511 82.2661648,374.686382 L82.2661648,464.579993 C82.2661648,465.684183 82.4618746,466.742868 82.8206758,467.723028 C82.9358466,468.037935 83.0683333,468.344789 83.2161224,468.64238 C83.2326329,468.675401 83.2491434,468.708422 83.2660565,468.741041 C83.3333066,468.872319 83.4037782,469.00239 83.4770687,469.129641 C83.4955927,469.161454 83.5141167,469.193267 83.5326407,469.22508 C83.5700913,469.288706 83.6083473,469.351124 83.6474087,469.413541 C83.6667381,469.444549 83.6864702,469.475557 83.7062022,469.506967 C83.8648641,469.753819 84.0348014,469.99302 84.2156114,470.223361 C84.2381623,470.251953 84.261116,470.280544 84.2840696,470.309135 C84.3299768,470.365915 84.3766894,470.422695 84.4238048,470.47867 C84.4471611,470.506456 84.4709201,470.533839 84.4950818,470.562028 C84.6626029,470.755321 84.8381779,470.941366 85.0214042,471.120163 C85.0737545,471.171305 85.1265076,471.221642 85.180066,471.271576 C85.501014,471.570779 85.8437074,471.846625 86.2053276,472.097101 C86.235127,472.118041 86.2657318,472.138981 86.2959339,472.159116 C86.4783548,472.282341 86.6652053,472.399122 86.8568881,472.509461 C86.888701,472.527582 86.9205139,472.545703 86.9527295,472.563825 C87.0489737,472.617786 87.1468285,472.669733 87.2450861,472.720473 C87.2781071,472.737386 87.3111281,472.753897 87.3441491,472.770407 C88.5679393,473.378477 89.9471698,473.719962 91.4061339,473.719962 C92.8655007,473.719962 94.2447311,473.378477 95.4685213,472.770407 C95.5015423,472.753897 95.5345633,472.737386 95.5671816,472.720473 C95.6658419,472.669733 95.7632941,472.617786 95.8599409,472.563825 C95.8917538,472.545703 95.9239694,472.527582 95.9557823,472.509461 C96.1474651,472.399122 96.3343156,472.282341 96.5167365,472.159116 C96.5469386,472.138981 96.5771407,472.118041 96.6073429,472.097101 C96.968963,471.846625 97.3116565,471.570779 97.6326044,471.271576 C97.6861628,471.221642 97.7389159,471.171305 97.7912662,471.120163 C97.9744925,470.941366 98.1500675,470.755321 98.3175887,470.562028 C98.3413477,470.533839 98.3651067,470.506456 98.3888657,470.47867 C98.435981,470.422695 98.4826936,470.365915 98.5286008,470.309135 C98.5515545,470.280544 98.5741054,470.251953 98.597059,470.223361 C98.7778691,469.99302 98.9478064,469.753819 99.1064682,469.506967 C99.1262003,469.475557 99.1459323,469.444549 99.1652617,469.413541 C99.2043231,469.351124 99.2425791,469.288706 99.2796271,469.22508 C99.2985537,469.193267 99.3170777,469.161454 99.3356017,469.129641 C99.4088922,469.00239 99.4793638,468.872319 99.5466139,468.741041 C99.5635271,468.708422 99.5800376,468.675401 99.5965481,468.64238 C99.7443371,468.344789 99.8764211,468.037935 99.9915919,467.723028 C100.350796,466.742868 100.546506,465.684183 100.546506,464.579993 L100.546506,374.686382 C100.606507,372.213432 102.629244,370.226937 105.116692,370.226937 C107.592058,370.226937 109.607546,372.19531 109.684059,374.652555 L109.684059,417.088155 C109.684059,422.135937 113.776245,426.228124 118.824028,426.228124 C123.872212,426.228124 127.963997,422.135937 127.963997,417.088155 L127.966816,329.062243 C127.984937,326.553453 130.023782,324.525078 132.536599,324.525078 C135.049818,324.525078 137.088663,326.553453 137.106382,329.062243 L137.106785,443.492868 C137.106785,448.54065 141.198972,452.632837 146.246754,452.632837 C151.294939,452.632837 155.387125,448.54065 155.387125,443.492868 L155.389542,346.382559 L155.389542,346.362827 C155.389542,343.839137 157.435635,341.793446 159.959728,341.793446 C162.483417,341.793446 164.529511,343.839137 164.529511,346.36323 L164.529511,484.982134 L164.529511,484.983745 C164.529511,490.031527 168.621698,494.123714 173.66948,494.123714 C178.717665,494.123714 182.809852,490.031527 182.809852,484.983745 L182.812268,9.08198099 C182.778039,4.06077667 178.698335,0 173.66948,0 C168.64143,0 164.561324,4.06077667 164.529913,9.08198099 L164.529511,325.467384 C164.495684,327.962483 162.46288,329.975555 159.959728,329.975555 C157.456173,329.975555 155.423368,327.962483 155.390347,325.466982 L155.389542,9.09526993 C155.362561,4.06802518 151.280039,0 146.246754,0 C141.213871,0 137.131349,4.06802518 137.107187,9.09526993 L137.106785,308.143847 Z M73.1261957,353.839263 C73.1261957,353.815504 73.1265984,353.791745 73.1270011,353.767986 L73.1261957,353.839263 Z M45.7058858,425.129169 C45.7062885,425.113464 45.7058858,425.098162 45.7058858,425.082457 L45.7058858,425.129169 Z M54.8458549,425.082457 C54.8458549,425.098162 54.8454522,425.113464 54.8454522,425.129169 L54.8458549,425.082457 Z M54.8458549,471.271979 C54.8458549,476.319761 58.9380418,480.412351 63.9858239,480.412351 C69.0340088,480.412351 73.1261957,476.319761 73.1261957,471.271979 C73.1261957,466.223794 69.0340088,462.131607 63.9858239,462.131607 C58.9380418,462.131607 54.8458549,466.223794 54.8458549,471.271979 Z M0.00322156023,411.889765 C0.00322156023,416.93795 4.09540845,421.030136 9.14319063,421.030136 C14.1913755,421.030136 18.2835624,416.93795 18.2835624,411.889765 C18.2835624,406.841982 14.1913755,402.749796 9.14319063,402.749796 C4.09540845,402.749796 0.00322156023,406.841982 0.00322156023,411.889765 Z M905.083253,308.143847 C905.079629,310.664718 903.035146,312.70759 900.51347,312.70759 C897.991794,312.70759 895.946908,310.664718 895.943284,308.143847 L895.943284,9.13996907 C895.940868,4.09218689 891.848681,0 886.800899,0 C881.753116,0 877.66093,4.09218689 877.66093,9.13996907 L877.66093,353.809463 C877.66093,356.333153 875.614836,358.379247 873.090744,358.379247 C870.615377,358.379247 868.599486,356.410873 868.522974,353.954031 L868.522974,9.13996907 C868.522974,4.09218689 864.430787,0 859.383005,0 C854.335223,0 850.243036,4.09218689 850.243036,9.13996907 L850.243036,353.767986 C850.24223,353.791745 850.243036,353.815504 850.243036,353.839263 C850.243036,356.362952 848.196942,358.409046 845.67285,358.409046 C843.148758,358.409046 841.102664,356.362952 841.102664,353.839263 L841.102664,9.14037177 C841.102664,4.09218689 837.010477,0 831.962695,0 C826.91451,0 822.822726,4.09218689 822.822726,9.13996907 L822.822726,406.574593 C822.822726,409.098685 820.776632,411.144779 818.252137,411.144779 C815.728448,411.144779 813.682354,409.098685 813.682354,406.574593 L813.682354,9.13473404 C813.677119,4.08936802 809.58614,0 804.539969,0 C799.491784,0 795.399597,4.09218689 795.399597,9.13996907 L795.399597,9.14802298 L795.399597,353.839263 C795.399597,356.362952 793.353504,358.409046 790.829814,358.409046 C788.305722,358.409046 786.259628,356.362952 786.259628,353.839263 L786.259628,9.14923106 L786.259628,9.13996907 C786.259628,4.09218689 782.167441,0 777.119659,0 C772.071877,0 767.979287,4.09218689 767.979287,9.13996907 L767.976871,385.427466 L767.97969,385.427466 C767.97969,390.475248 772.07228,394.567435 777.120062,394.567435 C782.167844,394.567435 786.260031,390.475248 786.260031,385.427466 C786.260031,385.400888 786.259628,385.374713 786.259628,385.348538 L786.259628,374.796317 C786.259628,372.27303 788.305722,370.226937 790.829814,370.226937 C793.353101,370.226937 795.399194,372.272628 795.399597,374.795915 L795.399597,427.644805 C795.4,427.670577 795.399597,427.695545 795.399597,427.721317 C795.399597,432.769099 799.491784,436.861286 804.539969,436.861286 C809.587751,436.861286 813.679938,432.769099 813.679938,427.721317 C813.679938,427.695545 813.679938,427.670577 813.679535,427.644805 L813.682354,425.082054 C813.682757,422.558364 815.72885,420.512673 818.252137,420.512673 C820.776632,420.512673 822.822726,422.558767 822.822726,425.082457 L822.822726,464.668586 C822.822726,469.716771 826.91451,473.808958 831.962695,473.808958 C837.010477,473.808958 841.102664,469.716771 841.102664,464.668586 L841.102664,374.686382 C841.105886,372.165511 843.150771,370.122639 845.67285,370.122639 C848.194929,370.122639 850.239412,372.165511 850.243036,374.686382 L850.243036,492.525417 C850.243036,493.629607 850.438746,494.688292 850.797547,495.668049 C850.912718,495.983359 851.044802,496.28981 851.192993,496.587805 C851.209101,496.620826 851.226014,496.653847 851.242525,496.686465 C851.310178,496.817744 851.380649,496.947411 851.45394,497.075066 L851.509109,497.170504 C851.546962,497.233728 851.585218,497.296145 851.623877,497.358966 C851.643206,497.389973 851.662939,497.420981 851.682671,497.451988 C851.84093,497.69884 852.01127,497.938041 852.192482,498.168383 C852.215033,498.197377 852.237584,498.225968 852.260538,498.254157 C852.306848,498.311339 852.353158,498.367717 852.400273,498.423691 C852.424032,498.451477 852.447791,498.479263 852.47155,498.507049 C852.639474,498.700746 852.814646,498.887193 852.997873,499.065587 C853.050223,499.11673 853.102976,499.167066 853.156534,499.217001 C853.477885,499.5158 853.820176,499.792049 854.181796,500.042525 C854.211998,500.063063 854.2422,500.084003 854.272805,500.10454 C854.455226,500.227765 854.642076,500.344547 854.833356,500.454482 C854.865169,500.473006 854.897385,500.491128 854.929198,500.509249 C855.025845,500.56321 855.123297,500.615158 855.221957,500.665495 C855.254575,500.682408 855.287596,500.699321 855.320617,500.715831 C856.544408,501.323498 857.923638,501.665386 859.383005,501.665386 C860.841969,501.665386 862.221602,501.323498 863.44499,500.715831 C863.478413,500.699321 863.511032,500.682408 863.544053,500.665495 C863.64231,500.615158 863.739762,500.56321 863.836812,500.509249 C863.868625,500.491128 863.90084,500.473006 863.932653,500.454482 C864.123531,500.344547 864.310784,500.227765 864.493205,500.10454 C864.52381,500.084003 864.554012,500.063063 864.584214,500.042525 C864.945431,499.792049 865.288125,499.5158 865.609475,499.217001 C865.663034,499.167066 865.715787,499.11673 865.767735,499.065587 C865.951364,498.887193 866.126536,498.700746 866.294057,498.507049 C866.318219,498.479263 866.341978,498.451477 866.365737,498.423691 C866.412852,498.367717 866.459162,498.311339 866.505069,498.254157 C866.528023,498.225968 866.550976,498.197377 866.573527,498.168383 C866.75474,497.938041 866.924275,497.69884 867.082937,497.451988 C867.103071,497.420981 867.122803,497.389973 867.142133,497.358966 C867.180791,497.296145 867.219047,497.233728 867.256498,497.170504 C867.275425,497.138692 867.293546,497.106879 867.31207,497.075066 C867.385361,496.947411 867.455832,496.817744 867.523082,496.686465 C867.539995,496.653847 867.556506,496.620826 867.573016,496.587805 C867.720806,496.28981 867.852889,495.983359 867.968463,495.668049 C868.327264,494.688292 868.522974,493.629607 868.522974,492.525417 L868.522974,374.686382 L868.524585,374.686382 C868.583378,372.213432 870.606115,370.226937 873.09316,370.226937 C875.568526,370.226937 877.584015,372.19531 877.66093,374.652555 L877.66093,417.088155 C877.66093,422.135937 881.753116,426.228124 886.800899,426.228124 C891.848681,426.228124 895.940868,422.135937 895.940868,417.088155 L895.943284,329.062243 C895.961405,326.553453 898.00025,324.525078 900.51347,324.525078 C903.026287,324.525078 905.065132,326.553453 905.08285,329.062243 L905.083253,443.492868 C905.083253,448.54065 909.17544,452.632837 914.223625,452.632837 C919.27181,452.632837 923.363594,448.54065 923.363594,443.492868 L923.366413,346.382559 L923.366413,346.362827 C923.366413,343.839137 925.412506,341.793446 927.936196,341.793446 C930.460288,341.793446 932.505979,343.839137 932.506382,346.36323 L932.506382,417.08292 C932.506382,422.132715 936.598569,426.224902 941.646351,426.224902 C946.694133,426.224902 950.78632,422.132715 950.78632,417.084933 L950.788736,9.08198099 C950.754507,4.06077667 946.674804,0 941.646351,0 C936.617898,0 932.537792,4.06077667 932.506784,9.08198099 L932.506382,325.467384 C932.472555,327.962483 930.439348,329.975555 927.936196,329.975555 C925.432641,329.975555 923.400239,327.962483 923.367218,325.466982 L923.366413,9.09526993 C923.339029,4.06802518 919.256507,0 914.223625,0 C909.190742,0 905.107817,4.06802518 905.083656,9.09526993 L905.083253,308.143847 Z M841.102664,353.839263 C841.102664,353.815504 841.103067,353.791745 841.103469,353.767986 L841.102664,353.839263 Z M813.682354,425.129169 C813.68316,425.113464 813.682354,425.098162 813.682354,425.082457 L813.682354,425.129169 Z M822.822726,425.082457 C822.822726,425.098162 822.821921,425.113464 822.821921,425.129169 L822.822726,425.082457 Z M877.66093,448.748441 C877.66093,453.796223 881.753116,457.88841 886.800899,457.88841 C891.848681,457.88841 895.940868,453.796223 895.940868,448.748441 C895.940868,443.700658 891.848681,439.608069 886.800899,439.608069 C881.753116,439.608069 877.66093,443.700658 877.66093,448.748441 Z M822.822726,492.387696 C822.822726,497.43588 826.91451,501.527665 831.962695,501.527665 C837.010477,501.527665 841.102664,497.43588 841.102664,492.387696 C841.102664,487.339913 837.010477,483.247727 831.962695,483.247727 C826.91451,483.247727 822.822726,487.339913 822.822726,492.387696 Z M767.97969,411.889765 C767.97969,416.93795 772.07228,421.030136 777.120062,421.030136 C782.167844,421.030136 786.260031,416.93795 786.260031,411.889765 C786.260031,406.841982 782.167844,402.749796 777.120062,402.749796 C772.07228,402.749796 767.97969,406.841982 767.97969,411.889765 Z M713.087928,308.143847 C713.083901,310.664718 711.039418,312.70759 708.517742,312.70759 C705.996066,312.70759 703.95118,310.664718 703.947959,308.143847 L703.947959,9.13996907 C703.94514,4.09218689 699.853356,0 694.805171,0 C689.756986,0 685.664799,4.09218689 685.664799,9.13996907 L685.664799,353.809463 C685.664799,356.333153 683.618706,358.379247 681.095016,358.379247 C678.619247,358.379247 676.603758,356.410873 676.527649,353.954031 L676.527649,9.13996907 C676.527649,4.09218689 672.435462,0 667.387277,0 C662.339092,0 658.246905,4.09218689 658.246905,9.13996907 L658.246905,353.767986 C658.246503,353.791745 658.246905,353.815504 658.246905,353.839263 C658.246905,356.362952 656.200812,358.409046 653.677122,358.409046 C651.15303,358.409046 649.106936,356.362952 649.106936,353.839263 L649.106936,9.14037177 C649.106936,4.09218689 645.014749,0 639.966967,0 C634.919185,0 630.826998,4.09218689 630.826998,9.13996907 L630.826998,406.574593 C630.826998,409.098685 628.780502,411.144779 626.256812,411.144779 C623.73272,411.144779 621.686626,409.098685 621.686626,406.574593 L621.686626,9.13473404 C621.681391,4.08936802 617.59001,0 612.544241,0 C607.496056,0 603.403869,4.09218689 603.403869,9.13996907 C603.403869,9.14278794 603.404272,9.14560681 603.404272,9.14802298 L603.404272,353.839263 C603.404272,356.362952 601.358179,358.409046 598.834086,358.409046 C596.309994,358.409046 594.264303,356.362952 594.264303,353.839263 L594.2639,9.14923106 C594.2639,9.1464122 594.264303,9.14319063 594.264303,9.13996907 C594.264303,4.09218689 590.172116,0 585.123528,0 C580.075746,0 575.983559,4.09218689 575.983559,9.13996907 L575.981143,457.601288 L575.983962,457.601288 C575.983962,462.64907 580.076149,466.741257 585.124334,466.741257 C590.172116,466.741257 594.264706,462.64907 594.264706,457.601288 C594.264706,457.575113 594.264303,457.548535 594.2639,457.52236 L594.2639,374.796317 C594.264303,372.27303 596.309994,370.226937 598.834086,370.226937 C601.357776,370.226937 603.403467,372.272628 603.404272,374.795915 L603.404272,427.644805 C603.404272,427.670577 603.404272,427.695545 603.404272,427.721317 C603.404272,432.769099 607.496056,436.861286 612.544241,436.861286 C617.592023,436.861286 621.68421,432.769099 621.68421,427.721317 C621.68421,427.695545 621.683807,427.670577 621.683807,427.644805 L621.686626,425.082054 C621.686626,422.558364 623.73272,420.512673 626.256812,420.512673 C628.780502,420.512673 630.826998,422.558767 630.826998,425.082457 L630.826998,443.552869 C630.826998,448.600652 634.919185,452.693241 639.966967,452.693241 C645.014749,452.693241 649.106936,448.600652 649.106936,443.552869 L649.106936,374.686382 C649.11056,372.165511 651.155043,370.122639 653.677122,370.122639 C656.198798,370.122639 658.244086,372.165511 658.246905,374.686382 L658.246905,464.579993 C658.246905,465.684183 658.443018,466.742868 658.801819,467.723028 C658.91699,468.037935 659.049476,468.344789 659.197266,468.64238 C659.213776,468.675401 659.230287,468.708422 659.2472,468.741041 C659.31445,468.872319 659.384921,469.00239 659.458212,469.129641 C659.476333,469.161454 659.494857,469.193267 659.513784,469.22508 C659.551234,469.288706 659.589088,469.351124 659.628149,469.413541 L659.687345,469.506967 C659.845605,469.753819 660.015945,469.99302 660.196755,470.223361 C660.219306,470.251953 660.241856,470.280544 660.26481,470.309135 C660.310717,470.365915 660.357833,470.422695 660.404948,470.47867 C660.428304,470.506456 660.452063,470.533839 660.476225,470.562028 C660.643746,470.755321 660.819321,470.941366 661.002145,471.120163 C661.054495,471.171305 661.107651,471.221642 661.161209,471.271576 C661.482157,471.570779 661.824448,471.846625 662.186471,472.097101 C662.21627,472.118041 662.246472,472.138981 662.277077,472.159116 C662.459095,472.282341 662.646348,472.399122 662.838031,472.509461 C662.869844,472.527582 662.901657,472.545703 662.933873,472.563825 C663.030117,472.617786 663.127569,472.669733 663.226229,472.720473 C663.25925,472.737386 663.292271,472.753897 663.325292,472.770407 C664.549082,473.378477 665.928313,473.719962 667.387277,473.719962 C668.846644,473.719962 670.225472,473.378477 671.449665,472.770407 C671.482685,472.753897 671.515706,472.737386 671.548325,472.720473 C671.646985,472.669733 671.744437,472.617786 671.840681,472.563825 C671.872897,472.545703 671.90471,472.527582 671.936523,472.509461 C672.128206,472.399122 672.315459,472.282341 672.497477,472.159116 C672.528082,472.138981 672.558284,472.118041 672.588486,472.097101 C672.950106,471.846625 673.2928,471.570779 673.613748,471.271576 C673.666903,471.221642 673.720059,471.171305 673.772409,471.120163 C673.955233,470.941366 674.131211,470.755321 674.298732,470.562028 C674.322491,470.533839 674.34625,470.506456 674.369606,470.47867 C674.417124,470.422695 674.463837,470.365915 674.509744,470.309135 C674.532698,470.280544 674.555249,470.251953 674.577799,470.223361 C674.75861,469.99302 674.92895,469.753819 675.087611,469.506967 L675.146405,469.413541 C675.185466,469.351124 675.223722,469.288706 675.26077,469.22508 C675.279294,469.193267 675.298221,469.161454 675.316342,469.129641 C675.390035,469.00239 675.460104,468.872319 675.527354,468.741041 C675.544268,468.708422 675.560778,468.675401 675.577289,468.64238 C675.72548,468.344789 675.857564,468.037935 675.972735,467.723028 C676.331939,466.742868 676.527649,465.684183 676.527649,464.579993 L676.527649,374.686382 C676.587248,372.213432 678.610388,370.226937 681.097432,370.226937 C683.573201,370.226937 685.58869,372.19531 685.664799,374.652555 L685.664799,417.088155 C685.664799,422.135937 689.756986,426.228124 694.805171,426.228124 C699.853356,426.228124 703.94514,422.135937 703.94514,417.088155 L703.947959,329.062243 C703.96608,326.553453 706.004925,324.525078 708.517742,324.525078 C711.030962,324.525078 713.069807,326.553453 713.087525,329.062243 L713.087928,443.492868 C713.087928,448.54065 717.180115,452.632837 722.227897,452.632837 C727.275679,452.632837 731.367866,448.54065 731.367866,443.492868 L731.370282,346.382559 L731.370282,346.362827 C731.370685,343.839137 733.416778,341.793446 735.940468,341.793446 C738.46456,341.793446 740.510654,343.839137 740.510654,346.36323 L740.510654,417.08292 C740.510654,422.132715 744.602841,426.224902 749.650623,426.224902 C754.698808,426.224902 758.790592,422.132715 758.790592,417.084933 L758.793411,9.08198099 C758.759182,4.06077667 754.679076,0 749.650623,0 C744.622573,0 740.542467,4.06077667 740.511057,9.08198099 L740.510654,325.467384 C740.476828,327.962483 738.444023,329.975555 735.940468,329.975555 C733.437316,329.975555 731.404109,327.962483 731.371088,325.466982 L731.370282,9.09526993 C731.343704,4.06802518 727.260779,0 722.227897,0 C717.195014,0 713.11209,4.06802518 713.088331,9.09526993 L713.087928,308.143847 Z M649.106936,353.839263 C649.106936,353.815504 649.107742,353.791745 649.108144,353.767986 L649.106936,353.839263 Z M621.686626,425.129169 C621.687029,425.113464 621.686626,425.098162 621.686626,425.082457 L621.686626,425.129169 Z M630.826998,425.082457 C630.826998,425.098162 630.826595,425.113464 630.826595,425.129169 L630.826998,425.082457 Z M685.664799,448.748441 C685.664799,453.796223 689.756986,457.88841 694.805171,457.88841 C699.853356,457.88841 703.94514,453.796223 703.94514,448.748441 C703.94514,443.700658 699.853356,439.608069 694.805171,439.608069 C689.756986,439.608069 685.664799,443.700658 685.664799,448.748441 Z M630.826998,471.271979 C630.826998,476.319761 634.919185,480.412351 639.966967,480.412351 C645.014749,480.412351 649.106936,476.319761 649.106936,471.271979 C649.106936,466.223794 645.014749,462.131607 639.966967,462.131607 C634.919185,462.131607 630.826998,466.223794 630.826998,471.271979 Z M329.096472,308.143847 C329.092848,310.664718 327.048365,312.70759 324.526689,312.70759 C322.00461,312.70759 319.960127,310.664718 319.956503,308.143847 L319.956503,9.13996907 C319.954087,4.09218689 315.8619,0 310.813715,0 C305.765933,0 301.673746,4.09218689 301.673746,9.13996907 L301.673746,353.809463 C301.673746,356.333153 299.627653,358.379247 297.10356,358.379247 C294.628194,358.379247 292.612705,356.410873 292.536193,353.954031 L292.536193,9.13996907 C292.536193,4.09218689 288.444006,0 283.395821,0 C278.348039,0 274.255852,4.09218689 274.255852,9.13996907 L274.255852,353.767986 C274.25545,353.791745 274.255852,353.815504 274.255852,353.839263 C274.255852,356.362952 272.209759,358.409046 269.685666,358.409046 C267.161977,358.409046 265.115883,356.362952 265.115883,353.839263 L265.115883,9.14037177 C265.115883,4.09218689 261.023696,0 255.975914,0 C250.927729,0 246.835542,4.09218689 246.835542,9.13996907 L246.835542,406.574593 C246.835542,409.098685 244.789449,411.144779 242.265356,411.144779 C239.741667,411.144779 237.695573,409.098685 237.695573,406.574593 L237.695573,9.13473404 C237.689936,4.08936802 233.598957,0 228.552785,0 C223.505003,0 219.412816,4.09218689 219.412816,9.13996907 C219.412816,9.14278794 219.412816,9.14560681 219.412816,9.14802298 L219.412816,353.839263 C219.412816,356.362952 217.366723,358.409046 214.84263,358.409046 C212.318538,358.409046 210.272444,356.362952 210.272444,353.839263 L210.272444,9.14923106 L210.272444,9.13996907 C210.272444,4.09218689 206.18066,0 201.132475,0 C196.084693,0 191.992506,4.09218689 191.992506,9.13996907 L191.99009,385.427466 L191.992909,385.427466 C191.992909,390.475248 196.085096,394.567435 201.132878,394.567435 C206.181063,394.567435 210.27325,390.475248 210.27325,385.427466 C210.27325,385.400888 210.272847,385.374713 210.272444,385.348538 L210.272444,374.796317 C210.272444,372.27303 212.318538,370.226937 214.84263,370.226937 C217.36632,370.226937 219.412414,372.272628 219.412816,374.795915 L219.412816,427.644805 C219.413219,427.670577 219.412816,427.695545 219.412816,427.721317 C219.412816,432.769099 223.505003,436.861286 228.552785,436.861286 C233.60097,436.861286 237.693157,432.769099 237.693157,427.721317 C237.693157,427.695545 237.692754,427.670577 237.692352,427.644805 L237.695573,425.082054 C237.695573,422.558364 239.741667,420.512673 242.265356,420.512673 C244.789449,420.512673 246.835542,422.558767 246.835542,425.082457 L246.835542,443.552869 C246.835542,448.600652 250.927729,452.693241 255.975914,452.693241 C261.023696,452.693241 265.115883,448.600652 265.115883,443.552869 L265.115883,374.686382 C265.119105,372.165511 267.16399,370.122639 269.685666,370.122639 C272.207745,370.122639 274.252631,372.165511 274.255852,374.686382 L274.255852,464.579993 C274.255852,465.684183 274.451562,466.742868 274.810766,467.723028 C274.925937,468.037935 275.058021,468.344789 275.20581,468.64238 C275.22232,468.675401 275.239233,468.708422 275.255744,468.741041 C275.323397,468.872319 275.393466,469.00239 275.466756,469.129641 C275.48528,469.161454 275.503804,469.193267 275.522328,469.22508 C275.559779,469.288706 275.598035,469.351124 275.637096,469.413541 C275.656426,469.444549 275.675755,469.475557 275.69589,469.506967 C275.854149,469.753819 276.024489,469.99302 276.205299,470.223361 C276.22785,470.251953 276.250803,470.280544 276.273757,470.309135 C276.319664,470.365915 276.365974,470.422695 276.413492,470.47867 C276.437251,470.506456 276.46101,470.533839 276.484769,470.562028 C276.65229,470.755321 276.827865,470.941366 277.011092,471.120163 C277.063442,471.171305 277.116195,471.221642 277.169753,471.271576 C277.490701,471.570779 277.833395,471.846625 278.195015,472.097101 C278.225217,472.118041 278.255419,472.138981 278.285621,472.159116 C278.468042,472.282341 278.654893,472.399122 278.846576,472.509461 C278.878388,472.527582 278.910201,472.545703 278.942417,472.563825 C279.039064,472.617786 279.136516,472.669733 279.234774,472.720473 C279.267795,472.737386 279.300816,472.753897 279.333837,472.770407 C280.557627,473.378477 281.936857,473.719962 283.395821,473.719962 C284.855188,473.719962 286.234419,473.378477 287.458209,472.770407 C287.49123,472.753897 287.524251,472.737386 287.556869,472.720473 C287.655529,472.669733 287.752982,472.617786 287.849226,472.563825 C287.881844,472.545703 287.913657,472.527582 287.94547,472.509461 C288.13675,472.399122 288.324003,472.282341 288.506424,472.159116 C288.536626,472.138981 288.566828,472.118041 288.59703,472.097101 C288.95865,471.846625 289.301344,471.570779 289.622292,471.271576 C289.67585,471.221642 289.728603,471.171305 289.780954,471.120163 C289.96418,470.941366 290.139755,470.755321 290.307276,470.562028 C290.331438,470.533839 290.355197,470.506456 290.378553,470.47867 C290.425668,470.422695 290.472381,470.365915 290.518288,470.309135 C290.541242,470.280544 290.564196,470.251953 290.586746,470.223361 C290.767557,469.99302 290.937494,469.753819 291.096156,469.506967 C291.115888,469.475557 291.13562,469.444549 291.154949,469.413541 C291.194011,469.351124 291.232267,469.288706 291.269717,469.22508 C291.288241,469.193267 291.306765,469.161454 291.325289,469.129641 C291.39858,469.00239 291.469051,468.872319 291.536301,468.741041 C291.553215,468.708422 291.569725,468.675401 291.586236,468.64238 C291.734025,468.344789 291.866109,468.037935 291.981682,467.723028 C292.340081,466.742868 292.536193,465.684183 292.536193,464.579993 L292.536193,374.686382 L292.537804,374.686382 C292.596195,372.213432 294.619334,370.226937 297.105976,370.226937 C299.581745,370.226937 301.597234,372.19531 301.673746,374.652555 L301.673746,499.609628 C301.673746,504.658216 305.765933,508.75 310.813715,508.75 C315.8619,508.75 319.954087,504.658216 319.954087,499.609628 L319.956503,329.062243 C319.974624,326.553453 322.013469,324.525078 324.526689,324.525078 C327.039506,324.525078 329.078351,326.553453 329.096069,329.062243 L329.096472,443.492868 C329.096472,448.54065 333.188659,452.632837 338.236441,452.632837 C343.284626,452.632837 347.376813,448.54065 347.376813,443.492868 L347.379229,346.382559 L347.379229,346.362827 C347.379632,343.839137 349.425323,341.793446 351.949415,341.793446 C354.473105,341.793446 356.519198,343.839137 356.519198,346.36323 L356.519198,417.08292 C356.519198,422.132715 360.611385,426.224902 365.65957,426.224902 C370.707352,426.224902 374.799539,422.132715 374.799539,417.084933 L374.801955,9.08198099 C374.767726,4.06077667 370.688023,0 365.65957,0 C360.630714,0 356.551011,4.06077667 356.519601,9.08198099 L356.519198,325.467384 C356.485372,327.962483 354.452567,329.975555 351.949415,329.975555 C349.44586,329.975555 347.413055,327.962483 347.380034,325.466982 L347.379229,9.09526993 C347.352249,4.06802518 343.269726,0 338.236441,0 C333.203559,0 329.121036,4.06802518 329.096875,9.09526993 L329.096472,308.143847 Z M265.115883,353.839263 C265.115883,353.815504 265.116286,353.791745 265.116689,353.767986 L265.115883,353.839263 Z M237.695573,425.129169 C237.695976,425.113464 237.695573,425.098162 237.695573,425.082457 L237.695573,425.129169 Z M246.835542,425.082457 C246.835542,425.098162 246.83514,425.113464 246.834737,425.129169 L246.835542,425.082457 Z M246.835542,471.271979 C246.835542,476.319761 250.927729,480.412351 255.975914,480.412351 C261.023696,480.412351 265.115883,476.319761 265.115883,471.271979 C265.115883,466.223794 261.023696,462.131607 255.975914,462.131607 C250.927729,462.131607 246.835542,466.223794 246.835542,471.271979 Z M191.992909,411.889765 C191.992909,416.93795 196.085096,421.030136 201.132878,421.030136 C206.181063,421.030136 210.27325,416.93795 210.27325,411.889765 C210.27325,406.841982 206.181063,402.749796 201.132878,402.749796 C196.085096,402.749796 191.992909,406.841982 191.992909,411.889765 Z M521.0922,308.143847 C521.088576,310.664718 519.044093,312.70759 516.522014,312.70759 C514.000338,312.70759 511.955855,310.664718 511.951828,308.143847 L511.951828,9.13996907 C511.949412,4.09218689 507.857225,0 502.809443,0 C497.761661,0 493.669474,4.09218689 493.669474,9.13996907 L493.669474,353.809463 C493.669474,356.333153 491.62338,358.379247 489.099288,358.379247 C486.623922,358.379247 484.60803,356.410873 484.531518,353.954031 L484.531518,9.13996907 C484.531518,4.09218689 480.439331,0 475.391549,0 C470.343767,0 466.25158,4.09218689 466.25158,9.13996907 L466.25158,353.767986 C466.250775,353.791745 466.25158,353.815504 466.25158,353.839263 C466.25158,356.362952 464.205487,358.409046 461.681394,358.409046 C459.157704,358.409046 457.111611,356.362952 457.111611,353.839263 L457.111611,9.14037177 C457.111611,4.09218689 453.019424,0 447.971239,0 C442.923457,0 438.83127,4.09218689 438.83127,9.13996907 L438.83127,406.574593 C438.83127,409.098685 436.785177,411.144779 434.261084,411.144779 C431.736992,411.144779 429.690898,409.098685 429.690898,406.574593 L429.690898,9.13473404 C429.685663,4.08936802 425.594685,0 420.548513,0 C415.500731,0 411.408544,4.09218689 411.408544,9.13996907 L411.408544,9.14802298 L411.408544,353.839263 C411.408544,356.362952 409.362048,358.409046 406.838358,358.409046 C404.314266,358.409046 402.268172,356.362952 402.268172,353.839263 L402.268172,9.14923106 L402.268172,9.13996907 C402.268172,4.09218689 398.175985,0 393.128203,0 C388.080421,0 383.988234,4.09218689 383.988234,9.13996907 L383.985415,9.13996907 L383.985415,385.427466 L383.988637,385.427466 C383.988637,390.475248 388.080824,394.567435 393.128606,394.567435 C398.176791,394.567435 402.268575,390.475248 402.268575,385.427466 C402.268575,385.400888 402.268575,385.374713 402.268172,385.348538 L402.268172,374.796317 C402.268172,372.27303 404.314266,370.226937 406.838358,370.226937 C409.362048,370.226937 411.408141,372.272628 411.408544,374.795915 L411.408544,427.644805 C411.408947,427.670577 411.408544,427.695545 411.408544,427.721317 C411.408544,432.769099 415.500731,436.861286 420.548513,436.861286 C425.596295,436.861286 429.688885,432.769099 429.688885,427.721317 C429.688885,427.695545 429.688482,427.670577 429.68808,427.644805 L429.690898,425.082054 C429.691301,422.558364 431.736992,420.512673 434.261084,420.512673 C436.785177,420.512673 438.83127,422.558767 438.83127,425.082457 L438.83127,475.842165 C438.83127,480.889947 442.923457,484.982134 447.971239,484.982134 C453.019424,484.982134 457.111611,480.889947 457.111611,475.842165 L457.111611,374.686382 C457.114833,372.165511 459.159718,370.122639 461.681394,370.122639 C464.20307,370.122639 466.247956,372.165511 466.251177,374.686382 L466.25158,464.579993 C466.25158,465.684183 466.44729,466.742868 466.806091,467.723028 C466.921262,468.037935 467.053749,468.344789 467.201538,468.64238 C467.218048,468.675401 467.234559,468.708422 467.251472,468.741041 C467.318722,468.872319 467.389194,469.00239 467.462484,469.129641 C467.481008,469.161454 467.499532,469.193267 467.518056,469.22508 C467.555507,469.288706 467.593763,469.351124 467.632824,469.413541 C467.651751,469.444549 467.671483,469.475557 467.691618,469.506967 C467.849877,469.753819 468.020217,469.99302 468.201027,470.223361 C468.223578,470.251953 468.246531,470.280544 468.269485,470.309135 C468.314989,470.365915 468.361702,470.422695 468.408817,470.47867 C468.432576,470.506456 468.456335,470.533839 468.480497,470.562028 C468.648018,470.755321 468.823593,470.941366 469.006417,471.120163 C469.058767,471.171305 469.111923,471.221642 469.165481,471.271576 C469.486429,471.570779 469.829123,471.846625 470.190743,472.097101 C470.220542,472.118041 470.251147,472.138981 470.281349,472.159116 C470.46377,472.282341 470.650621,472.399122 470.841901,472.509461 C470.873714,472.527582 470.905929,472.545703 470.938145,472.563825 C471.034389,472.617786 471.132244,472.669733 471.230501,472.720473 C471.263522,472.737386 471.296543,472.753897 471.329564,472.770407 C472.552952,473.378477 473.932585,473.719962 475.391549,473.719962 C476.850916,473.719962 478.230146,473.378477 479.453937,472.770407 C479.486958,472.753897 479.519979,472.737386 479.552597,472.720473 C479.651257,472.669733 479.748709,472.617786 479.845356,472.563825 C479.877169,472.545703 479.909385,472.527582 479.941198,472.509461 C480.13288,472.399122 480.319328,472.282341 480.502152,472.159116 C480.532354,472.138981 480.562556,472.118041 480.592758,472.097101 C480.954378,471.846625 481.296669,471.570779 481.61802,471.271576 C481.671578,471.221642 481.724331,471.171305 481.776682,471.120163 C481.959908,470.941366 482.13508,470.755321 482.302601,470.562028 C482.326763,470.533839 482.350522,470.506456 482.374281,470.47867 C482.421396,470.422695 482.467706,470.365915 482.514016,470.309135 C482.536567,470.280544 482.559521,470.251953 482.582474,470.223361 C482.763284,469.99302 482.933222,469.753819 483.091884,469.506967 C483.111616,469.475557 483.131348,469.444549 483.150677,469.413541 C483.189336,469.351124 483.227592,469.288706 483.265042,469.22508 C483.283969,469.193267 483.302493,469.161454 483.321017,469.129641 C483.393905,469.00239 483.464376,468.872319 483.531627,468.741041 C483.54854,468.708422 483.565453,468.675401 483.581561,468.64238 C483.72935,468.344789 483.861836,468.037935 483.977007,467.723028 C484.335808,466.742868 484.531518,465.684183 484.531518,464.579993 L484.531518,374.686382 L484.533129,374.686382 C484.591923,372.213432 486.61466,370.226937 489.101704,370.226937 C491.577473,370.226937 493.592962,372.19531 493.669474,374.652555 L493.669474,447.177125 C493.669474,452.224907 497.761661,456.317496 502.809443,456.317496 C507.857225,456.317496 511.949412,452.224907 511.949412,447.177125 L511.951828,329.062243 C511.969949,326.553453 514.009197,324.525078 516.522014,324.525078 C519.034831,324.525078 521.074079,326.553453 521.091797,329.062243 L521.0922,443.492868 C521.0922,448.54065 525.184387,452.632837 530.232169,452.632837 C535.280354,452.632837 539.372541,448.54065 539.372541,443.492868 L539.374957,346.382559 L539.374957,346.362827 C539.374957,343.839137 541.42105,341.793446 543.945143,341.793446 C546.468833,341.793446 548.514926,343.839137 548.514926,346.36323 L548.514926,417.08292 C548.514926,422.132715 552.607113,426.224902 557.654895,426.224902 C562.70308,426.224902 566.795267,422.132715 566.795267,417.084933 L566.797683,9.08198099 C566.763454,4.06077667 562.683751,0 557.654895,0 C552.626442,0 548.546739,4.06077667 548.515329,9.08198099 L548.514926,325.467384 C548.4811,327.962483 546.448295,329.975555 543.945143,329.975555 C541.441588,329.975555 539.408783,327.962483 539.375762,325.466982 L539.374957,9.09526993 C539.347574,4.06802518 535.265454,0 530.232169,0 C525.199287,0 521.116764,4.06802518 521.0922,9.09526993 L521.0922,308.143847 Z M457.111611,353.839263 C457.111611,353.815504 457.112014,353.791745 457.112416,353.767986 L457.111611,353.839263 Z M429.690898,425.129169 C429.691301,425.113464 429.690898,425.098162 429.690898,425.082457 L429.690898,425.129169 Z M438.83127,425.082457 C438.83127,425.098162 438.830867,425.113464 438.830465,425.129169 L438.83127,425.082457 Z M393.128606,421.030136 C388.080824,421.030136 383.988637,416.93795 383.988637,411.889765 C383.988637,406.841982 388.080824,402.749796 393.128606,402.749796 C398.176791,402.749796 402.268575,406.841982 402.268575,411.889765 C402.268575,416.93795 398.176791,421.030136 393.128606,421.030136 Z"></path>
                        </g>
                    </g>
                </g>
            </g>
        </g>
    </g>
</svg>