<?xml version="1.0" encoding="UTF-8"?>
<svg width="1500px" height="742px" viewBox="0 0 1500 742" version="1.1" xmlns="http://www.w3.org/2000/svg" xmlns:xlink="http://www.w3.org/1999/xlink">
    <!-- Generator: Sketch 59.1 (86144) - https://sketch.com -->
    <title>say_hello_header</title>
    <desc>Created with Sketch.</desc>
    <defs>
        <polygon id="path-1" points="0.000351908088 0 1496.82979 0 1496.82979 634.783875 0.000351908088 634.783875"></polygon>
    </defs>
    <g id="say_hello_header" stroke="none" stroke-width="1" fill="none" fill-rule="evenodd" opacity="0.1">
        <g id="fish-white" transform="translate(0.000000, -180.000000)">
            <g id="Group-3">
                <mask id="mask-2" fill="white">
                    <use xlink:href="#path-1"></use>
                </mask>
                <g id="Clip-2"></g>
                <path d="M1196.23586,251.154257 C1196.26685,283.156989 1222.46078,309.237045 1254.34435,309.210314 C1286.29902,309.178614 1312.42538,283.054911 1312.39444,251.051474 C1312.36696,219.048741 1286.19626,192.924334 1254.2416,192.951065 C1222.35309,192.982766 1196.20914,219.155748 1196.23586,251.154257 M1309.04002,541.294345 C1378.68474,541.23169 1375.0798,535.473043 1396.89669,535.451219 C1418.64672,535.433619 1420.14303,548.458863 1420.14726,557.205953 C1420.17893,589.181934 1348.98018,628.525182 1222.75075,628.636413 C1148.68536,628.703996 1103.6179,589.467754 1090.5058,545.890703 C1018.00781,592.447749 907.704331,634.685105 798.781036,634.784078 C501.201223,635.05118 425.572656,505.766729 332.620357,463.860249 C261.399791,431.941995 152.61937,494.540886 0.000351908088,324.734002 C20.36105,329.079739 47.9745739,330.505321 69.755573,330.487017 C203.229384,330.366635 274.315521,265.03837 274.221914,160.371784 C274.213468,147.287405 272.738973,132.921058 271.287704,119.89511 C311.983059,135.825022 404.953657,205.343442 426.872604,328.713664 C429.797664,343.249672 489.290542,356.271396 527.015792,356.236197 C579.32693,356.191141 646.081782,334.297721 656.156911,248.719855 C830.388013,234.044456 947.935167,130.866108 972.511724,-0.000211197339 C1034.8811,20.3204928 1106.05662,76.9248997 1123.52815,105.983542 C1148.20324,97.2681314 1177.20188,92.8815626 1210.60359,92.850587 C1257.0463,92.8097555 1309.36167,101.454063 1371.77045,120.345665 C1374.68707,101.392111 1377.56356,78.1399884 1406.63258,78.1132367 C1450.16361,78.0731092 1438.57457,126.064185 1453.12034,153.496607 C1460.40484,168.015016 1496.8034,176.730426 1496.83016,205.772172 C1496.85689,233.446768 1473.49019,243.631407 1459.02888,243.644783 C1453.20058,243.653935 1445.95268,242.201601 1441.55312,240.772499 C1412.60376,250.962771 1411.31366,460.013641 1289.34021,460.120648 C1199.33549,460.200903 1116.52096,386.206507 1080.10833,293.391613 C1069.89947,265.806424 1048.16774,248.362228 1027.79789,248.380532 C1004.61419,248.402355 991.555583,252.780476 964.049039,283.367483 C885.736117,368.990404 755.102908,443.127006 593.953637,443.274844 C544.549261,443.3199 505.372741,439.01781 495.204005,439.026258 C489.362331,439.031186 489.366554,440.456064 489.366554,441.894318 C489.375703,452.083885 538.756854,491.301823 646.224657,491.207488 C901.733155,490.975171 964.106752,347.118104 1004.70357,347.082904 C1010.52272,347.07868 1027.8915,347.060376 1038.07431,370.303348 C1097.72273,509.523226 1227.73095,541.369672 1309.04002,541.294345" id="Fill-1" fill="#FFFFFF" mask="url(#mask-2)"></path>
            </g>
        </g>
    </g>
</svg>