<?xml version="1.0" encoding="UTF-8"?>
<svg width="1500px" height="742px" viewBox="0 0 1500 742" version="1.1" xmlns="http://www.w3.org/2000/svg" xmlns:xlink="http://www.w3.org/1999/xlink">
    <!-- Generator: Sketch 59.1 (86144) - https://sketch.com -->
    <title>whats_cooking_header</title>
    <desc>Created with Sketch.</desc>
    <defs>
        <polygon id="path-1" points="3.1053971e-05 0 1499.83427 0 1499.83427 1076.57004 3.1053971e-05 1076.57004"></polygon>
    </defs>
    <g id="whats_cooking_header" stroke="none" stroke-width="1" fill="none" fill-rule="evenodd">
        <g id="dna" transform="translate(0.000000, -356.000000)">
            <g id="Group-3">
                <mask id="mask-2" fill="white">
                    <use xlink:href="#path-1"></use>
                </mask>
                <g id="Clip-2"></g>
                <path d="M1241.07913,224.633256 C1418.78087,224.474905 1499.68122,378.998712 1499.83456,552.650543 C1499.9078,628.509305 1478.57948,739.89124 1443.55185,739.924798 C1408.48542,739.957307 1413.85185,677.528011 1408.37948,620.464839 C1402.97948,547.278127 1389.47948,531.00882 1365.18577,531.029794 C1319.3592,531.075936 1289.98332,639.585521 1290.07668,740.064273 C1290.13017,802.334169 1300.94906,872.941114 1349.31094,872.893923 C1376.25115,872.873998 1400.49766,859.238989 1416.66514,842.988559 C1406.01724,967.73599 1314.44276,1076.45007 1185.26129,1076.57079 C948.337867,1076.7825 859.184371,797.352913 832.08472,634.599022 C689.522832,786.64898 557.786119,898.070765 320.723182,898.282599 C100.013392,898.480801 0.139615385,735.799269 3.1053971e-05,581.174788 C-0.0397552448,534.981241 16.048007,415.668098 72.6483566,415.621955 C139.876678,415.561132 80.9203846,637.973692 212.822832,637.854141 C245.196608,637.821632 304.310245,610.589367 336.564441,521.154322 C355.385769,466.815635 366.139615,409.918155 366.092413,361.037876 C366.02528,287.719029 349.80535,241.738365 296.090664,241.783459 C250.178077,241.824358 193.623881,277.014048 174.797308,296.05503 C239.338217,100.6241 395.41479,0.158980721 567.630524,-0.00056645109 C780.485769,-0.193377605 893.667587,189.635475 893.859545,401.263354 C893.886818,431.048119 891.153252,463.625534 885.819336,493.470074 C977.208147,341.459966 1103.79661,224.759099 1241.07913,224.633256 M1033.97539,544.942704 C1033.92808,498.756498 1023.12178,487.925674 1012.36794,487.939294 C985.407797,487.965524 955.919685,520.59013 912.871783,593.916317 C918.38507,691.548936 934.625979,734.950882 961.492762,734.929916 C991.025979,734.903692 1034.055,639.817281 1033.97539,544.942704 M665.095909,656.471466 C694.736119,656.445238 732.463741,623.808048 802.490664,545.156636 C807.838217,509.865223 807.80465,477.241666 807.771084,436.52016 C807.718636,382.354506 786.112343,322.664376 753.777378,322.690585 C672.904301,322.764001 632.841713,539.89643 632.895156,596.920801 C632.921434,629.298965 648.981923,656.49138 665.095909,656.471466 M1104.39976,897.572645 C1171.60815,897.506572 1246.82948,636.91347 1246.68493,474.144898 C1246.65115,438.807343 1241.23752,400.944553 1225.03752,400.965518 C1168.47703,401.01062 1074.51409,669.649237 1074.63984,816.122285 C1074.69346,873.145608 1088.19976,897.586272 1104.39976,897.572645 M444.604301,748.984404 C536.092762,748.898399 640.517937,249.604555 640.444549,165.433912 C640.42458,143.699905 632.470385,127.431647 613.610245,127.444224 C530.135769,127.523931 414.818287,602.385501 414.911587,708.262885 C414.930524,727.27031 420.304301,749.003268 444.604301,748.984404" id="Fill-1" fill-opacity="0.1" fill="#FFFFFF" mask="url(#mask-2)"></path>
            </g>
        </g>
    </g>
</svg>