<?xml version="1.0" encoding="UTF-8"?>
<svg width="1500px" height="742px" viewBox="0 0 1500 742" version="1.1" xmlns="http://www.w3.org/2000/svg" xmlns:xlink="http://www.w3.org/1999/xlink">
    <!-- Generator: Sketch 59.1 (86144) - https://sketch.com -->
    <title>our_spaces_header</title>
    <desc>Created with Sketch.</desc>
    <defs>
        <polygon id="path-1" points="0.461540293 0.427168486 1499.27793 0.427168486 1499.27793 1438.56858 0.461540293 1438.56858"></polygon>
    </defs>
    <g id="our_spaces_header" stroke="none" stroke-width="1" fill="none" fill-rule="evenodd" opacity="0.1">
        <g id="swirl" transform="translate(0.000000, -766.000000)">
            <g id="Group-3" transform="translate(750.000000, 719.500000) scale(1, -1) translate(-750.000000, -719.500000) ">
                <mask id="mask-2" fill="white">
                    <use xlink:href="#path-1"></use>
                </mask>
                <g id="Clip-2"></g>
                <path d="M280.261413,114.946312 C172.864339,141.209296 0.219686405,310.500444 0.461540293,577.873292 C0.749223669,896.904109 343.382493,1388.52042 906.943719,1388.01408 C1382.55644,1387.58327 1499.4816,1058.57402 1499.27793,836.914287 C1498.83877,345.064282 1195.74905,0.0721346783 801.580115,0.427168486 C586.48184,0.624173621 394.426785,157.28281 394.639077,388.345088 C394.834672,603.509122 557.988203,925.730557 945.691773,925.382403 C1128.12809,925.215479 1235.45719,794.72325 1235.32122,645.19462 C1235.18526,498.4858 1101.44967,296.816316 905.959781,296.990393 C847.315914,297.044047 805.134216,335.856081 805.186693,397.840635 C805.263023,475.94878 912.743583,554.172579 1046.26807,554.050964 C1078.86085,554.029502 1104.94295,547.496843 1117.99533,540.949875 C1124.51317,550.778076 1127.8025,567.047129 1127.818,580.050448 C1127.88599,655.075282 1056.16708,700.75263 945.494985,700.850399 C779.384871,701.001823 619.4837,577.314099 619.309572,381.653852 C619.203426,264.649019 720.188806,179.832945 866.779987,179.698214 C1156.75889,179.440676 1329.56097,436.471438 1329.79473,693.97197 C1329.99986,925.034249 1203.23532,1058.84587 942.561063,1059.08075 C421.167224,1059.54814 166.798513,590.732342 280.261413,114.946312" id="Fill-1" fill="#FFFFFF" mask="url(#mask-2)"></path>
            </g>
        </g>
    </g>
</svg>