<?xml version="1.0" encoding="UTF-8"?>
<svg width="1490px" height="294px" viewBox="0 0 1490 294" version="1.1" xmlns="http://www.w3.org/2000/svg" xmlns:xlink="http://www.w3.org/1999/xlink">
    <!-- Generator: Sketch 59.1 (86144) - https://sketch.com -->
    <title>Group 2</title>
    <desc>Created with Sketch.</desc>
    <defs>
        <polygon id="path-1" points="0.305744861 0 1500.30574 0 1500.30574 322 0.305744861 322"></polygon>
    </defs>
    <g id="Pages-1" stroke="none" stroke-width="1" fill="none" fill-rule="evenodd">
        <g id="Let's-co-create" transform="translate(0.000000, -3849.000000)">
            <g id="signup-copy" transform="translate(-554.000000, 3835.000000)">
                <g id="Image">
                    <g id="Group-2" transform="translate(553.694255, 14.000000)">
                        <mask id="mask-2" fill="white">
                            <use xlink:href="#path-1"></use>
                        </mask>
                        <g id="Rectangle"></g>
                        <g id="honeydrop" mask="url(#mask-2)" fill="#FFFFFF" fill-opacity="0.08">
                            <g transform="translate(-139.000000, -631.000000)" id="Fill-1">
                                <path d="M249.285063,560.26154 C249.278473,564.844942 245.561232,568.559254 240.975634,568.559254 C236.390768,568.559254 232.673527,564.844942 232.666937,560.26154 L232.666937,16.6181256 C232.661812,7.44033979 225.222205,0 216.043687,0 C206.865901,0 199.425561,7.44033979 199.425561,16.6181256 L199.425561,643.289933 C199.425561,647.87846 195.705391,651.59863 191.116132,651.59863 C186.615466,651.59863 182.950209,648.019769 182.811828,643.552783 L182.811828,16.6181256 C182.811828,7.44033979 175.371489,0 166.192971,0 C157.015185,0 149.574845,7.44033979 149.574845,16.6181256 L149.574845,643.21452 C149.573381,643.257718 149.574845,643.300916 149.574845,643.344114 C149.574845,647.932641 145.854675,651.652811 141.265416,651.652811 C136.676889,651.652811 132.956719,647.932641 132.956719,643.344114 L132.956719,16.6188578 C132.956719,7.44033979 125.51638,0 116.337862,0 C107.160076,0 99.7197361,7.44033979 99.7197361,16.6181256 L99.7197361,739.226533 C99.7197361,743.815792 95.9995662,747.535962 91.4103073,747.535962 C86.8210483,747.535962 83.1016105,743.815792 83.1016105,739.226533 L83.1016105,16.6086073 C83.0913601,7.43521458 75.6532169,0 66.4783597,0 C57.3005739,0 49.859502,7.44033979 49.859502,16.6181256 C49.859502,16.6232508 49.8602342,16.628376 49.8602342,16.632769 L49.8602342,643.344114 C49.8602342,647.932641 46.1400643,651.652811 41.5508053,651.652811 C36.9615463,651.652811 33.2413764,647.932641 33.2413764,643.344114 L33.2413764,16.6349656 L33.2413764,16.6181256 C33.2413764,7.44033979 25.8017688,0 16.6232508,0 C7.445465,0 0.00512520946,7.44033979 0.00512520946,16.6181256 L0,16.6181256 L0,700.777211 L0.00585738224,700.777211 C0.00585738224,709.954997 7.44619717,717.395337 16.623983,717.395337 C25.8025009,717.395337 33.2428407,709.954997 33.2428407,700.777211 C33.2428407,700.728888 33.2421086,700.681297 33.2413764,700.633705 L33.2413764,681.44785 C33.2421086,676.860055 36.9615463,673.139885 41.5508053,673.139885 C46.1393321,673.139885 49.859502,676.859323 49.8602342,681.447118 L49.8602342,777.536009 C49.8602342,777.582868 49.8602342,777.628263 49.8602342,777.675122 C49.8602342,786.852908 57.3005739,794.293247 66.4783597,794.293247 C75.6561455,794.293247 83.0972175,786.852908 83.0972175,777.675122 C83.0972175,777.628263 83.0964853,777.582868 83.0964853,777.536009 L83.1016105,772.876461 C83.1016105,768.287935 86.8217804,764.568497 91.4103073,764.568497 C95.9995662,764.568497 99.7197361,768.288667 99.7197361,772.877194 L99.7197361,806.459763 C99.7197361,815.637548 107.160076,823.07862 116.337862,823.07862 C125.51638,823.07862 132.956719,815.637548 132.956719,806.459763 L132.956719,681.247967 C132.962577,676.664565 136.68055,672.950253 141.265416,672.950253 C145.851014,672.950253 149.568988,676.664565 149.574845,681.247967 L149.574845,844.690896 C149.574845,846.698514 149.930681,848.623396 150.583047,850.405505 C150.792448,850.978064 151.033333,851.53598 151.302041,852.077055 C151.33206,852.137094 151.362079,852.197132 151.39283,852.256438 C151.515103,852.495126 151.643233,852.731618 151.776489,852.962985 C151.810169,853.020826 151.843849,853.078668 151.877528,853.136509 C151.945621,853.252193 152.015177,853.36568 152.086198,853.479166 C152.121342,853.535544 152.157218,853.591921 152.193095,853.64903 C152.481571,854.097852 152.790548,854.532763 153.119294,854.951566 C153.160295,855.00355 153.202029,855.055534 153.243763,855.107519 C153.327231,855.210755 153.412163,855.313991 153.497827,855.415763 C153.540293,855.466283 153.583491,855.516071 153.627421,855.567323 C153.932005,855.918766 154.251233,856.25703 154.584371,856.582115 C154.679554,856.675101 154.775468,856.766622 154.872847,856.857412 C155.456389,857.401416 156.079468,857.902954 156.736959,858.358366 C156.79114,858.396439 156.846785,858.434512 156.901698,858.47112 C157.233372,858.695165 157.573101,858.907495 157.921615,859.108111 C157.979456,859.141058 158.037298,859.174006 158.095872,859.206954 C158.270861,859.305065 158.448779,859.399515 158.627429,859.491769 C158.687467,859.52252 158.747506,859.55254 158.807544,859.582559 C161.032617,860.68814 163.540309,861.309022 166.192971,861.309022 C168.846365,861.309022 171.354057,860.68814 173.57913,859.582559 C173.639168,859.55254 173.699206,859.52252 173.758512,859.491769 C173.937894,859.399515 174.11508,859.305065 174.290802,859.206954 C174.348643,859.174006 174.407217,859.141058 174.465059,859.108111 C174.813573,858.907495 175.153301,858.695165 175.484975,858.47112 C175.539888,858.434512 175.594801,858.396439 175.649714,858.358366 C176.307205,857.902954 176.930284,857.401416 177.513826,856.857412 C177.611205,856.766622 177.70712,856.675101 177.802302,856.582115 C178.135441,856.25703 178.454668,855.918766 178.759252,855.567323 C178.80245,855.516071 178.845648,855.466283 178.888847,855.415763 C178.974511,855.313991 179.059443,855.210755 179.142911,855.107519 C179.184644,855.055534 179.225646,855.00355 179.26738,854.951566 C179.596126,854.532763 179.905102,854.097852 180.193579,853.64903 C180.229455,853.591921 180.265332,853.535544 180.300476,853.479166 C180.371497,853.36568 180.441053,853.252193 180.508413,853.136509 C180.542825,853.078668 180.576505,853.020826 180.610185,852.962985 C180.74344,852.731618 180.871571,852.495126 180.993843,852.256438 C181.024595,852.197132 181.054614,852.137094 181.084633,852.077055 C181.35334,851.53598 181.593493,850.978064 181.802894,850.405505 C182.455992,848.623396 182.811828,846.698514 182.811828,844.690896 L182.811828,681.247967 C182.920922,676.751694 186.598626,673.139885 191.121257,673.139885 C195.621923,673.139885 199.286448,676.718746 199.425561,681.186464 L199.425561,758.3421 C199.425561,767.519885 206.865901,774.960225 216.043687,774.960225 C225.222205,774.960225 232.661812,767.519885 232.661812,758.3421 L232.666937,598.294987 C232.699885,593.733551 236.406876,590.045597 240.975634,590.045597 C245.545124,590.045597 249.252115,593.733551 249.284331,598.294987 L249.285063,806.350669 C249.285063,815.528455 256.725403,822.968794 265.903189,822.968794 C275.081707,822.968794 282.522046,815.528455 282.522046,806.350669 L282.526439,629.786471 L282.526439,629.750594 C282.526439,625.162067 286.246609,621.44263 290.835868,621.44263 C295.424395,621.44263 299.144565,625.162067 299.144565,629.751326 L299.144565,881.785698 L299.144565,881.788627 C299.144565,890.966413 306.584905,898.406752 315.762691,898.406752 C324.941209,898.406752 332.381548,890.966413 332.381548,881.788627 L332.385941,16.5126927 C332.323707,7.38323031 324.906064,0 315.762691,0 C306.620781,0 299.202407,7.38323031 299.145297,16.5126927 L299.144565,591.758881 C299.083062,596.295423 295.387054,599.955555 290.835868,599.955555 C286.28395,599.955555 282.587942,596.295423 282.527904,591.758149 L282.526439,16.5368544 C282.477384,7.39640942 275.054616,0 265.903189,0 C256.752493,0 249.329726,7.39640942 249.285795,16.5368544 L249.285063,560.26154 Z M132.956719,643.344114 C132.956719,643.300916 132.957452,643.257718 132.958184,643.21452 L132.956719,643.344114 Z M83.1016105,772.962126 C83.1023427,772.933571 83.1016105,772.905748 83.1016105,772.877194 L83.1016105,772.962126 Z M99.7197361,772.877194 C99.7197361,772.905748 99.719004,772.933571 99.719004,772.962126 L99.7197361,772.877194 Z M99.7197361,856.858144 C99.7197361,866.035929 107.160076,873.477001 116.337862,873.477001 C125.51638,873.477001 132.956719,866.035929 132.956719,856.858144 C132.956719,847.679626 125.51638,840.239286 116.337862,840.239286 C107.160076,840.239286 99.7197361,847.679626 99.7197361,856.858144 Z M0.00585738224,748.890481 C0.00585738224,758.068999 7.44619717,765.509339 16.623983,765.509339 C25.8025009,765.509339 33.2428407,758.068999 33.2428407,748.890481 C33.2428407,739.712695 25.8025009,732.272356 16.623983,732.272356 C7.44619717,732.272356 0.00585738224,739.712695 0.00585738224,748.890481 Z M1645.60591,560.26154 C1645.59932,564.844942 1641.88208,568.559254 1637.29722,568.559254 C1632.71235,568.559254 1628.99438,564.844942 1628.98779,560.26154 L1628.98779,16.6181256 C1628.9834,7.44033979 1621.54306,0 1612.36527,0 C1603.18748,0 1595.74714,7.44033979 1595.74714,16.6181256 L1595.74714,643.289933 C1595.74714,647.87846 1592.02697,651.59863 1587.43772,651.59863 C1582.93705,651.59863 1579.27179,648.019769 1579.13268,643.552783 L1579.13268,16.6181256 C1579.13268,7.44033979 1571.69234,0 1562.51455,0 C1553.33677,0 1545.89643,7.44033979 1545.89643,16.6181256 L1545.89643,643.21452 C1545.89496,643.257718 1545.89643,643.300916 1545.89643,643.344114 C1545.89643,647.932641 1542.17626,651.652811 1537.587,651.652811 C1532.99774,651.652811 1529.27757,647.932641 1529.27757,643.344114 L1529.27757,16.6188578 C1529.27757,7.44033979 1521.83723,0 1512.65945,0 C1503.48093,0 1496.04132,7.44033979 1496.04132,16.6181256 L1496.04132,739.226533 C1496.04132,743.815792 1492.32115,747.535962 1487.73116,747.535962 C1483.14263,747.535962 1479.42246,743.815792 1479.42246,739.226533 L1479.42246,16.6086073 C1479.41294,7.43521458 1471.9748,0 1462.79994,0 C1453.62143,0 1446.18109,7.44033979 1446.18109,16.6181256 L1446.18109,16.632769 L1446.18109,643.344114 C1446.18109,647.932641 1442.46092,651.652811 1437.87239,651.652811 C1433.28313,651.652811 1429.56296,647.932641 1429.56296,643.344114 L1429.56296,16.6349656 L1429.56296,16.6181256 C1429.56296,7.44033979 1422.12262,0 1412.94483,0 C1403.76705,0 1396.32598,7.44033979 1396.32598,16.6181256 L1396.32158,700.777211 L1396.32671,700.777211 C1396.32671,709.954997 1403.76778,717.395337 1412.94557,717.395337 C1422.12335,717.395337 1429.56369,709.954997 1429.56369,700.777211 C1429.56369,700.728888 1429.56296,700.681297 1429.56296,700.633705 L1429.56296,681.44785 C1429.56296,676.860055 1433.28313,673.139885 1437.87239,673.139885 C1442.46018,673.139885 1446.18035,676.859323 1446.18109,681.447118 L1446.18109,777.536009 C1446.18182,777.582868 1446.18109,777.628263 1446.18109,777.675122 C1446.18109,786.852908 1453.62143,794.293247 1462.79994,794.293247 C1471.97773,794.293247 1479.41807,786.852908 1479.41807,777.675122 C1479.41807,777.628263 1479.41807,777.582868 1479.41734,777.536009 L1479.42246,772.876461 C1479.42319,768.287935 1483.14336,764.568497 1487.73116,764.568497 C1492.32115,764.568497 1496.04132,768.288667 1496.04132,772.877194 L1496.04132,844.851974 C1496.04132,854.030492 1503.48093,861.470832 1512.65945,861.470832 C1521.83723,861.470832 1529.27757,854.030492 1529.27757,844.851974 L1529.27757,681.247967 C1529.28343,676.664565 1533.0014,672.950253 1537.587,672.950253 C1542.1726,672.950253 1545.88984,676.664565 1545.89643,681.247967 L1545.89643,895.500759 C1545.89643,897.508376 1546.25226,899.433259 1546.90463,901.214635 C1547.11403,901.787926 1547.35418,902.34511 1547.62362,902.886918 C1547.65291,902.946956 1547.68366,903.006994 1547.71368,903.0663 C1547.83669,903.304988 1547.96482,903.540748 1548.09807,903.772847 L1548.19838,903.946372 C1548.2672,904.061323 1548.33676,904.17481 1548.40705,904.289029 C1548.44219,904.345406 1548.47807,904.401783 1548.51395,904.45816 C1548.80169,904.906982 1549.1114,905.341893 1549.44088,905.760696 C1549.48188,905.813412 1549.52288,905.865397 1549.56461,905.916649 C1549.64881,906.020617 1549.73301,906.123121 1549.81868,906.224893 C1549.86188,906.275413 1549.90507,906.325933 1549.94827,906.376453 C1550.25359,906.728628 1550.57208,907.067624 1550.90522,907.391977 C1551.00041,907.484963 1551.09632,907.576484 1551.1937,907.667274 C1551.77797,908.210546 1552.40032,908.712817 1553.05781,909.168228 C1553.11272,909.205569 1553.16764,909.243642 1553.22328,909.280983 C1553.55496,909.505027 1553.89468,909.717358 1554.24247,909.917241 C1554.30031,909.950921 1554.35888,909.983868 1554.41672,910.016816 C1554.59244,910.114927 1554.76963,910.209378 1554.94901,910.300899 C1555.00832,910.331651 1555.06836,910.362402 1555.1284,910.392421 C1557.35347,911.49727 1559.86116,912.118884 1562.51455,912.118884 C1565.16722,912.118884 1567.67564,911.49727 1569.89998,910.392421 C1569.96075,910.362402 1570.02006,910.331651 1570.0801,910.300899 C1570.25875,910.209378 1570.43593,910.114927 1570.61239,910.016816 C1570.67023,909.983868 1570.7288,909.950921 1570.78664,909.917241 C1571.13369,909.717358 1571.47415,909.505027 1571.80583,909.280983 C1571.86147,909.243642 1571.91639,909.205569 1571.9713,909.168228 C1572.62806,908.712817 1573.25114,908.210546 1573.83541,907.667274 C1573.93279,907.576484 1574.0287,907.484963 1574.12315,907.391977 C1574.45702,907.067624 1574.77552,906.728628 1575.0801,906.376453 C1575.12403,906.325933 1575.16723,906.275413 1575.21043,906.224893 C1575.29609,906.123121 1575.38029,906.020617 1575.46376,905.916649 C1575.5055,905.865397 1575.54723,905.813412 1575.58823,905.760696 C1575.91771,905.341893 1576.22595,904.906982 1576.51443,904.45816 C1576.55104,904.401783 1576.58692,904.345406 1576.62206,904.289029 C1576.69235,904.17481 1576.7619,904.061323 1576.83,903.946372 C1576.86441,903.88853 1576.89736,903.830688 1576.93104,903.772847 C1577.06429,903.540748 1577.19242,903.304988 1577.31469,903.0663 C1577.34545,903.006994 1577.37547,902.946956 1577.40548,902.886918 C1577.67419,902.34511 1577.91434,901.787926 1578.12448,901.214635 C1578.77684,899.433259 1579.13268,897.508376 1579.13268,895.500759 L1579.13268,681.247967 L1579.13561,681.247967 C1579.24251,676.751694 1582.92021,673.139885 1587.44211,673.139885 C1591.94277,673.139885 1595.6073,676.718746 1595.74714,681.186464 L1595.74714,758.3421 C1595.74714,767.519885 1603.18748,774.960225 1612.36527,774.960225 C1621.54306,774.960225 1628.9834,767.519885 1628.9834,758.3421 L1628.98779,598.294987 C1629.02074,593.733551 1632.72773,590.045597 1637.29722,590.045597 C1641.86598,590.045597 1645.57297,593.733551 1645.60518,598.294987 L1645.60591,806.350669 C1645.60591,815.528455 1653.04625,822.968794 1662.22477,822.968794 C1671.40329,822.968794 1678.8429,815.528455 1678.8429,806.350669 L1678.84802,629.786471 L1678.84802,629.750594 C1678.84802,625.162067 1682.56819,621.44263 1687.15672,621.44263 C1691.74598,621.44263 1695.46542,625.162067 1695.46615,629.751326 L1695.46615,758.332581 C1695.46615,767.514028 1702.90649,774.954368 1712.08427,774.954368 C1721.26206,774.954368 1728.7024,767.514028 1728.7024,758.336242 L1728.70679,16.5126927 C1728.64456,7.38323031 1721.22692,0 1712.08427,0 C1702.94163,0 1695.52326,7.38323031 1695.46688,16.5126927 L1695.46615,591.758881 C1695.40465,596.295423 1691.70791,599.955555 1687.15672,599.955555 C1682.6048,599.955555 1678.90953,596.295423 1678.84949,591.758149 L1678.84802,16.5368544 C1678.79824,7.39640942 1671.37547,0 1662.22477,0 C1653.07408,0 1645.65058,7.39640942 1645.60665,16.5368544 L1645.60591,560.26154 Z M1529.27757,643.344114 C1529.27757,643.300916 1529.2783,643.257718 1529.27904,643.21452 L1529.27757,643.344114 Z M1479.42246,772.962126 C1479.42393,772.933571 1479.42246,772.905748 1479.42246,772.877194 L1479.42246,772.962126 Z M1496.04132,772.877194 C1496.04132,772.905748 1496.03986,772.933571 1496.03986,772.962126 L1496.04132,772.877194 Z M1595.74714,815.906256 C1595.74714,825.084042 1603.18748,832.524381 1612.36527,832.524381 C1621.54306,832.524381 1628.9834,825.084042 1628.9834,815.906256 C1628.9834,806.72847 1621.54306,799.287398 1612.36527,799.287398 C1603.18748,799.287398 1595.74714,806.72847 1595.74714,815.906256 Z M1496.04132,895.250356 C1496.04132,904.428874 1503.48093,911.868481 1512.65945,911.868481 C1521.83723,911.868481 1529.27757,904.428874 1529.27757,895.250356 C1529.27757,886.07257 1521.83723,878.63223 1512.65945,878.63223 C1503.48093,878.63223 1496.04132,886.07257 1496.04132,895.250356 Z M1396.32671,748.890481 C1396.32671,758.068999 1403.76778,765.509339 1412.94557,765.509339 C1422.12335,765.509339 1429.56369,758.068999 1429.56369,748.890481 C1429.56369,739.712695 1422.12335,732.272356 1412.94557,732.272356 C1403.76778,732.272356 1396.32671,739.712695 1396.32671,748.890481 Z M1296.52351,560.26154 C1296.51618,564.844942 1292.79894,568.559254 1288.21408,568.559254 C1283.62921,568.559254 1279.91124,564.844942 1279.90538,560.26154 L1279.90538,16.6181256 C1279.90025,7.44033979 1272.46065,0 1263.28213,0 C1254.10361,0 1246.66327,7.44033979 1246.66327,16.6181256 L1246.66327,643.289933 C1246.66327,647.87846 1242.9431,651.59863 1238.35457,651.59863 C1233.85318,651.59863 1230.18865,648.019769 1230.05027,643.552783 L1230.05027,16.6181256 C1230.05027,7.44033979 1222.60993,0 1213.43141,0 C1204.25289,0 1196.81256,7.44033979 1196.81256,16.6181256 L1196.81256,643.21452 C1196.81182,643.257718 1196.81256,643.300916 1196.81256,643.344114 C1196.81256,647.932641 1193.09239,651.652811 1188.50386,651.652811 C1183.9146,651.652811 1180.19443,647.932641 1180.19443,643.344114 L1180.19443,16.6188578 C1180.19443,7.44033979 1172.75409,0 1163.5763,0 C1154.39852,0 1146.95818,7.44033979 1146.95818,16.6181256 L1146.95818,739.226533 C1146.95818,743.815792 1143.23728,747.535962 1138.64875,747.535962 C1134.05949,747.535962 1130.33932,743.815792 1130.33932,739.226533 L1130.33932,16.6086073 C1130.3298,7.43521458 1122.89093,0 1113.7168,0 C1104.53828,0 1097.09794,7.44033979 1097.09794,16.6181256 C1097.09794,16.6232508 1097.09868,16.628376 1097.09868,16.632769 L1097.09868,643.344114 C1097.09868,647.932641 1093.37851,651.652811 1088.78925,651.652811 C1084.19999,651.652811 1080.48055,647.932641 1080.48055,643.344114 L1080.47982,16.6349656 C1080.47982,16.6298404 1080.48055,16.623983 1080.48055,16.6181256 C1080.48055,7.44033979 1073.04021,0 1063.86096,0 C1054.68317,0 1047.24284,7.44033979 1047.24284,16.6181256 L1047.23844,832.002342 L1047.24357,832.002342 C1047.24357,841.180128 1054.68391,848.620468 1063.86243,848.620468 C1073.04021,848.620468 1080.48128,841.180128 1080.48128,832.002342 C1080.48128,831.954751 1080.48055,831.906428 1080.47982,831.858836 L1080.47982,681.44785 C1080.48055,676.860055 1084.19999,673.139885 1088.78925,673.139885 C1093.37777,673.139885 1097.09721,676.859323 1097.09868,681.447118 L1097.09868,777.536009 C1097.09868,777.582868 1097.09868,777.628263 1097.09868,777.675122 C1097.09868,786.852908 1104.53828,794.293247 1113.7168,794.293247 C1122.89459,794.293247 1130.33493,786.852908 1130.33493,777.675122 C1130.33493,777.628263 1130.3342,777.582868 1130.3342,777.536009 L1130.33932,772.876461 C1130.33932,768.287935 1134.05949,764.568497 1138.64875,764.568497 C1143.23728,764.568497 1146.95818,768.288667 1146.95818,772.877194 L1146.95818,806.459763 C1146.95818,815.637548 1154.39852,823.07862 1163.5763,823.07862 C1172.75409,823.07862 1180.19443,815.637548 1180.19443,806.459763 L1180.19443,681.247967 C1180.20102,676.664565 1183.91826,672.950253 1188.50386,672.950253 C1193.08872,672.950253 1196.80743,676.664565 1196.81256,681.247967 L1196.81256,844.690896 C1196.81256,846.698514 1197.16912,848.623396 1197.82149,850.405505 C1198.03089,850.978064 1198.27178,851.53598 1198.54048,852.077055 C1198.5705,852.137094 1198.60052,852.197132 1198.63127,852.256438 C1198.75355,852.495126 1198.88168,852.731618 1199.01493,852.962985 C1199.04788,853.020826 1199.08156,853.078668 1199.11597,853.136509 C1199.18406,853.252193 1199.25289,853.36568 1199.32391,853.479166 L1199.43154,853.64903 C1199.71928,854.097852 1200.02899,854.532763 1200.35774,854.951566 C1200.39874,855.00355 1200.43974,855.055534 1200.48147,855.107519 C1200.56494,855.210755 1200.6506,855.313991 1200.73627,855.415763 C1200.77874,855.466283 1200.82193,855.516071 1200.86586,855.567323 C1201.17045,855.918766 1201.48967,856.25703 1201.82208,856.582115 C1201.91726,856.675101 1202.01391,856.766622 1202.11129,856.857412 C1202.69483,857.401416 1203.31718,857.902954 1203.9754,858.358366 C1204.02958,858.396439 1204.0845,858.434512 1204.14014,858.47112 C1204.47108,858.695165 1204.81154,858.907495 1205.16006,859.108111 C1205.2179,859.141058 1205.27574,859.174006 1205.33431,859.206954 C1205.5093,859.305065 1205.68649,859.399515 1205.86587,859.491769 C1205.92591,859.52252 1205.98595,859.55254 1206.04599,859.582559 C1208.27106,860.68814 1210.77875,861.309022 1213.43141,861.309022 C1216.08481,861.309022 1218.59177,860.68814 1220.81757,859.582559 C1220.87761,859.55254 1220.93765,859.52252 1220.99695,859.491769 C1221.17634,859.399515 1221.35352,859.305065 1221.52851,859.206954 C1221.58709,859.174006 1221.64493,859.141058 1221.70277,859.108111 C1222.05128,858.907495 1222.39174,858.695165 1222.72269,858.47112 C1222.77833,858.434512 1222.83324,858.396439 1222.88816,858.358366 C1223.54565,857.902954 1224.16873,857.401416 1224.75227,856.857412 C1224.84892,856.766622 1224.94556,856.675101 1225.04074,856.582115 C1225.37315,856.25703 1225.69311,855.918766 1225.99769,855.567323 C1226.04089,855.516071 1226.08409,855.466283 1226.12656,855.415763 C1226.21295,855.313991 1226.29789,855.210755 1226.38135,855.107519 C1226.42309,855.055534 1226.46409,855.00355 1226.50509,854.951566 C1226.83384,854.532763 1227.14354,854.097852 1227.43202,853.64903 L1227.53892,853.479166 C1227.60994,853.36568 1227.6795,853.252193 1227.74686,853.136509 C1227.78053,853.078668 1227.81495,853.020826 1227.84789,852.962985 C1227.98188,852.731618 1228.10928,852.495126 1228.23155,852.256438 C1228.2623,852.197132 1228.29232,852.137094 1228.32234,852.077055 C1228.59178,851.53598 1228.83194,850.978064 1229.04134,850.405505 C1229.69443,848.623396 1230.05027,846.698514 1230.05027,844.690896 L1230.05027,681.247967 C1230.15863,676.751694 1233.83707,673.139885 1238.35897,673.139885 C1242.86037,673.139885 1246.52489,676.718746 1246.66327,681.186464 L1246.66327,758.3421 C1246.66327,767.519885 1254.10361,774.960225 1263.28213,774.960225 C1272.46065,774.960225 1279.90025,767.519885 1279.90025,758.3421 L1279.90538,598.294987 C1279.93833,593.733551 1283.64532,590.045597 1288.21408,590.045597 C1292.78357,590.045597 1296.49056,593.733551 1296.52277,598.294987 L1296.52351,806.350669 C1296.52351,815.528455 1303.96384,822.968794 1313.14163,822.968794 C1322.31942,822.968794 1329.75976,815.528455 1329.75976,806.350669 L1329.76415,629.786471 L1329.76415,629.750594 C1329.76488,625.162067 1333.48505,621.44263 1338.07358,621.44263 C1342.66284,621.44263 1346.38301,625.162067 1346.38301,629.751326 L1346.38301,758.332581 C1346.38301,767.514028 1353.82335,774.954368 1363.00113,774.954368 C1372.17965,774.954368 1379.61926,767.514028 1379.61926,758.336242 L1379.62438,16.5126927 C1379.56215,7.38323031 1372.14377,0 1363.00113,0 C1353.85922,0 1346.44085,7.38323031 1346.38374,16.5126927 L1346.38301,591.758881 C1346.3215,596.295423 1342.6255,599.955555 1338.07358,599.955555 C1333.52239,599.955555 1329.82565,596.295423 1329.76561,591.758149 L1329.76415,16.5368544 C1329.71583,7.39640942 1322.29233,0 1313.14163,0 C1303.99094,0 1296.56744,7.39640942 1296.52424,16.5368544 L1296.52351,560.26154 Z M1180.19443,643.344114 C1180.19443,643.300916 1180.19589,643.257718 1180.19663,643.21452 L1180.19443,643.344114 Z M1130.33932,772.962126 C1130.34005,772.933571 1130.33932,772.905748 1130.33932,772.877194 L1130.33932,772.962126 Z M1146.95818,772.877194 C1146.95818,772.905748 1146.95745,772.933571 1146.95745,772.962126 L1146.95818,772.877194 Z M1246.66327,815.906256 C1246.66327,825.084042 1254.10361,832.524381 1263.28213,832.524381 C1272.46065,832.524381 1279.90025,825.084042 1279.90025,815.906256 C1279.90025,806.72847 1272.46065,799.287398 1263.28213,799.287398 C1254.10361,799.287398 1246.66327,806.72847 1246.66327,815.906256 Z M1146.95818,856.858144 C1146.95818,866.035929 1154.39852,873.477001 1163.5763,873.477001 C1172.75409,873.477001 1180.19443,866.035929 1180.19443,856.858144 C1180.19443,847.679626 1172.75409,840.239286 1163.5763,840.239286 C1154.39852,840.239286 1146.95818,847.679626 1146.95818,856.858144 Z M598.357222,560.26154 C598.350632,564.844942 594.633391,568.559254 590.048525,568.559254 C585.462927,568.559254 581.745686,564.844942 581.739096,560.26154 L581.739096,16.6181256 C581.734703,7.44033979 574.294364,0 565.115846,0 C555.93806,0 548.49772,7.44033979 548.49772,16.6181256 L548.49772,643.289933 C548.49772,647.87846 544.77755,651.59863 540.188291,651.59863 C535.687625,651.59863 532.0231,648.019769 531.883987,643.552783 L531.883987,16.6181256 C531.883987,7.44033979 524.443648,0 515.26513,0 C506.087344,0 498.647004,7.44033979 498.647004,16.6181256 L498.647004,643.21452 C498.646272,643.257718 498.647004,643.300916 498.647004,643.344114 C498.647004,647.932641 494.926834,651.652811 490.337575,651.652811 C485.749048,651.652811 482.028878,647.932641 482.028878,643.344114 L482.028878,16.6188578 C482.028878,7.44033979 474.588539,0 465.410753,0 C456.232235,0 448.791895,7.44033979 448.791895,16.6181256 L448.791895,739.226533 C448.791895,743.815792 445.071725,747.535962 440.482466,747.535962 C435.893939,747.535962 432.17377,743.815792 432.17377,739.226533 L432.17377,16.6086073 C432.163519,7.43521458 424.725376,0 415.550519,0 C406.372733,0 398.932393,7.44033979 398.932393,16.6181256 C398.932393,16.6232508 398.932393,16.628376 398.932393,16.632769 L398.932393,643.344114 C398.932393,647.932641 395.212223,651.652811 390.622964,651.652811 C386.033705,651.652811 382.313535,647.932641 382.313535,643.344114 L382.313535,16.6349656 L382.313535,16.6181256 C382.313535,7.44033979 374.873928,0 365.69541,0 C356.517624,0 349.077284,7.44033979 349.077284,16.6181256 L349.072891,700.777211 L349.078016,700.777211 C349.078016,709.954997 356.518356,717.395337 365.696142,717.395337 C374.87466,717.395337 382.315,709.954997 382.315,700.777211 C382.315,700.728888 382.314268,700.681297 382.313535,700.633705 L382.313535,681.44785 C382.313535,676.860055 386.033705,673.139885 390.622964,673.139885 C395.211491,673.139885 398.931661,676.859323 398.932393,681.447118 L398.932393,777.536009 C398.933125,777.582868 398.932393,777.628263 398.932393,777.675122 C398.932393,786.852908 406.372733,794.293247 415.550519,794.293247 C424.729037,794.293247 432.169376,786.852908 432.169376,777.675122 C432.169376,777.628263 432.168644,777.582868 432.167912,777.536009 L432.17377,772.876461 C432.17377,768.287935 435.893939,764.568497 440.482466,764.568497 C445.071725,764.568497 448.791895,768.288667 448.791895,772.877194 L448.791895,806.459763 C448.791895,815.637548 456.232235,823.07862 465.410753,823.07862 C474.588539,823.07862 482.028878,815.637548 482.028878,806.459763 L482.028878,681.247967 C482.034736,676.664565 485.752709,672.950253 490.337575,672.950253 C494.923173,672.950253 498.641147,676.664565 498.647004,681.247967 L498.647004,844.690896 C498.647004,846.698514 499.00284,848.623396 499.655938,850.405505 C499.86534,850.978064 500.105492,851.53598 500.3742,852.077055 C500.404219,852.137094 500.43497,852.197132 500.464989,852.256438 C500.587994,852.495126 500.715392,852.731618 500.848648,852.962985 C500.882328,853.020826 500.916008,853.078668 500.949687,853.136509 C501.01778,853.252193 501.087336,853.36568 501.158357,853.479166 C501.193501,853.535544 501.228645,853.591921 501.265254,853.64903 C501.552998,854.097852 501.862707,854.532763 502.191452,854.951566 C502.232454,855.00355 502.274188,855.055534 502.315922,855.107519 C502.39939,855.210755 502.483589,855.313991 502.569986,855.415763 C502.613184,855.466283 502.656382,855.516071 502.69958,855.567323 C503.004164,855.918766 503.323392,856.25703 503.65653,856.582115 C503.751713,856.675101 503.847627,856.766622 503.945006,856.857412 C504.528548,857.401416 505.151627,857.902954 505.809118,858.358366 C505.864031,858.396439 505.918944,858.434512 505.973857,858.47112 C506.305531,858.695165 506.64526,858.907495 506.993774,859.108111 C507.051615,859.141058 507.109457,859.174006 507.168031,859.206954 C507.343752,859.305065 507.520938,859.399515 507.699588,859.491769 C507.759626,859.52252 507.819665,859.55254 507.879703,859.582559 C510.104776,860.68814 512.612468,861.309022 515.26513,861.309022 C517.918524,861.309022 520.426216,860.68814 522.651289,859.582559 C522.711327,859.55254 522.771365,859.52252 522.830671,859.491769 C523.010053,859.399515 523.187239,859.305065 523.362228,859.206954 C523.421534,859.174006 523.479376,859.141058 523.537218,859.108111 C523.885,858.907495 524.22546,858.695165 524.557134,858.47112 C524.612047,858.434512 524.66696,858.396439 524.721873,858.358366 C525.379364,857.902954 526.002443,857.401416 526.585985,856.857412 C526.683364,856.766622 526.779279,856.675101 526.874461,856.582115 C527.2076,856.25703 527.526827,855.918766 527.831411,855.567323 C527.875341,855.516071 527.91854,855.466283 527.961006,855.415763 C528.04667,855.313991 528.131602,855.210755 528.21507,855.107519 C528.256803,855.055534 528.298537,855.00355 528.339539,854.951566 C528.668285,854.532763 528.977261,854.097852 529.265738,853.64903 C529.301614,853.591921 529.33749,853.535544 529.372635,853.479166 C529.443656,853.36568 529.513212,853.252193 529.581304,853.136509 C529.614984,853.078668 529.648664,853.020826 529.682344,852.962985 C529.815599,852.731618 529.94373,852.495126 530.066002,852.256438 C530.096754,852.197132 530.126773,852.137094 530.156792,852.077055 C530.425499,851.53598 530.665652,850.978064 530.875786,850.405505 C531.527419,848.623396 531.883987,846.698514 531.883987,844.690896 L531.883987,681.247967 L531.886916,681.247967 C531.993081,676.751694 535.671517,673.139885 540.192684,673.139885 C544.694082,673.139885 548.358607,676.718746 548.49772,681.186464 L548.49772,908.381142 C548.49772,917.560392 555.93806,925 565.115846,925 C574.294364,925 581.734703,917.560392 581.734703,908.381142 L581.739096,598.294987 C581.772044,593.733551 585.479035,590.045597 590.048525,590.045597 C594.617283,590.045597 598.324274,593.733551 598.35649,598.294987 L598.357222,806.350669 C598.357222,815.528455 605.797562,822.968794 614.975348,822.968794 C624.153866,822.968794 631.594205,815.528455 631.594205,806.350669 L631.598598,629.786471 L631.598598,629.750594 C631.599331,625.162067 635.318768,621.44263 639.908027,621.44263 C644.496554,621.44263 648.216724,625.162067 648.216724,629.751326 L648.216724,758.332581 C648.216724,767.514028 655.657064,774.954368 664.835582,774.954368 C674.013367,774.954368 681.453707,767.514028 681.453707,758.336242 L681.4581,16.5126927 C681.395866,7.38323031 673.978223,0 664.835582,0 C655.692208,0 648.274566,7.38323031 648.217456,16.5126927 L648.216724,591.758881 C648.155221,596.295423 644.459213,599.955555 639.908027,599.955555 C635.356109,599.955555 631.660101,596.295423 631.600063,591.758149 L631.598598,16.5368544 C631.549543,7.39640942 624.126775,0 614.975348,0 C605.824652,0 598.401884,7.39640942 598.357954,16.5368544 L598.357222,560.26154 Z M482.028878,643.344114 C482.028878,643.300916 482.029611,643.257718 482.030343,643.21452 L482.028878,643.344114 Z M432.17377,772.962126 C432.174502,772.933571 432.17377,772.905748 432.17377,772.877194 L432.17377,772.962126 Z M448.791895,772.877194 C448.791895,772.905748 448.791163,772.933571 448.790431,772.962126 L448.791895,772.877194 Z M448.791895,856.858144 C448.791895,866.035929 456.232235,873.477001 465.410753,873.477001 C474.588539,873.477001 482.028878,866.035929 482.028878,856.858144 C482.028878,847.679626 474.588539,840.239286 465.410753,840.239286 C456.232235,840.239286 448.791895,847.679626 448.791895,856.858144 Z M349.078016,748.890481 C349.078016,758.068999 356.518356,765.509339 365.696142,765.509339 C374.87466,765.509339 382.315,758.068999 382.315,748.890481 C382.315,739.712695 374.87466,732.272356 365.696142,732.272356 C356.518356,732.272356 349.078016,739.712695 349.078016,748.890481 Z M947.440364,560.26154 C947.433774,564.844942 943.716533,568.559254 939.130935,568.559254 C934.546069,568.559254 930.828828,564.844942 930.821506,560.26154 L930.821506,16.6181256 C930.817113,7.44033979 923.376773,0 914.198987,0 C905.021201,0 897.580862,7.44033979 897.580862,16.6181256 L897.580862,643.289933 C897.580862,647.87846 893.860692,651.59863 889.271433,651.59863 C884.770767,651.59863 881.10551,648.019769 880.966397,643.552783 L880.966397,16.6181256 C880.966397,7.44033979 873.526057,0 864.348271,0 C855.170485,0 847.730146,7.44033979 847.730146,16.6181256 L847.730146,643.21452 C847.728681,643.257718 847.730146,643.300916 847.730146,643.344114 C847.730146,647.932641 844.009976,651.652811 839.420717,651.652811 C834.83219,651.652811 831.11202,647.932641 831.11202,643.344114 L831.11202,16.6188578 C831.11202,7.44033979 823.67168,0 814.493162,0 C805.315376,0 797.875037,7.44033979 797.875037,16.6181256 L797.875037,739.226533 C797.875037,743.815792 794.154867,747.535962 789.565608,747.535962 C784.976349,747.535962 781.256179,743.815792 781.256179,739.226533 L781.256179,16.6086073 C781.246661,7.43521458 773.808517,0 764.63366,0 C755.455875,0 748.015535,7.44033979 748.015535,16.6181256 L748.015535,16.632769 L748.015535,643.344114 C748.015535,647.932641 744.294633,651.652811 739.706106,651.652811 C735.116847,651.652811 731.396677,647.932641 731.396677,643.344114 L731.396677,16.6349656 L731.396677,16.6181256 C731.396677,7.44033979 723.956337,0 714.778551,0 C705.600766,0 698.160426,7.44033979 698.160426,16.6181256 L698.155301,16.6181256 L698.155301,700.777211 L698.161158,700.777211 C698.161158,709.954997 705.601498,717.395337 714.779284,717.395337 C723.957802,717.395337 731.397409,709.954997 731.397409,700.777211 C731.397409,700.728888 731.397409,700.681297 731.396677,700.633705 L731.396677,681.44785 C731.396677,676.860055 735.116847,673.139885 739.706106,673.139885 C744.294633,673.139885 748.014803,676.859323 748.015535,681.447118 L748.015535,777.536009 C748.016267,777.582868 748.015535,777.628263 748.015535,777.675122 C748.015535,786.852908 755.455875,794.293247 764.63366,794.293247 C773.811446,794.293247 781.252518,786.852908 781.252518,777.675122 C781.252518,777.628263 781.251786,777.582868 781.251054,777.536009 L781.256179,772.876461 C781.256911,768.287935 784.976349,764.568497 789.565608,764.568497 C794.154867,764.568497 797.875037,768.288667 797.875037,772.877194 L797.875037,865.167573 C797.875037,874.345358 805.315376,881.785698 814.493162,881.785698 C823.67168,881.785698 831.11202,874.345358 831.11202,865.167573 L831.11202,681.247967 C831.117877,676.664565 834.835851,672.950253 839.420717,672.950253 C844.005583,672.950253 847.723556,676.664565 847.729413,681.247967 L847.730146,844.690896 C847.730146,846.698514 848.085982,848.623396 848.738348,850.405505 C848.947749,850.978064 849.188634,851.53598 849.457341,852.077055 C849.48736,852.137094 849.517379,852.197132 849.548131,852.256438 C849.670404,852.495126 849.798534,852.731618 849.931789,852.962985 C849.965469,853.020826 849.999149,853.078668 850.032829,853.136509 C850.100921,853.252193 850.170478,853.36568 850.241498,853.479166 C850.27591,853.535544 850.311787,853.591921 850.348396,853.64903 C850.636139,854.097852 850.945849,854.532763 851.274594,854.951566 C851.315596,855.00355 851.35733,855.055534 851.399063,855.107519 C851.481799,855.210755 851.566731,855.313991 851.652395,855.415763 C851.695593,855.466283 851.738792,855.516071 851.782722,855.567323 C852.087306,855.918766 852.406533,856.25703 852.73894,856.582115 C852.834122,856.675101 852.930769,856.766622 853.028148,856.857412 C853.61169,857.401416 854.234769,857.902954 854.89226,858.358366 C854.946441,858.396439 855.002086,858.434512 855.056999,858.47112 C855.388673,858.695165 855.728401,858.907495 856.076183,859.108111 C856.134025,859.141058 856.192599,859.174006 856.251172,859.206954 C856.426162,859.305065 856.60408,859.399515 856.78273,859.491769 C856.842768,859.52252 856.902806,859.55254 856.962844,859.582559 C859.187185,860.68814 861.695609,861.309022 864.348271,861.309022 C867.001665,861.309022 869.509357,860.68814 871.73443,859.582559 C871.794468,859.55254 871.854507,859.52252 871.913813,859.491769 C872.093195,859.399515 872.270381,859.305065 872.446102,859.206954 C872.503944,859.174006 872.562518,859.141058 872.620359,859.108111 C872.968874,858.907495 873.30787,858.695165 873.640276,858.47112 C873.695189,858.434512 873.750102,858.396439 873.805015,858.358366 C874.462506,857.902954 875.084853,857.401416 875.669127,856.857412 C875.766506,856.766622 875.86242,856.675101 875.957603,856.582115 C876.290741,856.25703 876.609237,855.918766 876.91382,855.567323 C876.957751,855.516071 877.000949,855.466283 877.044147,855.415763 C877.129811,855.313991 877.214011,855.210755 877.298211,855.107519 C877.339213,855.055534 877.380947,855.00355 877.422681,854.951566 C877.751426,854.532763 878.060403,854.097852 878.348879,853.64903 C878.384756,853.591921 878.420632,853.535544 878.455776,853.479166 C878.526065,853.36568 878.595621,853.252193 878.663713,853.136509 C878.698126,853.078668 878.731806,853.020826 878.765485,852.962985 C878.898009,852.731618 879.026139,852.495126 879.148412,852.256438 C879.179163,852.197132 879.209914,852.137094 879.239201,852.077055 C879.507909,851.53598 879.748793,850.978064 879.958195,850.405505 C880.610561,848.623396 880.966397,846.698514 880.966397,844.690896 L880.966397,681.247967 L880.969326,681.247967 C881.076223,676.751694 884.753927,673.139885 889.275826,673.139885 C893.777224,673.139885 897.441749,676.718746 897.580862,681.186464 L897.580862,813.049318 C897.580862,822.227103 905.021201,829.668175 914.198987,829.668175 C923.376773,829.668175 930.817113,822.227103 930.817113,813.049318 L930.821506,598.294987 C930.854454,593.733551 934.562177,590.045597 939.130935,590.045597 C943.699693,590.045597 947.407416,593.733551 947.439631,598.294987 L947.440364,806.350669 C947.440364,815.528455 954.880703,822.968794 964.058489,822.968794 C973.237007,822.968794 980.677347,815.528455 980.677347,806.350669 L980.68174,629.786471 L980.68174,629.750594 C980.68174,625.162067 984.40191,621.44263 988.991169,621.44263 C993.579696,621.44263 997.299866,625.162067 997.299866,629.751326 L997.299866,758.332581 C997.299866,767.514028 1004.74021,774.954368 1013.91799,774.954368 C1023.09651,774.954368 1030.53685,767.514028 1030.53685,758.336242 L1030.54124,16.5126927 C1030.47901,7.38323031 1023.06136,0 1013.91799,0 C1004.77535,0 997.357707,7.38323031 997.300598,16.5126927 L997.299866,591.758881 C997.238363,596.295423 993.542355,599.955555 988.991169,599.955555 C984.439251,599.955555 980.743242,596.295423 980.683204,591.758149 L980.68174,16.5368544 C980.631952,7.39640942 973.209917,0 964.058489,0 C954.907794,0 947.485026,7.39640942 947.440364,16.5368544 L947.440364,560.26154 Z M831.11202,643.344114 C831.11202,643.300916 831.112752,643.257718 831.113484,643.21452 L831.11202,643.344114 Z M781.256179,772.962126 C781.256911,772.933571 781.256179,772.905748 781.256179,772.877194 L781.256179,772.962126 Z M797.875037,772.877194 C797.875037,772.905748 797.874305,772.933571 797.873572,772.962126 L797.875037,772.877194 Z M714.779284,765.509339 C705.601498,765.509339 698.161158,758.068999 698.161158,748.890481 C698.161158,739.712695 705.601498,732.272356 714.779284,732.272356 C723.957802,732.272356 731.397409,739.712695 731.397409,748.890481 C731.397409,758.068999 723.957802,765.509339 714.779284,765.509339 Z"></path>
                            </g>
                        </g>
                    </g>
                </g>
            </g>
        </g>
    </g>
</svg>