<?xml version="1.0" encoding="UTF-8"?>
<svg width="430px" height="587px" viewBox="0 0 430 587" version="1.1" xmlns="http://www.w3.org/2000/svg" xmlns:xlink="http://www.w3.org/1999/xlink">
    <!-- Generator: sketchtool 52.5 (67469) - http://www.bohemiancoding.com/sketch -->
    <title>024195C6-4188-45F3-951F-BD7ADA3CF72D</title>
    <desc>Created with sketchtool.</desc>
    <g id="HUB-AND-CONTENT-PAGES" stroke="none" stroke-width="1" fill="none" fill-rule="evenodd">
        <g id="large/hub/EN-default" transform="translate(0.000000, -4238.000000)">
            <g id="business-of-doing-good-" transform="translate(-707.000000, 3169.000000)">
                <g id="left-confetti2" transform="translate(866.392903, 1354.881650) scale(1, -1) rotate(30.000000) translate(-866.392903, -1354.881650) translate(703.392903, 1066.381650)">
                    <path d="M141.496376,237.016408 C140.468228,237.016408 139.552987,236.779223 138.783624,236.306938 C138.324005,236.024401 137.938324,235.673054 137.565134,235.333697 C137.40077,235.184088 137.236406,235.034479 137.066547,234.892689 C135.231068,233.361151 132.690673,232.841429 130.437539,233.536303 C129.875505,233.70937 129.332955,233.95229 128.75943,234.208762 C128.181409,234.46732 127.582905,234.735261 126.952427,234.931264 C123.631679,235.965495 119.798854,234.717016 117.63165,231.895817 L118.683778,231.016408 C120.517259,233.402333 123.758573,234.458458 126.566747,233.58374 C127.123285,233.410674 127.660341,233.170361 128.22787,232.915973 C128.812386,232.654809 129.416885,232.384262 130.055856,232.187216 C132.726643,231.364627 135.73515,231.979744 137.908349,233.79434 C138.093196,233.948641 138.272048,234.11076 138.4509,234.273402 C138.793116,234.584609 139.115849,234.878614 139.467557,235.094948 C140.797455,235.911803 142.547006,235.608415 143.779984,235.211195 C144.254591,235.057937 144.737691,234.870795 145.205303,234.69043 C146.093567,234.346382 147.012306,233.991386 147.989496,233.811021 C149.866941,233.465409 151.602503,233.942906 152.63165,235.089735 L151.646966,236.050465 C150.931059,235.252376 149.652119,234.931264 148.224302,235.196078 C147.366513,235.354548 146.544194,235.672012 145.673915,236.008762 C145.189316,236.196425 144.688232,236.390343 144.178154,236.554548 C143.223445,236.862628 142.323191,237.016408 141.496376,237.016408" id="Fill-7" fill="#FF6ABC"></path>
                    <path d="M174.174142,115.043032 C174.018715,114.714202 173.56215,114.472388 173.068186,114.23378 C171.645548,113.545893 170.174825,112.834649 168.614733,112.661074 C167.913371,112.583675 167.197438,112.613444 166.439734,112.644587 C165.522718,112.683057 164.574617,112.722902 163.61923,112.56215 C161.594801,112.22187 159.97108,111.078292 158.401273,109.971811 C157.27006,109.174924 156.201503,108.422003 154.999377,107.949825 C153.136688,107.21843 150.919433,107.235375 149.070344,107.995165 L148.493809,106.746252 C150.729036,105.827542 153.303772,105.808307 155.554541,106.692668 C156.922293,107.229879 158.113734,108.0689 159.265833,108.8809 C160.766669,109.938378 162.184935,110.937692 163.872283,111.221182 C164.670301,111.355371 165.498433,111.320564 166.37562,111.283926 C167.158581,111.251409 167.96777,111.217976 168.783273,111.308657 C170.602248,111.511084 172.261911,112.313467 173.726805,113.021505 C174.280512,113.288966 175.117386,113.693363 175.493809,114.488418 L174.174142,115.043032 Z" id="Fill-9" fill="#FFE641"></path>
                    <path d="M113.992683,360.132088 C113.489524,360.132088 112.983922,360.037723 112.487113,359.788332 L113.151967,358.50093 C113.953603,358.903905 114.916933,358.589999 116.033165,358.22891 C116.649658,358.029108 117.287644,357.822565 117.944682,357.730608 C118.980311,357.585691 119.979791,357.747459 120.947029,357.903449 C121.737429,358.031034 122.487771,358.151878 123.2132,358.103733 C124.663569,358.008406 125.985462,357.258786 127.385026,356.464872 C128.848096,355.63485 130.361483,354.776904 132.12254,354.639209 C133.540668,354.527993 134.87233,354.906414 136.16247,355.270391 C136.798991,355.450454 137.399851,355.620407 138.009016,355.734992 C140.147199,356.139893 142.39383,355.828875 144.336611,354.861158 C145.027845,354.51692 145.674136,354.096613 146.35853,353.651752 C147.028758,353.216038 147.721946,352.764918 148.465449,352.388905 C151.559146,350.82515 155.304997,350.713935 158.487113,352.092812 L157.897488,353.414878 C155.115945,352.209805 151.839548,352.305614 149.1347,353.67438 C148.462518,354.014285 147.832347,354.424 147.165539,354.857306 C146.476748,355.305537 145.764509,355.768694 144.998046,356.150003 C142.76607,357.260712 140.188233,357.616023 137.7335,357.153829 C137.059364,357.026726 136.397929,356.839442 135.758477,356.658897 C134.540636,356.314178 133.388743,355.988235 132.238804,356.078748 C130.80651,356.190927 129.499761,356.932362 128.115829,357.716646 C126.633218,358.557742 125.099804,359.427243 123.310901,359.545199 C122.414496,359.603454 121.547401,359.464315 120.709616,359.328545 C119.812234,359.183629 118.963702,359.047859 118.150831,359.160519 C117.622269,359.234662 117.072702,359.412799 116.490405,359.601047 C115.704402,359.855735 114.85245,360.132088 113.992683,360.132088" id="Fill-13" fill="#00BA9F"></path>
                    <path d="M84.4280522,127.125737 C82.7687648,124.450796 79.0412315,123.83701 76.9666337,123.708915 C75.7935038,123.636135 74.6208626,123.651661 73.3798173,123.668158 C71.2475646,123.694844 69.0410447,123.723957 66.8433195,123.27223 C61.7589425,122.226126 57.8056757,118.902464 53.9823767,115.687973 C52.6612009,114.577337 51.2955624,113.428854 49.9265038,112.418169 C44.0100401,108.049859 36.6966675,105.434598 29.3329691,105.054196 C26.3143951,104.89699 22.5052654,105.621887 21.7259476,108.176012 L18.9223578,107.332724 C20.1902762,103.174023 25.2116237,101.932865 29.4859011,102.149267 C37.4193077,102.559266 45.2994569,105.377344 51.6737392,110.083843 C53.1175538,111.149841 54.5193486,112.327921 55.8752151,113.468155 C59.5817386,116.584149 63.0825613,119.527894 67.4379464,120.423585 C69.32199,120.81175 71.2724832,120.786034 73.3417064,120.759348 C74.5827517,120.743336 75.8663053,120.726354 77.1479045,120.805927 C79.7887903,120.968471 84.5702349,121.807878 86.9223578,125.600249 L84.4280522,127.125737 Z" id="Fill-17" fill="#FF6ABC"></path>
                    <polygon id="Fill-19" fill="#FFE641" points="97.0192804 187.010655 73.4762054 181.006164 73.9336171 179.010655 97.4762054 185.015146"></polygon>
                    <polygon id="Fill-21" fill="#FF6ABC" points="323.942318 30.5478419 298.030306 1.49690642 299.118294 0.547841936 325.030306 29.5992556"></polygon>
                    <polygon id="Fill-24" fill="#FF6ABC" points="75.7557788 505.984628 74.5592551 503.375765 100.362731 490.984628 101.559255 493.593491"></polygon>
                    <polygon id="Fill-26" fill="#FF6ABC" points="237.562269 574.567931 236.018202 573.374371 269.474135 531.567931 271.018202 532.76149"></polygon>
                    <path d="M6.96944654,458.474066 C4.80306801,458.474066 2.48542355,457.929551 0.0723948547,456.526937 L1.03394512,454.841371 C8.16126786,458.98309 14.3602803,454.491811 18.0643685,451.807642 C18.7787868,451.290353 19.395894,450.843558 19.9330325,450.517822 C24.6863474,447.640155 28.205448,447.793786 33.435684,448.391295 C34.1264972,448.470055 34.8413973,448.569721 35.5721948,448.671331 C38.8966729,449.135628 42.3343596,449.614996 45.1077288,448.384974 C47.2143718,447.450061 48.6012972,445.722197 50.0701183,443.892237 C50.715648,443.088104 51.382856,442.256746 52.1223247,441.486159 C57.6690631,435.707004 64.0280127,437.971118 70.1778878,440.159876 C73.2860654,441.266409 76.5007071,442.410863 79.5876881,442.504209 C83.6540437,442.611653 86.0449124,440.162793 88.5610332,437.553008 C91.233719,434.780842 94.0075699,431.914844 98.824956,432.183698 C99.3148842,432.210924 100.001843,432.311076 100.871863,432.437481 C106.215308,433.216333 117.335762,434.834807 122.431593,426.474066 L124.072395,427.492601 C118.313692,436.941887 105.897842,435.134777 100.596791,434.362246 C99.7739811,434.242647 99.1241157,434.148329 98.7184918,434.125479 C94.7711256,433.904269 92.4236134,436.335628 89.9421778,438.909435 C87.3716206,441.575129 84.4754081,444.604968 79.5303612,444.447934 C76.1427753,444.345351 72.7845755,443.149848 69.5366938,441.994212 C63.4508899,439.827819 58.1941582,437.956047 53.5063598,442.839183 C52.8261448,443.547539 52.186396,444.344865 51.5673619,445.115938 C50.0185722,447.045564 48.4177548,449.040824 45.8828463,450.165345 C42.6103959,451.616576 38.7309548,451.075464 35.308202,450.59804 C34.5942654,450.498375 33.8952627,450.400654 33.2193834,450.323352 C28.4077782,449.774461 25.2413103,449.57124 20.9249323,452.184914 C20.4552372,452.469326 19.8679978,452.894728 19.1877829,453.387709 C16.4963093,455.337755 12.1674061,458.47358 6.96944654,458.474066" id="Fill-34" fill="#FF6ABC"></path>
                    <path d="M116.964372,576.057368 L115.124954,575.425941 C115.363694,574.720545 115.576664,574.046989 115.779909,573.402826 C117.083012,569.281157 118.11188,566.025558 123.175992,563.221609 C124.891907,562.271283 126.722087,561.66043 128.492459,561.069661 C131.43368,560.087985 134.211527,559.161172 136.288226,556.801524 C138.862827,553.87707 139.396224,550.274651 139.960254,546.461593 C140.593815,542.18268 141.248284,537.757789 144.857102,534.074054 C147.922799,530.945818 151.876842,530.258057 155.701061,529.59234 C159.713452,528.894781 163.503149,528.235432 165.99898,524.796136 C166.83141,523.649867 167.289928,522.248872 167.775188,520.766071 C168.301778,519.158846 168.845872,517.496266 169.918501,516.13544 C171.325658,514.351375 173.610951,513.299159 175.626871,512.370878 C175.858318,512.264089 176.084902,512.160239 176.304193,512.057368 L177.124954,513.832125 C176.901287,513.936955 176.670326,514.042764 176.43499,514.151513 C174.617452,514.988191 172.557285,515.937047 171.440409,517.353228 C170.583181,518.440713 170.115911,519.868161 169.620927,521.379864 C169.10941,522.941042 168.580875,524.556105 167.567567,525.952202 C164.608355,530.029783 160.248308,530.788574 156.031699,531.521892 C152.347515,532.163117 148.867548,532.768092 146.240434,535.450066 C143.077491,538.678233 142.496929,542.59906 141.882332,546.75012 C141.301284,550.678294 140.699814,554.7402 137.742061,558.101119 C135.318678,560.854613 132.159139,561.908788 129.103654,562.928184 C127.416427,563.491521 125.671824,564.073472 124.112476,564.937093 C119.728604,567.364831 118.894229,570.003208 117.631969,573.997024 C117.424348,574.652944 117.207488,575.338746 116.964372,576.057368" id="Fill-38" fill="#FFE641"></path>
                    <path d="M7.49784879,303.9757 L6.44898259,302.375466 C7.07208104,301.984561 7.65435245,301.602693 8.21232205,301.236993 C11.7769118,298.899176 14.5905756,297.053081 20.2854621,298.005613 C22.2140539,298.328513 24.0235668,298.978594 25.7737833,299.607274 C28.680766,300.652063 31.4268707,301.63931 34.5078544,301.110971 C38.3285853,300.456135 40.9701922,298.043657 43.7673307,295.490416 C46.9056667,292.624736 50.1509306,289.661568 55.2499368,289.059994 C59.5814917,288.551629 63.0979639,290.433866 66.5002175,292.256659 C70.0696676,294.169806 73.4398429,295.975955 77.518659,294.88266 C78.8781023,294.517911 80.1014555,293.733725 81.3972281,292.902934 C82.8023589,292.001287 84.2546351,291.069679 85.9348624,290.689237 C88.1351484,290.190383 90.5731062,290.781019 92.7228445,291.303176 C92.9702369,291.363571 93.212769,291.422539 93.4489826,291.477703 L92.9950247,293.325701 C92.7544368,293.26911 92.5070444,293.20919 92.2552776,293.147844 C90.3174511,292.677998 88.1234836,292.143477 86.3732671,292.541039 C85.030349,292.845393 83.782694,293.645272 82.4616475,294.492707 C81.0978298,295.367248 79.6868666,296.272224 78.0323993,296.715915 C73.1982829,298.010844 69.3187416,295.934582 65.5670279,293.923946 C62.2891996,292.168206 59.1916907,290.511381 55.4827481,290.947462 C51.0126729,291.474375 48.1372825,294.0999 45.0927516,296.87998 C42.2115288,299.510261 39.2321266,302.230898 34.8432194,302.983222 C31.2450932,303.599062 28.1232824,302.477709 25.1035393,301.391547 C23.435949,300.792351 21.7114924,300.172706 19.9578737,299.87929 C15.0304384,299.056584 12.7475262,300.551722 9.29326664,302.816303 C8.72557632,303.188185 8.13261211,303.577187 7.49784879,303.9757" id="Fill-40" fill="#FFE641"></path>
                    <path d="M112.103095,47.6821618 C107.149035,47.0527333 105.435081,44.3039007 103.450069,41.1213524 C102.988787,40.3807904 102.511532,39.6156413 101.967965,38.8342647 C98.5216628,33.8834156 94.9374117,32.9132105 89.5119058,31.4438881 C88.8739527,31.271287 88.2137341,31.0922933 87.5283459,30.9005143 C81.3269379,29.1617178 79.9605178,26.107514 78.0689238,21.880016 C77.5413298,20.7008209 76.9425832,19.3642687 76.1773298,17.9126491 C73.2716904,12.4031821 65.2754948,2.617043 55.8131685,5.02165684 L55.3431742,3.11320974 C65.9642712,0.417976924 74.7315286,11.0066374 77.8840239,16.9837502 C78.6792872,18.4914283 79.2911026,19.859452 79.8312815,21.0661846 C81.6904454,25.2213966 82.7146554,27.5104513 88.0438391,29.0043607 C88.7224509,29.1946645 89.3778292,29.372183 90.010458,29.5433089 C95.6349007,31.066231 99.6978587,32.1662558 103.548327,37.6988346 C104.120936,38.5210257 104.610776,39.3078114 105.08561,40.0685348 C106.94913,43.0568453 108.295705,45.2160804 112.343174,45.7304415 L112.103095,47.6821618 Z" id="Fill-42" fill="#00BA9F"></path>
                    <path d="M230.77821,55.9641941 C230.525945,55.9641941 230.256736,55.7665256 229.530059,55.2341954 C228.295086,54.3288073 225.995985,52.6431738 223.968916,51.9871229 C222.708528,51.5789872 221.430256,51.5865716 220.072915,51.594156 C218.219044,51.6026885 216.308695,51.6154872 214.528715,50.464554 C211.745319,48.6646805 210.68072,45.5204715 209.651419,42.4796 C209.189245,41.1144075 208.752486,39.8245849 208.176417,38.6992492 C205.013681,32.5283894 202.683046,31.692209 196.409816,30.1824388 L196.698322,28.9641941 C203.498203,30.600055 205.974268,31.6718259 209.281021,38.1247307 C209.90039,39.3325468 210.372447,40.7266549 210.828502,42.0752565 C211.789089,44.9127712 212.782621,47.846513 215.200325,49.409848 C216.67015,50.3602685 218.317879,50.350314 220.065855,50.3413075 C221.460848,50.3337231 222.900551,50.3251906 224.349668,50.7944756 C226.566407,51.5121497 228.970462,53.2745753 230.261913,54.2212036 C230.568303,54.4458915 230.915168,54.699969 231.006473,54.7478455 C230.932582,54.7094495 230.739617,54.662047 230.533475,54.7592221 L230.791388,55.3162017 L231.409816,55.4565132 L231.014945,55.9139475 C230.929287,55.9461812 230.854455,55.9641941 230.77821,55.9641941" id="Fill-44" fill="#478AF6"></path>
                    <path d="M196.095573,436.051615 L195.016913,435.393624 L195.254732,435.041095 C197.779192,431.280482 199.046265,429.392793 203.880131,428.20647 C204.844967,427.968836 206.485963,427.933306 208.22383,427.895008 C210.218889,427.851634 212.480829,427.8018 213.479569,427.422509 C217.520546,425.88781 218.808931,424.052723 220.171907,422.109663 C221.783841,419.813613 223.450508,417.438197 229.727753,416.051615 L230.016913,417.239323 C224.233226,418.51747 222.777254,420.591575 221.236036,422.787957 C219.890012,424.706101 218.364293,426.880335 213.953269,428.555307 C212.740928,429.015809 210.45913,429.065643 208.253376,429.114554 C206.66469,429.149161 205.022241,429.185152 204.199806,429.387256 C199.853201,430.45407 198.822977,431.989231 196.332907,435.697703 L196.095573,436.051615 Z" id="Fill-48" fill="#478AF6"></path>
                    <path d="M213.644869,181.575065 C210.286565,181.575533 207.437485,179.403422 204.994992,177.541145 C202.936773,175.972788 200.992596,174.492888 199.296833,174.67027 C198.360693,174.769024 197.440419,175.371374 196.483949,176.512891 L194.756949,175.22301 C196.096701,173.624231 197.501903,172.767743 199.052385,172.604402 C201.658009,172.325926 203.952743,174.075409 206.378377,175.924113 C209.861137,178.579227 213.15052,181.085977 217.476698,178.1683 L218.756949,179.85928 C216.932269,181.090189 215.231052,181.575065 213.644869,181.575065" id="Fill-56" fill="#00BA9F"></path>
                </g>
            </g>
        </g>
    </g>
</svg>