<?xml version="1.0" encoding="UTF-8"?>
<svg width="142px" height="68px" viewBox="0 0 142 68" version="1.1" xmlns="http://www.w3.org/2000/svg" xmlns:xlink="http://www.w3.org/1999/xlink">
    <!-- Generator: Sketch 52.5 (67469) - http://www.bohemiancoding.com/sketch -->
    <title>Group</title>
    <desc>Created with Sketch.</desc>
    <g id="HUB-AND-CONTENT-PAGES" stroke="none" stroke-width="1" fill="none" fill-rule="evenodd">
        <g id="large/hub/EN-default" transform="translate(-1015.000000, -603.000000)">
            <g id="quiz-cta" transform="translate(234.000000, 604.000000)">
                <g id="Group" transform="translate(782.000000, 0.000000)">
                    <g id="butterfly" transform="translate(0.000000, 6.000000)">
                        <g id="Group-4">
                            <path d="M27.9156468,45.6413944 C28.183434,44.3721831 28.5067532,43.1172254 28.7541787,41.8421831 C29.1299447,39.9037042 28.9429872,38.1906901 28.2759872,36.351338 C27.8582638,35.1968028 27.5775191,33.9949718 27.0672426,32.8793099 C26.4674979,31.5712254 25.6770936,30.3706901 24.9391362,29.1461831 C24.2585617,28.0169155 23.4113915,27.0774789 22.9874979,25.7901268 C22.4439021,24.1399577 22.178583,22.4275915 21.8361362,20.7255915 C21.482583,18.9646338 21.1709872,17.1874789 20.9537957,15.4012535 C20.7187106,13.4653662 20.6940298,11.4899577 20.1701787,9.60719718 C19.2390936,6.26150704 16.8000085,3.15488732 13.9197532,1.44511268 C10.7476468,-0.437647887 6.29645532,0.773901408 3.68830638,3.23846479 C0.378604255,6.3658169 -0.0730553191,11.5625211 0.797561702,15.9066056 C2.18154043,22.8066056 5.9972,28.6725775 11.4368596,32.861169 C13.7747532,34.6616479 16.3107106,36.2703521 18.526434,38.2418732 C21.0660936,40.5023521 23.5378809,42.923507 25.9325404,45.3479014" id="Fill-1" fill="#6ADED7"></path>
                            <path d="M27.9156468,45.6413944 C28.183434,44.3721831 28.5067532,43.1172254 28.7541787,41.8421831 C29.1299447,39.9037042 28.9429872,38.1906901 28.2759872,36.351338 C27.8582638,35.1968028 27.5775191,33.9949718 27.0672426,32.8793099 C26.4674979,31.5712254 25.6770936,30.3706901 24.9391362,29.1461831 C24.2585617,28.0169155 23.4113915,27.0774789 22.9874979,25.7901268 C22.4439021,24.1399577 22.178583,22.4275915 21.8361362,20.7255915 C21.482583,18.9646338 21.1709872,17.1874789 20.9537957,15.4012535 C20.7187106,13.4653662 20.6940298,11.4899577 20.1701787,9.60719718 C19.2390936,6.26150704 16.8000085,3.15488732 13.9197532,1.44511268 C10.7476468,-0.437647887 6.29645532,0.773901408 3.68830638,3.23846479 C0.378604255,6.3658169 -0.0730553191,11.5625211 0.797561702,15.9066056 C2.18154043,22.8066056 5.9972,28.6725775 11.4368596,32.861169 C13.7747532,34.6616479 16.3107106,36.2703521 18.526434,38.2418732 C21.0660936,40.5023521 23.5378809,42.923507 25.9325404,45.3479014" id="Stroke-3" stroke="#005DEE" stroke-width="1.332"></path>
                        </g>
                        <path d="M23.3369912,39.3464068 C24.3897979,37.6543729 24.0940515,35.8918643 23.1132855,34.2600543 C22.1135614,32.5968509 19.786138,31.9990972 19.3564209,30.0392593 C18.9905295,28.3722119 19.6016124,27.1401857 20.1671959,25.6339488 C20.8016605,23.9419149 20.0938912,21.1402245 18.7642961,19.926778 C18.0805404,19.3033971 17.1673917,18.858125 16.7522092,17.9669402 C16.4065397,17.2256743 16.3970607,16.177523 16.3307073,15.3702671 C16.2485555,14.3701668 16.3597764,13.34508 16.1423901,12.3609967 C15.8447478,11.0136482 15.3019141,9.43693658 14.6143668,8.24783588 C14.0367765,7.24901693 12.7375143,6.28735737 11.6215139,6.04902469 C10.5371102,5.81773948 9.19487636,6.44240175 8.3758862,7.13433534 C5.79189642,9.31520752 5.7350221,14.5931232 6.2683768,17.5011663 C7.11454025,22.115979 8.56293951,26.9402938 11.0584581,30.8542033 C12.2161664,32.6698883 14.2055037,34.7943808 15.4194543,36.573547 C16.9259918,38.7813277 19.4777528,40.08511 22.0649023,41" id="Fill-5" fill="#F43D4F"></path>
                        <path d="M19.733788,40 C20.4832869,38.9255383 19.4697991,37.1131186 18.9091096,36.1982488 C17.9788357,34.6802701 17.254014,33.1301255 16.6956201,31.4104919 C16.3438262,30.3286073 15.9673551,29.3110543 15.9398084,28.1450437 C15.9220179,27.3854357 15.8761068,26.644385 15.8256045,25.8823028 C15.720009,24.2789609 15.559894,22.1690075 14.1458317,21.2300133 C12.7380822,20.2947306 12.3581677,22.4430355 12.1377944,23.532343 C11.7653405,25.373217 12.217565,27.2611025 12.6680678,29.030222 C12.9274655,30.0471564 13.2333483,31.1296596 13.6827033,32.069891 C14.1693611,33.0880625 14.8941828,34.0233453 15.487584,34.9716181 C16.3679295,36.3782536 17.8353635,38.9416212 19.733788,40" id="Fill-7" fill="#FFE641"></path>
                        <g id="Group-12" transform="translate(19.000000, 25.000000)">
                            <path d="M0.324556627,13.9707685 C1.3113759,13.0361389 2.91449639,12.3938241 4.1864241,12.0853056 C5.92411084,11.6633611 7.59297831,11.3269722 9.28027952,10.6853056 C10.825641,10.096787 12.0748337,9.36826852 13.4432313,8.38826852 C15.0961229,7.20539815 16.6341108,5.92530556 18.4332434,4.97965741 C20.2034964,4.04956481 21.8139904,3.32687963 23.7802554,3.00021296 C25.8405325,2.65734259 27.8012675,2.66836111 29.862159,2.90817593 C31.8997012,3.14475 34.0109783,3.04882407 35.9729422,2.38576852 C37.9060265,1.73308333 39.808388,0.598175926 41.8514602,0.368083333 C46.2675687,-0.129046296 50.7629422,4.67632407 50.5638578,9.26132407 C50.4342072,12.2505833 49.3828699,15.2087315 47.4694482,17.4344722 C45.3483398,19.9019722 43.020159,21.3032685 40.1623157,22.6423426 C38.4283157,23.4557685 36.478641,24.2944722 35.2460386,25.8921574 C34.183641,27.2688241 33.6717976,29.1186389 32.8109422,30.6456759 C30.590906,34.5844722 26.3695807,35.3078056 22.452412,33.9168796 C19.9497253,33.0289167 17.9760867,31.3430833 16.0657373,29.4725278 C15.1735446,28.5994722 14.5566289,27.48725 13.7658217,26.5195648 C13.0954482,25.6996574 12.3974241,24.8985463 11.6723639,24.1324352 C10.1429783,22.51725 8.08454458,21.3136389 6.30876145,19.99725 C5.3797012,19.3082685 4.44449639,18.5149352 3.71206265,17.5926204 C3.06503855,16.7778981 1.92030361,15.51725 1.64318313,14.4815093" id="Fill-9" fill="#6ADED7"></path>
                            <path d="M0.324556627,13.9707685 C1.3113759,13.0361389 2.91449639,12.3938241 4.1864241,12.0853056 C5.92411084,11.6633611 7.59297831,11.3269722 9.28027952,10.6853056 C10.825641,10.096787 12.0748337,9.36826852 13.4432313,8.38826852 C15.0961229,7.20539815 16.6341108,5.92530556 18.4332434,4.97965741 C20.2034964,4.04956481 21.8139904,3.32687963 23.7802554,3.00021296 C25.8405325,2.65734259 27.8012675,2.66836111 29.862159,2.90817593 C31.8997012,3.14475 34.0109783,3.04882407 35.9729422,2.38576852 C37.9060265,1.73308333 39.808388,0.598175926 41.8514602,0.368083333 C46.2675687,-0.129046296 50.7629422,4.67632407 50.5638578,9.26132407 C50.4342072,12.2505833 49.3828699,15.2087315 47.4694482,17.4344722 C45.3483398,19.9019722 43.020159,21.3032685 40.1623157,22.6423426 C38.4283157,23.4557685 36.478641,24.2944722 35.2460386,25.8921574 C34.183641,27.2688241 33.6717976,29.1186389 32.8109422,30.6456759 C30.590906,34.5844722 26.3695807,35.3078056 22.452412,33.9168796 C19.9497253,33.0289167 17.9760867,31.3430833 16.0657373,29.4725278 C15.1735446,28.5994722 14.5566289,27.48725 13.7658217,26.5195648 C13.0954482,25.6996574 12.3974241,24.8985463 11.6723639,24.1324352 C10.1429783,22.51725 8.08454458,21.3136389 6.30876145,19.99725 C5.3797012,19.3082685 4.44449639,18.5149352 3.71206265,17.5926204 C3.06503855,16.7778981 1.92030361,15.51725 1.64318313,14.4815093" id="Stroke-11" stroke="#005DEE" stroke-width="1.332"></path>
                        </g>
                        <path d="M22,41.1393033 C22.1737797,41.417105 22.5072157,41.3348857 22.8271422,41.2613866 C24.2861548,40.9256576 25.8163987,40.5425903 27.1740909,39.9004074 C28.4046723,39.3192662 29.7642067,38.7188159 30.8701333,37.9202917 C32.0012365,37.1043271 33.1869913,36.3718275 34.4323101,35.7421022 C36.8320665,34.5287441 39.3085807,33.6436404 41.9901918,33.3016827 C43.3356028,33.1303925 44.7276826,33.300437 46.0497593,33.0132922 C47.3773625,32.7249016 48.6742625,32.3032161 49.9926548,31.978076 C52.2947753,31.410638 54.6527754,30.882441 56.9806865,30.4321033 C58.7344491,30.09326 60.6828695,29.747565 62.4525977,30.260813 C64.1848682,30.7628493 66.0374948,32.6127844 65.999423,34.6041118 C65.9527542,37.0295822 64.2444322,39.2831395 62.1817962,40.1626373 C59.8649382,41.1511379 57.5419396,40.0878924 55.1704301,40.1557857 C53.85388,40.193781 52.2395096,40.7599732 52.9094519,42.4367494 C53.1483222,43.0340853 53.4731613,42.8808584 53.9877457,43.1106988 C54.5428582,43.3586026 55.1771848,44.1104112 55.2717504,44.7114844 C55.5443942,46.4505479 53.8348441,47.185539 52.5410143,47.6551858 C51.5775502,48.0052408 50.5207486,48.1852514 49.493422,48.2201323 C48.4341641,48.256259 47.4424531,47.851391 46.3997749,47.7311764 C45.1108576,47.5823096 42.6355716,48.5714331 43.4185013,50.1933964 C44.103181,51.6110571 45.6929889,52.7602592 44.662592,54.4314295 C43.8667669,55.7214011 42.22722,56.0403124 40.8443511,55.9960884 C39.1863823,55.9431441 37.5320978,55.3009613 36.0552774,54.532335 C35.0021602,53.9854519 34.2063351,53.3239599 33.380421,52.4743601 C32.5213475,51.5905022 31.8710553,50.5384685 31.0168943,49.6645766 C29.6917473,48.3079575 28.4034441,46.7887684 26.8971487,45.6289774 C25.3171658,44.412505 23.2600563,43.5280242 22,41.1393033" id="Fill-13" fill="#F43D4F"></path>
                        <path d="M30.0073593,48.4426688 C32.7625704,49.4294119 36.040823,49.152083 38.3851161,47.2395406 C39.5639294,46.2781337 40.8815337,45.4358755 42.1985318,44.7298851 C43.384618,44.0937404 44.5725225,44.0245794 45.8446712,43.8239439 C47.7950164,43.5178549 50.3144647,41.0376442 48.1956311,39.031974 C47.0786372,37.9747003 45.6567883,37.8740402 44.296759,38.0979576 C41.9821635,38.4793705 40.0530309,39.5695128 38.0214719,40.8164658 C36.0523384,42.0250721 34.1135086,43.347349 32.0661917,44.3868189 C31.1425354,44.8558814 30.1564534,45.1612856 29.1449164,45.2920753 C28.064287,45.4310821 27.0745687,44.8819024 26,44.9284663" id="Fill-15" fill="#FFE641"></path>
                        <path d="M32,52 C31.5593144,51.4838024 30.5939142,50.1936381 30.1843505,49.6484332 C29.4803739,48.7142672 28.4290773,47.8321825 27.6753058,46.9448237 C27.0864801,46.2512862 26.4049113,45.651363 25.7364137,45.0501214 C25.1544348,44.526672 24.6297202,43.8450011 24.1330153,43.2325521 C23.7234515,42.7275619 23.3095308,42.2983861 22.9846185,41.7208777 C22.5931054,41.0260217 22.145573,40.3516027 21.7160913,39.6804799 C20.5309708,37.8273108 19.4690928,35.93129 17.6167194,34.7426511 C16.6413602,34.1163578 14.7858747,33.3694205 14.1958042,34.9107615 C13.4719096,36.8034859 14.921566,38.9717795 15.8371713,40.4722465 C18.1538828,44.2682436 21.7702434,46.7121062 25.6424257,48.3681577 C27.3740462,49.1091617 28.0145341,49.5442708 29.0421781,50.2074825 C29.7063186,50.6366582 31.3271453,51.5826908 32,52" id="Fill-17" fill="#3E429E"></path>
                        <path d="M17.7961342,21.0737228 C16.9003716,23.5870009 16.3952112,26.3518696 16.1338897,29.1410433 C15.8882106,31.7673073 15.8794692,34.6635548 16.9983672,36.9009373 C17.0954427,37.0947211 17.3475628,36.9869905 17.2872932,36.7268603 C16.6643541,34.0414758 16.4950471,31.4638221 16.801916,28.6608535 C17.0742793,26.1705667 17.3342207,23.5397045 17.9930455,21.1919638 C18.0381327,21.0310247 17.851343,20.9193526 17.7961342,21.0737228" id="Fill-19" fill="#3E429E"></path>
                        <path d="M14.885722,20.112974 C14.2389346,22.9651604 13.911131,25.91702 14.0208888,28.8944369 C14.1066372,31.2111994 14.2854837,34.1445301 15.5775885,35.8971168 C15.7868144,36.1808021 16.0910985,35.821723 15.9739908,35.4984241 C14.2619642,30.7690594 14.1801357,25.2308085 15.1214074,20.1979518 C15.1591367,19.9979665 14.9303111,19.9155444 14.885722,20.112974" id="Fill-21" fill="#3E429E"></path>
                        <path d="M30.9939506,59.9177725 C30.2515254,58.3654494 30.0279116,56.7434328 29.9556461,55.0471203 C29.8915617,53.5355612 29.705444,51.8024296 30.1881227,50.3507017 C30.3006114,50.0134117 29.8274772,49.8805996 29.6372691,50.1264992 C28.6500958,51.4020209 29.0591455,53.8597016 29.2350369,55.3469337 C29.4320625,57.0097144 29.9897336,58.5502028 30.8957787,59.9730013 C30.9346384,60.0341475 31.0239476,59.9808912 30.9939506,59.9177725" id="Fill-23" fill="#3E429E"></path>
                        <path d="M27.9983398,57.9178456 C27.6892006,56.2609697 27.5448224,54.5023847 27.5817662,52.77989 C27.6153129,51.2135682 27.8717965,49.7036786 27.9274246,48.1445748 C27.9329449,47.985121 27.7966349,47.9542801 27.7461026,48.0684569 C26.487889,50.9222205 27.010623,55.0765496 27.9214796,57.9677159 C27.9427117,58.0346471 28.0115037,57.9874015 27.9983398,57.9178456" id="Fill-25" fill="#3E429E"></path>
                        <path d="M21.9948715,49.8257675 C21.7042257,48.6492201 21.5648302,47.3761475 21.5611512,46.1283833 C21.5578809,45.1266405 21.7704488,44.1413776 21.6743845,43.1537605 C21.6547628,42.9536474 21.4614078,42.9624759 21.398455,43.1019665 C20.5428691,44.9847956 21.2463871,48.0765434 21.8199117,49.9317098 C21.8636517,50.0735547 22.0312533,49.9729095 21.9948715,49.8257675" id="Fill-27" fill="#3E429E"></path>
                        <path d="M19.7685236,51.9367816 C19.3653155,49.0872483 19.2432572,44.9815719 19.9903447,42.2692586 C20.0292673,42.1279425 19.9434864,41.9210885 19.8584613,42.031001 C19.1608773,42.9355606 19.0607366,44.7979292 19.0108552,46.2424938 C18.9390562,48.306255 19.2288974,50.1372201 19.7182643,51.975012 C19.7322462,52.0268962 19.7760814,51.9900311 19.7685236,51.9367816" id="Fill-29" fill="#3E429E"></path>
                    </g>
                    <g id="butterfly" transform="translate(81.000000, 0.000000)">
                        <g id="Group-4" transform="translate(24.000000, 13.000000)">
                            <path d="M8.94418,17.9856283 C10.3101133,17.1427596 11.8123133,16.666497 12.96638,15.4853657 C14.5059133,13.9102141 15.79438,12.0098101 17.1799133,10.3008404 C19.6700467,7.22999192 21.8008467,3.37528485 25.4674467,1.51716364 C28.4149133,0.023789899 31.7492467,-0.549119192 33.82638,2.57655758 C34.8838467,4.16750707 35.0901133,6.00332525 34.7270467,7.85261818 C34.27578,10.1535475 33.2388467,12.648699 32.1972467,14.7405374 C31.12158,16.9006788 29.4924467,18.8024768 27.94358,20.6327192 C26.8245133,21.9555677 26.3214467,23.3783152 25.7143133,24.9641535 C24.7105133,27.5824364 21.5684467,29.002396 19.29578,30.3675273 C17.9424467,31.1797293 16.7622467,32.2386586 15.83638,33.5285172 C14.3682467,35.5720323 13.6869133,38.0541737 12.1847133,40.0739919 C10.53598,42.2912848 8.25491333,44.8988808 5.47918,45.653002 C3.81878,46.1046384 1.76684667,45.4192848 0.778446667,43.9500727 C-0.06342,42.6992444 0.20258,40.3718303 0.63238,39.0090222 C1.17044667,37.3051636 1.65951333,35.6872646 1.74678,33.8886182 C1.82938,32.2019515 1.28664667,30.5375879 2.07858,28.9805576 C3.45151333,26.2814263 5.25938,23.9349616 6.10544667,20.9686586" id="Fill-1" fill="#6ADED7"></path>
                            <path d="M8.94418,17.9856283 C10.3101133,17.1427596 11.8123133,16.666497 12.96638,15.4853657 C14.5059133,13.9102141 15.79438,12.0098101 17.1799133,10.3008404 C19.6700467,7.22999192 21.8008467,3.37528485 25.4674467,1.51716364 C28.4149133,0.023789899 31.7492467,-0.549119192 33.82638,2.57655758 C34.8838467,4.16750707 35.0901133,6.00332525 34.7270467,7.85261818 C34.27578,10.1535475 33.2388467,12.648699 32.1972467,14.7405374 C31.12158,16.9006788 29.4924467,18.8024768 27.94358,20.6327192 C26.8245133,21.9555677 26.3214467,23.3783152 25.7143133,24.9641535 C24.7105133,27.5824364 21.5684467,29.002396 19.29578,30.3675273 C17.9424467,31.1797293 16.7622467,32.2386586 15.83638,33.5285172 C14.3682467,35.5720323 13.6869133,38.0541737 12.1847133,40.0739919 C10.53598,42.2912848 8.25491333,44.8988808 5.47918,45.653002 C3.81878,46.1046384 1.76684667,45.4192848 0.778446667,43.9500727 C-0.06342,42.6992444 0.20258,40.3718303 0.63238,39.0090222 C1.17044667,37.3051636 1.65951333,35.6872646 1.74678,33.8886182 C1.82938,32.2019515 1.28664667,30.5375879 2.07858,28.9805576 C3.45151333,26.2814263 5.25938,23.9349616 6.10544667,20.9686586" id="Stroke-3" stroke="#005DEE" stroke-width="0.901"></path>
                        </g>
                        <g id="Group-8">
                            <path d="M30.5744941,33.1204574 C30.4761412,30.7988754 30.8535529,28.438982 30.7867294,26.1113262 C30.7213176,23.8205803 30.6413176,21.4471377 30.1928471,19.1923672 C29.3904941,15.1589164 29.2907294,10.7203918 27.4281412,6.97708033 C26.2032,4.51533443 24.2761412,1.96294918 21.6173176,0.941154098 C18.3608471,-0.311444262 13.9810824,0.264629508 11.5410824,2.8506541 C9.77637647,4.72044098 8.95284706,6.9868918 8.41637647,9.4734 C7.88414118,11.939818 7.68461176,14.7758016 8.56414118,17.1931623 C9.06861176,18.5812525 9.69072941,19.7801213 9.63661176,21.2985639 C9.57872941,22.9118508 9.01684706,24.4943016 8.23425882,25.895941 C7.43331765,27.3312197 6.19284706,28.5011213 5.56461176,30.0293754 C4.90343529,31.6384574 4.79425882,33.3040721 5.10861176,35.0042607 C5.43802353,36.7876131 5.68649412,38.3471705 5.40178824,40.1786459 C5.23849412,41.2294082 4.76367059,42.2021459 4.27896471,43.1431131 C3.72037647,44.2265803 3.24225882,45.3511623 2.67143529,46.4280885 C1.56508235,48.5160639 -0.236329412,50.8638098 0.313788235,53.3858262 C0.729317647,55.2892525 3.26343529,56.6081951 5.07331765,56.6553836 C9.78296471,56.7782607 14.0879059,53.6563426 17.4112,50.6423508 C20.0432,48.2562934 22.4276706,45.5800967 24.5067294,42.7081377 C25.7166118,41.038318 26.9189647,39.3437361 27.9377882,37.5515066 C29.2704941,35.2084328 30.7660235,33.4409656 31.9349647,31.0156623" id="Fill-5" fill="#6ADED7"></path>
                            <path d="M30.5744941,33.1204574 C30.4761412,30.7988754 30.8535529,28.438982 30.7867294,26.1113262 C30.7213176,23.8205803 30.6413176,21.4471377 30.1928471,19.1923672 C29.3904941,15.1589164 29.2907294,10.7203918 27.4281412,6.97708033 C26.2032,4.51533443 24.2761412,1.96294918 21.6173176,0.941154098 C18.3608471,-0.311444262 13.9810824,0.264629508 11.5410824,2.8506541 C9.77637647,4.72044098 8.95284706,6.9868918 8.41637647,9.4734 C7.88414118,11.939818 7.68461176,14.7758016 8.56414118,17.1931623 C9.06861176,18.5812525 9.69072941,19.7801213 9.63661176,21.2985639 C9.57872941,22.9118508 9.01684706,24.4943016 8.23425882,25.895941 C7.43331765,27.3312197 6.19284706,28.5011213 5.56461176,30.0293754 C4.90343529,31.6384574 4.79425882,33.3040721 5.10861176,35.0042607 C5.43802353,36.7876131 5.68649412,38.3471705 5.40178824,40.1786459 C5.23849412,41.2294082 4.76367059,42.2021459 4.27896471,43.1431131 C3.72037647,44.2265803 3.24225882,45.3511623 2.67143529,46.4280885 C1.56508235,48.5160639 -0.236329412,50.8638098 0.313788235,53.3858262 C0.729317647,55.2892525 3.26343529,56.6081951 5.07331765,56.6553836 C9.78296471,56.7782607 14.0879059,53.6563426 17.4112,50.6423508 C20.0432,48.2562934 22.4276706,45.5800967 24.5067294,42.7081377 C25.7166118,41.038318 26.9189647,39.3437361 27.9377882,37.5515066 C29.2704941,35.2084328 30.7660235,33.4409656 31.9349647,31.0156623" id="Stroke-7" stroke="#005DEE" stroke-width="0.901"></path>
                        </g>
                        <path d="M29,36.6436054 C27.9528987,35.5727576 27.7194234,33.2515746 27.4689681,31.8325027 C27.1142743,29.8188788 27.0817293,27.7229899 27.0888043,25.684593 C27.0958793,23.8509239 27.0439959,21.9751875 26.8647623,20.1489971 C26.6916605,18.3863751 26.6147787,16.6228182 26.1883915,14.8933827 C25.3615588,11.5406148 23.8975037,7.55076028 20.2675525,6.31304533 C17.0238968,5.206674 13.5175224,7.14130473 12.7496481,10.4094705 C12.368541,12.0299983 12.2911875,14.014175 12.6567297,15.63704 C13.0118951,17.2122286 13.5387474,18.7317948 13.966078,20.2878193 C14.4028418,21.8774978 14.4014268,23.7041556 14.1273882,25.3251509 C13.9075912,26.6278365 13.3727206,27.3168063 12.4213677,28.1894701 C10.3073551,30.1278401 8.98668677,32.061536 9.26685712,35.0492528 C9.40599896,36.5346977 9.71965768,38.0491223 9.47486238,39.5401762 C9.2211054,41.0882547 8.5801096,42.4320729 7.87826873,43.8184258 C7.16982451,45.2188012 6.46373863,47.3044069 7.59243837,48.6398116 C9.02772182,50.3374629 10.6681805,50.295863 12.5463595,49.3371948 C15.1933562,47.985898 16.8569266,45.7147285 19.0015976,43.7427046 C20.0586039,42.7704813 21.213717,42.0216825 22.574477,41.5271574 C23.5498849,41.1723894 26.308195,40.2730829 26.9817358,41.5921281" id="Fill-9" fill="#F43D4F"></path>
                        <path d="M29.1035835,36.3638649 C31.9467608,36.6342315 34.7645733,34.609723 36.7296631,32.6708616 C39.5714569,29.8667346 41.8533777,26.6746501 44.1090112,23.3941409 C45.706079,21.0714885 47.7818521,18.1858812 50.8712998,18.0067171 C53.9616699,17.8275529 54.2886468,21.2724116 53.8348453,23.5663607 C53.3888838,25.8214214 51.7401637,27.7209316 50.0301067,29.1722999 C48.8785392,30.1496009 47.6909996,31.2542149 47.1841623,32.7060463 C46.2516554,35.3791566 46.1197578,38.0879146 43.5187002,39.6929845 C42.4736653,40.3378828 41.4890451,40.9975957 40.4011205,41.5693469 C39.6563141,41.960545 38.9161195,42.4262792 38.4065151,43.1133065 C37.3859228,44.48875 36.8551042,45.997062 36.1688677,47.5262071 C35.1201434,49.863674 33.7984003,52.7789106 30.9280133,52.9951112 C29.8829784,53.0738138 28.9426315,52.1886411 28.4390225,51.3229126 C27.8224242,50.2641313 27.8897566,49.1085921 28.2218065,47.994719 C28.5432493,46.9151046 28.8047386,45.3905891 28.4528579,44.2919935 C28.248555,43.6526507 27.916505,42.8869208 27.5581679,42.3184103 C27.0056737,41.4411079 25.1729427,40.9207449 25,39.9614992" id="Fill-11" fill="#F43D4F"></path>
                        <path d="M20.4467917,21.9802364 C20.1872624,21.8250824 19.8626041,21.7855712 19.5867926,21.6492092 C19.0687208,21.392386 18.6424217,20.9317426 18.2684232,20.5019372 C17.4498698,19.5608948 16.8676557,18.3982038 16.482309,17.225876 C15.8833193,15.4049853 15.4061999,11.9135396 17.8574196,11.1483704 C19.2063798,10.7272382 20.229695,11.2278747 21.0561429,12.3298533 C22.2294521,13.8924752 22.7751544,16.0487297 22.9384704,17.9351512 C23.0578736,19.318527 23.2034271,21.755215 21.2678122,21.9460254 C20.5775432,22.0139655 19.7935279,22.0958791 19.2201951,21.6535458 C17.7508448,20.5207292 17.2826066,18.0816319 16.8533471,16.4809443" id="Fill-13" fill="#FFE641"></path>
                        <path d="M22,28 C22,29.6569179 20.8806999,31 19.5002155,31 C18.1193001,31 17,29.6569179 17,28 C17,26.3430821 18.1193001,25 19.5002155,25 C20.8806999,25 22,26.3430821 22,28" id="Fill-15" fill="#FFE641"></path>
                        <path d="M17.1048687,34.0503438 C16.0338387,34.0347583 14.8481043,34.61188 14.2126781,35.4961276 C13.2040072,36.9001973 13.3228083,38.6851948 13.012378,40.2946263 C12.7711345,41.5442162 12.2677094,42.7406321 11.5344203,43.7802762 C11.2836181,44.1350754 10.9959467,44.4733723 11.0000433,44.9322276 C11.0036847,45.3585367 11.3223081,45.6821649 11.6905458,45.8481046 C12.5999882,46.2583698 13.6141211,45.7720107 14.318279,45.1692188 C15.608704,44.0644823 16.7771417,42.6072386 17.5987351,41.1192823 C18.1954713,40.037924 18.7212,38.8126291 18.9009947,37.5827503 C19.0298096,36.7044618 19.1158379,35.676736 18.6096818,34.9038788 C18.2614719,34.3716801 17.7594124,34.0980171 17.1349104,34.0177977 C15.9013824,33.8587339 15.0333611,34.7911132 14.4643906,35.8060039" id="Fill-17" fill="#FFE641"></path>
                        <path d="M31.5709008,49.7088272 C31.011161,49.6026468 31.0144952,48.5101686 31.0299162,48.0391997 C31.0565903,47.2298692 31.3325008,46.5408765 31.5925735,45.8037487 C31.9335022,44.838687 32.106884,43.8424791 32.3923805,42.8665634 C32.6128589,42.1124467 32.9012728,41.358802 33.6056365,41.0690475 C33.9269763,40.9369119 34.1303665,41.001564 34.4237819,41.2021269 C34.9305903,41.5470952 34.9956085,41.9557717 34.9989428,42.5900225 C35.0018602,43.2228576 35.0106127,43.9146817 34.8318127,44.5201459 C34.6130015,45.2624647 34.1703777,45.9019066 33.8523721,46.5885397 C33.3947442,47.5762532 32.9604561,48.6168209 32.297354,49.4577696 C32.1602323,49.6319054 31.8709847,50.0217054 31.6309176,49.9990535 C31.3950183,49.9773456 31.1991302,49.5488487 31.1157735,49.3369599 C30.7940169,48.5181912 31.2020477,47.598905 31.6175805,46.9184067" id="Fill-19" fill="#FFE641"></path>
                        <path d="M32.184033,45 C31.9686981,45.5043667 31.8430861,46.0413661 31.6197234,46.5462127 C31.4997781,46.8173518 31.3751105,47.0856116 31.2778321,47.3653887 C31.0931918,47.8966294 30.9954411,48.4264304 31.0001634,48.9927032 C31.0044134,49.4898715 31.2773598,50.0014366 31.8199471,49.999997 C32.3488397,49.9990372 32.7776206,49.4231665 32.9882332,48.9927032 C33.075595,48.8151431 33.1903458,48.6534194 33.2696797,48.4729799 C33.3589303,48.2690258 33.4264586,48.0549938 33.510987,47.8486402 C33.6101544,47.6062946 33.7480442,47.3836246 33.8287948,47.1336008 C34.0129628,46.5663682 34.0464908,46.0500042 33.9392956,45.4592568" id="Fill-21" fill="#FFE641"></path>
                        <path d="M41,36.5 C41,37.8808197 39.8804337,39 38.5002487,39 C37.1190689,39 36,37.8808197 36,36.5 C36,35.1191803 37.1190689,34 38.5002487,34 C39.8804337,34 41,35.1191803 41,36.5" id="Fill-23" fill="#FFE641"></path>
                        <path d="M43.8730009,31.8575052 C43.5533602,31.8856894 43.3077272,31.522639 43.1783272,31.2637267 C42.9712871,30.8495626 43.0793475,30.3704316 43.2518809,29.9710762 C43.5174914,29.3577121 43.9579055,28.8742818 44.3025182,28.3091652 C44.4805,28.0187249 44.6789133,27.7430932 44.8528088,27.4502644 C45.0176235,27.1746327 45.2223934,26.9142873 45.3576958,26.6224139 C45.7109352,25.858575 46.1835858,25.1897979 46.6167353,24.4775503 C46.9440946,23.9396625 47.3831466,23.4762956 47.8235607,23.0401574 C48.2526239,22.6140508 48.745252,22.4000422 49.2841918,22.1635817 C49.7336865,21.9662925 50.0356199,21.918045 50.4719477,22.1846004 C50.9949962,22.504658 51.0762685,23.2259819 50.9441442,23.8082956 C50.7466389,24.6810497 50.0796613,25.3417059 49.5025827,25.9598469 C48.7525166,26.7642902 47.9715762,27.5352946 47.2601031,28.3779537 C46.7465893,28.9855854 46.2848356,29.63621 45.7740461,30.2467079 C45.2723372,30.8466964 44.080495,32.8262765 43.201483,31.6148347 C42.969471,31.2952548 42.9426829,30.7482907 43.0961468,30.3986158 C43.1824135,30.2008489 43.2941061,30.0150244 43.3985342,29.8277668 C43.4802605,29.6806359 43.5914991,29.5430589 43.7000135,29.4174243 C44.119542,28.9320833 44.5177308,28.4424429 44.9086551,27.9298731" id="Fill-25" fill="#FFE641"></path>
                        <path d="M22.0499819,45.4379921 C23.215022,44.3765217 24.2489712,42.9918559 25.017402,41.6364468 C26.0632686,39.7905305 27.1677685,37.9816423 28.1383175,36.095498 C28.9572778,34.5046637 29.7729012,32.9385149 30.5303679,31.3197953 C30.9984814,30.3186668 31.3130994,28.7141185 32.463362,28.2108115 C33.254674,27.8647593 34.3057843,27.8867018 34.7519699,28.719147 C35.3673818,29.8693019 34.7186013,31.5986484 34.097469,32.6180623 C33.5359235,33.5396491 32.7288806,34.3190664 31.9313715,35.0527701 C31.6057895,35.3521944 31.3521883,35.6164192 31.1386294,35.9999565 C30.8344987,36.5466915 30.4417028,37.0362845 30.1323284,37.5811909 C29.495942,38.7016319 29.0125743,39.906186 28.3738043,41.0334841 C27.9114111,41.8476438 27.419463,42.5936902 26.8421865,43.3406509 C26.0380038,44.3806359 24.995474,45.6103325 23.6349894,45.9518133 C23.4014093,46.0103268 21.6881711,46.1369535 22.0499819,45.4379921" id="Fill-27" fill="#3E429E"></path>
                        <path d="M33.2723541,18.1001827 C33.5127109,19.9856032 33.554201,21.926411 33.36678,23.8176854 C33.2618624,24.8804015 33.0734875,25.9386145 32.808809,26.9761136 C32.5727443,27.9010369 32.1506893,28.802094 32.0028509,29.7396258 C31.9680373,29.9616254 32.2608528,30.1084243 32.4020147,29.8985829 C33.4540524,28.3297257 33.7249306,26.0466873 33.9090134,24.2261106 C34.1193255,22.1394045 33.9595646,20.1134893 33.4864815,18.0727142 C33.4612059,17.9614893 33.2575703,17.9835541 33.2723541,18.1001827" id="Fill-29" fill="#3E429E"></path>
                        <path d="M36.8625372,18.0462397 C36.8265282,20.1597772 36.367413,22.3047271 35.644055,24.3179325 C34.9529993,26.2411204 33.8785532,27.9786471 33.0101,29.830571 C32.950791,29.9571582 33.1679043,30.0574903 33.2653405,29.9623155 C36.4389015,26.8435818 37.1659663,22.0613984 36.9705643,18.0462397 C36.9673871,17.9848214 36.8635963,17.9843526 36.8625372,18.0462397" id="Fill-31" fill="#3E429E"></path>
                    </g>
                </g>
            </g>
        </g>
    </g>
</svg>