<?xml version="1.0" encoding="UTF-8"?>
<svg width="310px" height="651px" viewBox="0 0 310 651" version="1.1" xmlns="http://www.w3.org/2000/svg" xmlns:xlink="http://www.w3.org/1999/xlink">
    <!-- Generator: sketchtool 52.5 (67469) - http://www.bohemiancoding.com/sketch -->
    <title>3CA266EA-C41C-47FA-86AF-EBD7F9499593</title>
    <desc>Created with sketchtool.</desc>
    <g id="HUB-AND-CONTENT-PAGES" stroke="none" stroke-width="1" fill="none" fill-rule="evenodd">
        <g id="large/hub/EN-default" transform="translate(-1130.000000, -3647.000000)">
            <g id="business-of-doing-good-" transform="translate(-707.000000, 3169.000000)">
                <g id="right-confetti1" transform="translate(1837.000000, 478.000000)">
                    <path d="M211.489179,626 C210.151924,625.496247 209.119944,624.543954 208.12202,623.623302 C207.80823,623.333581 207.495656,623.043861 207.173353,622.771512 C204.546275,620.542465 201.082424,619.329611 197.663575,619.445623 C196.862681,619.4723 196.027732,619.5697 195.220149,619.663999 C193.334978,619.884236 191.385345,620.112538 189.483755,619.527514 C186.441331,618.591972 184.552511,615.968981 182.725719,613.432223 C182.024556,612.458217 181.299069,611.451331 180.530406,610.578448 C178.466447,608.237732 174.506979,608.162665 170.313384,608.082635 C166.720004,608.014393 163.003784,607.943669 160.011226,606.455363 C154.895114,603.911781 152.668787,601.282586 150.880307,599.170172 C150.24847,598.423848 149.650688,597.718469 149,597.106148 L149.999141,596 C150.712465,596.670017 151.335788,597.406415 151.996815,598.18686 C153.785295,600.299274 155.812767,602.694584 160.657049,605.102922 C163.357101,606.445437 166.907305,606.513059 170.34075,606.5782 C174.863337,606.664433 179.134771,606.745704 181.626846,609.572802 C182.444159,610.5009 183.192147,611.537564 183.913985,612.541349 C185.6751,614.98691 187.338308,617.296606 189.909438,618.086978 C191.519132,618.582046 193.23403,618.381041 195.052308,618.169489 C195.889081,618.072089 196.754435,617.970966 197.614925,617.941808 C201.391957,617.814629 205.214599,619.154042 208.116547,621.614492 C208.454053,621.90111 208.783046,622.203859 209.111431,622.507227 C210.046719,623.370805 210.929709,624.185371 212,624.588622 L211.489179,626 Z" id="Fill-1" fill="#FF6ABC"></path>
                    <path d="M157.142197,43 L157,42.1300224 C157.549344,42.0326558 158.097472,42.0010432 158.677807,41.9675339 C160.249878,41.8777542 162.030992,41.7753296 164.80931,40.3426485 C166.357073,39.5447476 167.635027,37.8869851 168.870442,36.2835962 C170.49842,34.1718775 172.035246,32.1764929 174.17246,32.0095786 C174.873724,31.9539405 175.599903,31.9716435 176.30299,31.9893466 C178.015435,32.0304429 179.628828,32.0702747 180.884298,31.1358075 C181.671245,30.5509752 182.184735,29.6664559 182.728002,28.730092 C182.978974,28.2982645 183.237846,27.8512629 183.52771,27.4327127 C184.796548,25.6004489 186.738697,24.2670313 188.857073,23.7738754 C189.1044,23.7163405 189.35598,23.6695539 189.60756,23.6221351 C190.320977,23.4880979 190.994288,23.3616476 191.550316,23 L192,23.7473208 C191.306636,24.2000126 190.519081,24.3479594 189.757657,24.4908482 C189.517623,24.535738 189.278196,24.5806278 189.042416,24.6356337 C187.123967,25.082003 185.36473,26.2896026 184.216213,27.9486296 C183.945795,28.3387285 183.696038,28.7692916 183.454181,29.1859451 C182.890253,30.157715 182.307487,31.1629943 181.378342,31.8540448 C179.891954,32.9604843 178.051896,32.9136977 176.283544,32.8713369 C175.603549,32.8548984 174.898031,32.8378276 174.236874,32.8890399 C172.466699,33.0281352 171.041079,34.8774697 169.532207,36.8355515 C168.239062,38.5141782 166.901556,40.2490753 165.185464,41.1335947 C162.25158,42.6459394 160.296062,42.7584801 158.724599,42.848892 C158.169178,42.8811368 157.644142,42.9108526 157.142197,43" id="Fill-3" fill="#FF6ABC"></path>
                    <path d="M281.173573,453 C278.514375,450.127828 273.745817,450.109111 270.215012,450.598775 C269.315668,450.723153 268.387353,450.879532 267.489858,451.03108 C264.052132,451.610707 260.495439,452.21207 256.970799,451.358328 C253.096037,450.421264 250.060827,447.927662 247.12671,445.516173 C244.76832,443.578649 242.541842,441.749202 239.922094,440.666025 C236.104658,439.087749 231.878542,439.246543 227.407094,439.413789 C226.267966,439.456657 225.089388,439.501337 223.933617,439.512205 C218.605357,439.547224 211.517859,438.534688 208,433.333745 L210.055115,432 C212.961495,436.29588 219.198961,437.144188 223.90896,437.097093 C225.029596,437.086225 226.190915,437.042753 227.3134,437.000489 C231.856352,436.82962 236.558337,436.65392 240.880613,438.441103 C243.841854,439.665565 246.317361,441.699089 248.711503,443.666197 C251.555625,446.003421 254.242562,448.21023 257.561937,449.013858 C260.584202,449.743222 263.735297,449.213105 267.071315,448.650988 C267.986686,448.49642 268.93411,448.337023 269.869822,448.207815 C275.779974,447.388488 280.32046,448.484345 283,451.377045 L281.173573,453 Z" id="Fill-5" fill="#FF6ABC"></path>
                    <path d="M67.9819332,2.20082512 C67.8168785,0.829920383 66.571843,-0.147346485 65.2003448,0.0183020301 C63.830034,0.183356823 62.8521736,1.42839244 63.0184158,2.79929718 C63.1834705,4.16960819 64.428506,5.14687506 65.7994105,4.98182026 C67.1697213,4.81676547 68.1463943,3.57172986 67.9819332,2.20082512" id="Fill-11" fill="#6ADED7"></path>
                    <path d="M220.421664,362 C220.256661,362 220.091659,361.996903 219.926047,361.99009 C216.126113,361.835862 212.827275,359.915144 209.636816,358.057603 C207.205613,356.641685 204.691604,355.177454 202.035121,354.572313 C199.6782,354.034686 197.144098,354.161041 194.692194,354.28306 C194.233718,354.305977 193.77585,354.328894 193.319201,354.348095 C185.259029,354.680706 179.601444,353.031279 176,349.30319 L177.303583,348 C180.52205,351.33292 185.731509,352.802725 193.245528,352.490554 C193.696698,352.471973 194.149694,352.449675 194.602691,352.427377 C197.175759,352.297925 199.834678,352.165996 202.434537,352.758749 C205.36014,353.425828 207.995313,354.960669 210.544027,356.44472 C213.682123,358.271291 216.646084,359.998142 219.998502,360.133168 C222.05099,360.216785 224.062684,359.684732 226.191281,359.12171 C227.165467,358.864045 228.17314,358.597089 229.185076,358.395169 C231.651593,357.900898 236.206522,357.53546 239,360.618767 L237.65745,361.877981 C235.383334,359.369464 231.221734,359.882936 229.537001,360.218024 C228.579254,360.409415 227.598979,360.668938 226.650975,360.919789 C224.642934,361.451223 222.570353,362 220.421664,362" id="Fill-15" fill="#FFE641"></path>
                    <polygon id="Fill-28" fill="#FF6ABC" points="207.998767 239 171 238.967858 171.000616 237 208 237.032142"></polygon>
                    <polygon id="Fill-30" fill="#00BA9F" points="118.964218 651 73 629.25044 74.0357823 627 120 648.74956"></polygon>
                    <polygon id="Fill-32" fill="#00BA9F" points="230.571228 64 230 62.2401235 324.429384 31 325 32.7592593"></polygon>
                    <path d="M188.540442,520 C187.252995,520 185.966764,519.859549 184.812564,519.374748 C183.295129,518.737792 182.079477,517.601251 180.903373,516.50167 C179.819751,515.488331 178.795756,514.531049 177.57767,513.960623 C173.922805,512.251807 170.464464,513.472125 166.802297,514.764518 C163.314751,515.995925 159.705518,517.269837 155.720272,516.085863 C151.024984,514.691212 148.450698,511.294525 145.961593,508.009951 C143.743241,505.08328 141.647793,502.31862 138.162072,501.074277 C135.351105,500.07141 132.611933,500.595636 129.712743,501.148814 C127.968361,501.482076 126.164353,501.827659 124.300719,501.835051 L124.219797,501.835051 C118.774917,501.835051 116.433662,499.600777 113.47302,496.775132 C113.008176,496.330988 112.522645,495.867131 112,495.38849 L113.241815,494 C113.773586,494.487265 114.268852,494.959746 114.742214,495.411899 C117.610374,498.148222 119.509906,499.96176 124.21858,499.96176 L124.293418,499.96176 C125.987299,499.954984 127.707343,499.626034 129.369586,499.308172 C132.381336,498.732817 135.496521,498.13775 138.777807,499.308172 C142.780697,500.736702 145.144465,503.854337 147.429745,506.87033 C149.844013,510.055725 152.125033,513.065558 156.240484,514.288957 C159.656235,515.303528 162.831654,514.182387 166.193254,512.995949 C170.040993,511.636411 174.020763,510.231289 178.354033,512.261047 C179.836787,512.954676 181.017759,514.057952 182.159182,515.125501 C183.264099,516.159784 184.308172,517.135546 185.52139,517.644988 C187.100886,518.3072 189.251093,518.138413 191.147583,517.988722 L191.869187,517.933897 L192,519.80226 L191.291174,519.856469 C190.407119,519.926079 189.473172,520 188.540442,520" id="Fill-36" fill="#FFE641"></path>
                    <path d="M109.335137,311 C109.196574,311 109.062283,310.993791 108.932264,310.979994 C106.245224,310.702671 104.3505,309.441608 102.679187,308.328176 C99.8340489,306.433823 97.7769548,305.066522 92.8918144,308.728984 L92,307.209224 C97.7287322,302.914162 100.531141,304.78161 103.497752,306.757367 C105.098256,307.822509 106.753088,308.924214 109.078764,309.164285 C110.928317,309.354686 114.504731,307.487927 117.377337,305.986104 C118.91558,305.182418 120.368364,304.422884 121.488473,304 L122,305.729477 C120.964738,306.120627 119.55102,306.859466 118.054286,307.641076 C115.030907,309.221543 111.62663,311 109.335137,311" id="Fill-46" fill="#478AF6"></path>
                    <path d="M97.0404838,170 L96,168.799593 L96.4307578,168.458053 C101.025302,164.813772 103.330289,162.982193 109.681807,163.331403 C110.949395,163.400419 112.95569,163.964344 115.07924,164.561893 C117.518761,165.247924 120.284745,166.028925 121.651691,165.933955 C127.181807,165.56292 129.491113,163.805666 131.936806,161.945184 C134.826833,159.74552 137.819921,157.470941 146,158.109192 L145.867317,159.662937 C138.332757,159.079545 135.717354,161.061543 132.951987,163.165056 C130.537768,165.001944 127.801407,167.084221 121.76586,167.489469 C120.111331,167.603316 117.316342,166.815826 114.61886,166.05724 C112.677364,165.5116 110.669217,164.946495 109.589237,164.887507 C103.878302,164.57841 102.003456,166.064318 97.4724759,169.657869 L97.0404838,170 Z" id="Fill-50" fill="#478AF6"></path>
                    <path d="M44.9519876,562 C39.3500829,557.270503 36.0789771,557.393492 32.6202941,557.52472 C29.5924338,557.637705 26.1682408,557.767168 21.1544816,554.685374 C19.775486,553.838572 18.0473547,551.632415 16.3761017,549.499227 C15.1737918,547.963332 13.930336,546.376241 13.1128621,545.718925 C8.79011339,542.245801 6.4042514,542.382325 0.641998369,542.713043 L0.0931835521,542.744231 L0,541.191859 L0.547604641,541.160671 C6.39214964,540.82348 9.32440609,540.656944 14.1312252,544.52022 C15.0908947,545.29111 16.3331404,546.877613 17.6486017,548.556505 C19.1601115,550.486084 20.8731157,552.672822 22.0088659,553.370742 C26.603299,556.194199 29.4956197,556.08651 32.5585751,555.969994 C36.1782116,555.834647 39.9224961,555.692827 46,560.825423 L44.9519876,562 Z" id="Fill-52" fill="#FF7EBC"></path>
                    <path d="M229.786771,151 C227.896852,151 226.051727,150.472897 225,148.879186 L226.53157,147.847304 C227.791925,149.758518 231.679757,149.176224 233.834141,148.358904 C235.564521,147.702816 236.771492,146.3894 238.049027,144.999088 C239.784316,143.110199 241.578511,141.157438 244.718967,140.96148 C247.057434,140.815131 249.273179,141.360217 251.417746,141.88732 C253.366571,142.366674 255.215991,142.820603 257.095478,142.777814 C262.890409,142.65131 270.097871,138.795397 273.504019,134 L275,135.084592 C271.231208,140.390968 263.550653,144.49741 257.134749,144.637557 C255.022704,144.688407 252.960361,144.181768 250.982696,143.694973 C248.879242,143.177792 246.891759,142.690377 244.833098,142.818122 C242.427134,142.968191 241.023194,144.49617 239.397742,146.264755 C238.031233,147.752426 236.618089,149.290326 234.479659,150.100824 C233.253666,150.565915 231.50181,151 229.786771,151" id="Fill-54" fill="#00BA9F"></path>
                </g>
            </g>
        </g>
    </g>
</svg>