<?xml version="1.0" encoding="utf-8"?>
<!-- Generator: Adobe Illustrator 22.1.0, SVG Export Plug-In . SVG Version: 6.00 Build 0)  -->
<svg version="1.1" id="Layer_1" xmlns="http://www.w3.org/2000/svg" xmlns:xlink="http://www.w3.org/1999/xlink" x="0px" y="0px"
	 width="1441px" height="991px" viewBox="0 0 1441 991" style="enable-background:new 0 0 1441 991;" xml:space="preserve">
<style type="text/css">
	.st0{opacity:8.000000e-02;}
	.st1{fill:#FEFCEF;}
	.st2{fill:#FEF7DC;}
</style>
<g id="Mask">
</g>
<g class="st0">
	<path class="st1" d="M1538.7-411.2l-46.5,139.3c-22.7,10.5-24.2,44.4-30.6,64.9c-7.5,23.7-8.1,39.7-6.3,63.7
		c1.2,15.7,1.8,31-1.3,46.7c-4.3,21.5-20.2,37.8-20.4,60.2c-0.3,44.2,17.6,84.7,8.7,127.1c-7.2-20-15.4-39.5-19.5-60.4
		c-1.2-6-1.9-18.9-7.9-22.7c-5.6-3.4-4.8,1.3-4.6,5.9c0.6,11.4,9.6,21.6,11.2,33.1c1.5,11.5-4.6,21.9-3.6,33
		c1.5,17,7.8,29.2,3.2,46.8c-1.5,5.7-3.3,11.2-5.2,16.7c-12,14-27.1,25.2-44.8,34.1c-29.1,14.8-49.5,39.4-62.5,68.7
		c-10.7,24.2-16.6,50.6-31.1,72.9c-9.5,14.6-33.7,32.6-34.2,50.3c-0.2,5.9,3.1,13.5,9.3,14.5c9.2,1.6,10.1-9.6,18.6-9.1
		c12.9,0.8,11.7,17.9,10.5,26.6c-1.6,11.7-5.9,27.2-13.5,36.7c-5.2,6.5-13.3,9.5-18.3,16.2c-3.3,4.4-5.3,9.3-6.2,14.5
		c-1.5,0.4-2.9,0.9-4.4,1.3c-33.8,10.9-60.8,39.8-68.9,73.6c-4.8,20-4.1,43.1-18.6,58c-11.7,12.1-30,15.1-44.7,23.6
		c-18.1,10.5-31.2,29.5-51.6,34.5c-7.3,1.8-15.4,1.6-21.7,5.7c-6.3,4-8.5,15-1.6,18c2.3,1,4.9,0.9,7.3,0.6c27-3.3,48.8-22.3,74-32.5
		c27.7-11.2,59.3-11.6,86.2-24.6c23.9-11.5,42-32,57-53.5c6.5-9.3,12.6-19,21-26.7c4.8-4.4,10.2-8,15.9-11.3
		c29.5,6.2,63.6-7.5,85.8-30.5c19.3-20,35.9-43.1,50.3-67.7c-0.5,6.5-2.2,12.8-8.4,16.2c-20.3,22.5-14.7,51.3-0.6,75.4
		c13.1,22.4-6.9,42.4-7.2,65.3c-0.1,9.6,3.6,20.7,6.7,29.7c3,8.8,3.7,19.3,2.9,28.8c-0.2,2-3.4,9.8,0.8,9.7c4-0.1,5.2-11.9,5.4-14
		c0.8-7.4-0.7-15.3,1-22.7c1.9-8.1,6-15.5,9.3-23c8.8-19.4,3-37.4,4.9-57.5c1-10.2,7.1-18.5,8.3-28.6c1.3-11-2.4-19.4-5.8-29.7
		c-3.2-9.8-5.9-19.6-5.7-30c0.1-4.9,1.5-9.7,1.4-14.6c-0.1-2.3-0.8-14.9-3.4-22.1c8.2-15.4,15.6-31.2,22.4-47.3
		c1,3.7,1.6,7.5,1.5,11.3c0,4.5-4.4,16.4,8.6,7c5.7-13.5,3.9-28.5,0.1-44c9.9-26.1,18.2-52.2,25.6-77.3
		c12-41.1,23.5-82.1,36.9-122.8c20.8-63,46.2-125.3,59.6-190.4C1620-170,1577.4-291.6,1538.7-411.2z"/>
	<path class="st1" d="M1358.2,655c-83.6,81.2-215.5,43.7-256.5,48.5c-68,8-104.2,88.3-172.2,96c-46.2,5.3-85.4-24.8-125.8-47.7
		l0.3-0.1c-13-11.2-28.6-18.7-44-26.3c-16.5-8.1-35.1-15.8-53.6-18.2c-17.4-2.3-34.9-1.6-51.6,4.1c-11.9,4.1-25.5,7.5-38.3,6.9
		c-10.9-0.5-20.8-5.4-31.9-4.4c-12,1.1-21.7,7.3-31.9,12.8c-19.2,10.4-46.1,16.8-67.9,11.6c-3.4-0.8-32-11.4-29.2,0
		c0.8,3.4,8.1,4.2,10.8,4.6c7.1,1.2,12.6,2.7,19.3,5.8c4.9,2.2,8.9,4.2,14.4,5c4.2,0.6,12.1,0.4,14,5.4c1.1,3,0.1,5.5-2.3,7.7
		c-1.7,0.6-3.4,1.3-5.1,1.9c-5.5,2-11,4-16.7,5.8c-18.5,3.4-41.4,3.7-45.7,3.6c-9.8-0.4-20.4-1.7-29.6-5c-7-2.5-12.4-5.7-20-6.7
		c-14.2-1.9-27.4,1.3-40,8.1l0,0c-16.2-5.8-30.4-14.8-39.5-28.6c-0.6-3.2-1.3-6.3-1.5-8.4c-0.6-9.4-1.7-18.2-5.6-27
		c-4.4-9.9-9.3-17-11.3-27.7c-1.6-8.6-7.3-18.3-13.6-24.4c-4.8-4.6-16.8-8.4-18.9-15.2c-2-6.5,4.5-11.9,10.8-11.8
		c5.1,0.1,9.6,2.4,13.6,5.4c7,6.6,14,13.1,22.3,17.2c6,3.5,12.6,5.1,19.3,6.2c7.8,2.1,15.6,4.1,23.8,6c10.5,2.4,19.4,8.7,28.7,14.1
		c18.7,10.9,58.7,25.2,63.2,16c0.4-7.6-6.1-14-13.2-17.2s-15-4.2-22.3-7c-14.1-5.5-24.8-18.2-27.5-32.6c-2.2-11.3,0.3-22.8-0.3-34.2
		c-2-35.4-36.3-64.1-72.8-68c-11.5-1.3-23.1-0.5-34.5-2.4s-23-7.2-28.4-17c-4.7-8.4-4.6-19.7-12.4-25.6c-3.6-2.8-8.4-3.8-12.5-5.9
		c-5.1-2.6-8.8-6.7-11.9-11.5c-8.1-40.7-29.9-78.9-62.4-105.8l-50.9,34.9c3.8-12.3,4.8-25.2,2.1-37.9c-2.9-13.6-10.5-28.8-9.9-42.8
		c0.4-8.8,3.9-17.4,4.9-26.3c1.2-11.3-0.3-20.7-2.1-31.7c-2.3-14.5-3-29.8-4.6-44.5c-0.8-7.2-1.4-14.8,0.6-21.9
		c1.1-4,8.4-14.6-6.7-8.4c-20.9,27.7-3.2,73-14.8,104.9c-3.6,9.9-8.5,20-12.7,30.2c-0.8-16.9-2.5-35.7-9.2-50.3
		C34.8,253.9,11.7,239-10.6,233L-55,321.6c7.9,29.1,15.3,74.4,49.6,86.4c14.8,5.2,29.4,5.4,43.4,13.4c0.4,0.2,0.8,0.5,1.1,0.7
		c-1.6,6.6-3.1,13.1-3.7,19.9c-0.1,1.4-0.2,2.8-0.3,4.3l-66,45.2c-24,78.5-38.5,160.6-31.7,242.1c6.2,72.8,30.2,145.3,74.8,203.7
		c-16.8,31.2-28.3,64.3-27.2,98.7c1.4,44.7,23.9,86.6,49.5,124.8c26.2,39.2,56.4,76.6,93.3,107.9c89.4,75.8,211.1,110.3,329.4,138.3
		c86.8,20.6,174.6,38.9,263.9,46.7c164.1,14.3,331.9-8.1,484.7-64.5c55.9-20.7,110.5-46.2,155.9-82.4
		c68.7-54.7,112.9-130.9,143.9-209.1c50.6-127.6,67.8-275.3-1.8-395.3L1358.2,655z M211.4,630.4c-5.8-5.3-9.1-11.7-10.6-18.7
		c3.9,7.2,7.9,14,11.6,19.6C212,630.9,211.7,630.7,211.4,630.4z"/>
	<path class="st1" d="M681,680.8c5,2.9,11.3,2.3,17,3.6c9.2,2.1,16.7,9.3,26.1,10.6c10.1,1.3,20.2-4.6,30.2-2.8
		c5.8,1.1,10.8,4.6,16.2,7c13.4,6,30.1,4.5,42.1-3.8c1.2-0.8,2.4-1.8,3.5-2.7c4-2.1,7-5.8,10.6-8.6c2.3-1.9,9.6-3.5,15.1-5.9
		c7.5-2.1,14.9-5.7,18.3-12.4c-0.4-1.8-2.7-2.5-4.5-2.1s-3.3,1.6-4.9,2.5c-1.7,0.9-3.5,1.3-5.3,1.4c-1.9-1.2-4.6-1.4-7.8-0.8
		c-5.3-1.3-10.9-3.4-16.3-3.4c-8,0-15.4,4.8-23.4,4.4c-12.7-0.6-21.3-13.8-33.7-16.4c-11-2.4-21.8,3.9-31,10.2s-19.3,13.2-30.5,12.1
		c-4.2-0.4-8.2-1.9-12.4-2.2c-4.1-0.1-8.9,1.3-10.8,4.9c-0.4,0.8-0.7,1.8-0.3,2.6C679.5,679.8,680.2,680.4,681,680.8z"/>
</g>
<g>
	<path class="st2" d="M266.8,926.7c-20.5-15.6-47.1-21.4-66.4-39.4c-26.8-25-24.4-51.8-17.7-84.4c6.5-31.7-0.1-57.4-11.8-87.1
		c-11.5-29.2-29.3-25.9-53.1-40.7C95,661,93,642,91.6,618.9c-1.6-26-13.8-51.1-28.3-72.7C45.5,519.5,14,513.4-17.6,514l-192.5,184.6
		c-13.7,46.8-15.5,93.8-5.5,141.2c12.5,38.8,30.7,74.8,54.5,108.2c42.8,61.4,103,125.3,177.2,149.9c51.7,17.1,105.1,14.2,157.8,3.8
		c31.9-6.3,75.7-15.7,99.4-40C310.7,1023.3,309.3,959.2,266.8,926.7z"/>
	<path class="st2" d="M389.7,891.8c-10.9-2.6-20.4,0.5-30.5-5.5c-4-2.4-7.8-6-12.5-7.1c-4.5-1.1-9.7-0.4-14.3-0.2
		c-8.2,0.4-13.5-1.1-20.4-5.8c-1.8-1.2-8.6-6.9-9.9-2.7c-1,3.2,8.3,9.7,10.4,11.4c7.1,5.8,13.6,6.6,22.2,8.8
		c5.1,1.3,10.3,3.2,13.5,7.5c2.4,3.3,3.5,6,7.4,8c4.5,2.3,10.1,2.6,14.8,4.3c7.7,2.8,10.3,10,15.6,15.5c5.3,5.5,13,9.9,20.6,11.1
		c6.9,1.1,28,3,29.5-5.7l-13.4-10C418.7,904.8,405.8,895.6,389.7,891.8z"/>
	<path class="st2" d="M226.2,768.1l5.4,14c6.6,10.6,8.7,23.2,16.6,33.1c5,6.2,11.9,10.9,17.8,16.3c8.1,7.3,16,17.3,26.5,21.5
		c14,5.5,1.5-9.9-0.7-13.5c-2.3-3.9-1.9-9.3-4.6-12.9c-1.8-2.4-4.2-2.8-6.8-4.5c-9.9-6.3-5.1-16.2-2.8-25.1
		c2.7-10.3,2.5-22.6-6.2-30.4c-4.3-3.9-9.9-6.7-15.7-7.8c-4-0.8-8.3,0.2-12.2-1c-5.9-1.8-9.7-7.7-15.4-9.8c-3.7-1.4-5.2-0.8-8.3-4
		c-2.8-2.9-4.3-6.2-6.5-9.5c-3.3-5-9-4.8-8.2,2C206.6,748.5,218.4,759.6,226.2,768.1z"/>
	<path class="st2" d="M-0.3,444c12.5,3,27.4,2.4,38.5,9.8c12.5,8.4,19,24.7,27.2,36.5c7.6,11,16.9,14.8,27.1,22.9
		c6.7,5.4,11.4,14,16.1,20.9c12.8-2.8,0-17.2-4.6-22.7c-6-7.1-12.1-13.7-12.3-23.4c-0.3-11.3,7.1-20.2,6.2-32.2
		c-0.9-11.8-3.2-23.6-13.5-30.7C73.9,417.9,61.6,411,54,400.4c-6.1-8.5-8-20.9-12.3-30.6c-8.8-19.9-25-23.1-45.8-25.8l-58.8,56.8
		C-56.9,429.5-25.5,438-0.3,444z"/>
	<path class="st2" d="M1066.4,881c-5.2-2.4-13.1-5.2-18.7-6.9c6.2-9.8,22.2-20,14.5-34c-4.5-8-17.3-10.2-25.7-10.9
		c-25-2.2-38.7,16.9-61.4,20.6c-27.5,4.5-51-14.4-78.1-14.8c-45.8-0.7-79,31.3-124,35.4l0.3,0.2c-25.2-9.5-38.6-39.2-65.7-48.5
		c-41.1-14.2-73.6,11.8-111,23.2c-22.3,6.9-45.6-3.5-66.2,2.8c-11.5,3.5-17.8,10.4-30.3,11.3c-9.2,0.7-21-5.5-29.2-3.9
		c-5.3,1.1-11.2,2.7-9.6,10.3c2.1,10.1,19,9.5,26.6,10.6c25.2,3.4,49.8,13.8,75.8,11.4c28.9-2.7,73.3-15.6,80.1,24.2
		c2.5,14.7-4.6,21.3-16,29.9c-20.1,15.3-37.1,28.1-27.1,55.3c14.5,39.6,75.1,80.7,114.5,91.1c34.1,9.1,71-7,102.7-17.9
		c42.9-14.8,77.7-25.6,99.6-65.9l35.7-27.7c17.7-0.5,35.8-1.8,52.7-4.8c30.2-5.3,78.8-25.8,73.8-62.7
		C1078.2,898.2,1077.3,886.1,1066.4,881z"/>
	<path class="st2" d="M1672.1,755.5c-7.5-59.9-31.9-111.1-53.4-165c11.2-28.4,19.9-57.7,25.9-87.3c18.8-92.5,10.8-194.9-32.4-279.7
		l-91.7-76.1c-17.9-4.1-35.1-3.8-50.5,7.5c-19.8,14.5-48.6,36.4-57.5,59.6c-9.7,25.4-2.3,54.4-1.1,80.7c1.3,29.2-8.7,36.5-25.3,58.1
		c-10.2,13.3-6.2,31.2-6.2,47.8c0,15.5,0.1,27.9-7.3,41.9c-4.2,8-20.7,20-9.9,26.7c12.8,8,17.7-11,24.9-15.5
		c15.6-9.9,22,4.8,20.2,17.9c-1.1,8.1-4.5,15.1-8.8,21.9c-42.7,45.4-60.3,102.1-49.4,166.3c8,47.1,11.4,88.6-19.4,129.6
		c-15,19.9-35.5,32.2-54.6,47.9c-32.9,27.1-46.6,68.7-38.2,110.6c11.9,59.4,67.5,123.3,125.7,144c91.5,32.6,191.2-7.3,249.5-77.9
		C1672.2,942.4,1683.4,844.9,1672.1,755.5z"/>
</g>
</svg>
