<?xml version="1.0" encoding="UTF-8"?>
<svg width="196px" height="290px" viewBox="0 0 196 290" version="1.1" xmlns="http://www.w3.org/2000/svg" xmlns:xlink="http://www.w3.org/1999/xlink">
    <!-- Generator: Sketch 58 (84663) - https://sketch.com -->
    <title>bee</title>
    <desc>Created with Sketch.</desc>
    <g id="news-swimlane" stroke="none" stroke-width="1" fill="none" fill-rule="evenodd">
        <g id="swimlane-news-icon-large" transform="translate(0.000000, -51.000000)" fill="#00D7C4">
            <g id="block" transform="translate(0.000000, 51.000000)">
                <g id="shape">
                    <g id="shape/brand-shape/portrait/bee">
                        <path d="M139.647651,185.64133 C164.874313,193.16565 195.6824,216.875297 195.713087,250.736342 C195.728066,267.113308 189.064598,283.273074 175.163774,290.135163 L174.731544,290.344418 L143.431208,290.344418 C127.000605,283.157558 116.965626,264.785285 116.946309,243.503563 C116.926696,220.985763 128.521286,198.761283 139.647651,185.64133 Z M98.0285235,227.660333 C96.093292,233.709394 94.5853807,240.248567 94.5889262,250.736342 C94.6065157,264.166879 98.5693542,277.517512 109.247686,289.803101 L109.723154,290.344418 L70.1677852,290.344418 C65.2611632,285.269393 62.2646638,278.321221 62.2567114,270.023753 C62.2339535,244.812171 86.469574,230.691737 98.0285235,227.660333 Z M9.37916411e-13,252.80285 C8.21572791,255.487319 17.0138575,256.521613 25.4530201,256.591449 C31.5673439,256.508149 38.1435145,255.997562 43.6828859,254.869359 C30.575743,271.70495 15.8932173,279.310599 3.43959732,279.32304 C2.31032879,279.32395 1.32040154,279.275225 0.359284354,279.065172 L9.37916411e-13,278.978622 L9.37916411e-13,252.80285 Z M75.240744,104.014252 C79.2760418,104.009531 83.3037647,104.177588 86.3433218,104.506814 C95.4399573,105.510334 102.672161,105.658072 105.010706,108.021543 C109.113144,112.121716 106.661666,119.915005 113.102648,128.694596 C119.54673,137.519988 127.256146,136.261973 127.265101,145.857741 C127.272672,153.436138 113.164968,198.347252 76.8596834,216.560752 C59.7241288,225.127171 46.0926036,228.682881 34.5079936,228.693587 C20.7462165,228.706382 9.95290044,224.536652 0.572554631,222.026099 L1.02318154e-12,221.874515 L1.02318154e-12,134.119938 C4.56209007,129.189468 10.0613884,124.495586 16.7354679,120.227357 C38.8786481,106.089234 58.6068471,104.02985 75.240744,104.014252 Z M22.7479077,142.933492 C17.1901087,142.937966 9.62190235,155.567728 9.63087248,165.632317 C9.64780076,184.300007 27.8757931,204.943871 44.5564416,204.928741 C53.6702651,204.92082 63.2920428,199.857906 63.2885906,196.326664 C63.2885906,195.322751 62.2795876,194.81529 60.7553798,193.814817 C45.5575016,186.789147 29.3589087,172.674502 26.2977166,147.98471 C25.7887264,144.453468 24.7721275,142.931773 22.7479077,142.933492 Z M73.3126554,121.235154 C65.7463642,121.241355 60.1836458,122.25175 60.192953,131.803076 C60.2064254,146.922573 74.3805372,173.601813 92.0892894,173.586698 C100.180893,173.579131 104.226004,164.491418 104.219799,157.467798 C104.21703,153.938976 94.5498354,148.104804 91.0517804,143.361789 C85.4721498,135.810976 85.463176,125.754453 80.9120805,123.248054 C78.3690446,121.732805 76.8576502,121.232076 73.3126554,121.235154 Z M162.005034,114.346793 C173.219199,114.336493 182.288009,123.404952 182.298658,134.32304 C182.308261,145.550838 173.255927,154.634761 162.348993,154.643705 C151.134827,154.654349 142.066017,145.587608 142.055369,134.667458 C142.046451,123.441378 151.098442,114.356424 162.005034,114.346793 Z M135.864094,68.8836105 C147.086177,68.8729656 156.148784,77.9394149 156.157718,88.8598575 C156.168008,100.089665 147.12291,109.169862 136.208054,109.180523 C124.991804,109.189452 115.925078,100.124377 115.91443,89.2042755 C115.90551,77.9758457 124.955415,68.8925557 135.864094,68.8836105 Z M0,69.2280285 C7.65887238,78.1496814 18.4198059,84.879196 31.988255,88.8598575 C31.988255,88.8213377 17.7957982,99.5015757 0,99.8812352 L0,99.8812352 Z M76.0151007,0.344418052 C87.4985746,13.2389023 91.8238015,33.1983439 91.8372483,48.2185273 C91.8478611,59.3651966 89.8406039,69.4133423 87.3657718,77.4940618 C52.5753926,77.5259916 12.7629583,61.4492336 12.7265101,21.6983373 C12.7194748,13.8443596 15.1822272,6.57709443 19.6286927,0.757620881 L19.9496644,0.344418052 L76.0151007,0.344418052 Z" id="Combined-Shape"></path>
                    </g>
                </g>
            </g>
        </g>
    </g>
</svg>