<?xml version="1.0" encoding="UTF-8"?>
<svg width="14px" height="18px" viewBox="0 0 14 18" version="1.1" xmlns="http://www.w3.org/2000/svg" xmlns:xlink="http://www.w3.org/1999/xlink">
    <!-- Generator: sketchtool 57.1 (101010) - https://sketch.com -->
    <title>FF9A4F61-A8D7-454F-AB33-123E852CADA5</title>
    <desc>Created with sketchtool.</desc>
    <g id="nav" stroke="none" stroke-width="1" fill="none" fill-rule="evenodd">
        <g id="nav-level1-large" transform="translate(-661.000000, -8.000000)" fill="#7705BC">
            <g id="header/preheader">
                <g id="preheader">
                    <g id="icon/social/glassdoor" transform="translate(657.000000, 8.000000)">
                        <path d="M14.7971297,15.3742604 L4,15.3742604 C4,16.8155749 5.20458832,18 6.70296286,18 L14.7970371,18 C16.28069,18 17.5,16.8298765 17.5,15.3742604 L17.5,4.59984143 C17.5,4.54281488 17.4559274,4.5 17.3972257,4.5 L14.899904,4.5 C14.8412023,4.5 14.7970371,4.54281488 14.7970371,4.59984143 L14.7970371,15.3742604 L14.7971297,15.3742604 Z M14.7971297,0 C16.28069,0 17.5,1.17144668 17.5,2.62859668 L6.70296286,2.62859668 L6.70296286,13.4000534 C6.70296286,13.45714 6.6588903,13.5 6.60009602,13.5 L4.10286684,13.5 C4.04407256,13.5 4,13.45714 4,13.4000534 L4,2.62859668 C4,1.18567331 5.20458832,0 6.70296286,0 L14.7971297,0 Z" id="glassdoor"></path>
                    </g>
                </g>
            </g>
        </g>
    </g>
</svg>