<?xml version="1.0" encoding="UTF-8"?>
<svg width="18px" height="18px" viewBox="0 0 18 18" version="1.1" xmlns="http://www.w3.org/2000/svg" xmlns:xlink="http://www.w3.org/1999/xlink">
    <!-- Generator: sketchtool 57.1 (101010) - https://sketch.com -->
    <title>9858DEC6-846C-4DE7-9C6B-1F986E2C0726</title>
    <desc>Created with sketchtool.</desc>
    <g id="nav" stroke="none" stroke-width="1" fill="none" fill-rule="evenodd">
        <g id="nav-level1-large" transform="translate(-713.000000, -8.000000)" fill="#7705BC">
            <g id="header/preheader">
                <g id="preheader">
                    <g id="icon/social/instagram" transform="translate(711.000000, 8.000000)">
                        <path d="M17.75,16.3125 L4.25,16.3125 C3.9395,16.3125 3.6875,16.0605 3.6875,15.75 L3.6875,7.3125 L5.9375,7.3125 C5.6444375,7.734375 5.5454375,8.5213125 5.5454375,9.0208125 C5.5454375,12.033 8.001875,14.4838125 11.0208125,14.4838125 C14.0403125,14.4838125 16.49675,12.033 16.49675,9.0208125 C16.49675,8.5213125 16.425875,7.7461875 16.0625,7.3125 L18.3125,7.3125 L18.3125,15.75 C18.3125,16.0605 18.0605,16.3125 17.75,16.3125 M11.0208125,5.567625 C12.93275,5.567625 14.4824375,7.1139375 14.4824375,9.0208125 C14.4824375,10.92825 12.93275,12.4745625 11.0208125,12.4745625 C9.1094375,12.4745625 7.55975,10.92825 7.55975,9.0208125 C7.55975,7.1139375 9.1094375,5.567625 11.0208125,5.567625 M15.5,2.25 L17.1875,2.25 C17.498,2.25 17.75,2.502 17.75,2.8125 L17.75,4.5 C17.75,4.8105 17.498,5.0625 17.1875,5.0625 L15.5,5.0625 C15.1895,5.0625 14.9375,4.8105 14.9375,4.5 L14.9375,2.8125 C14.9375,2.502 15.1895,2.25 15.5,2.25 M17.86025,0 L4.13975,0 C2.9579375,0 2,0.9556875 2,2.1346875 L2,15.8653125 C2,17.0443125 2.9579375,18 4.13975,18 L17.86025,18 C19.0420625,18 20,17.0443125 20,15.8653125 L20,2.1346875 C20,0.9556875 19.0420625,0 17.86025,0" id="instagram"></path>
                    </g>
                </g>
            </g>
        </g>
    </g>
</svg>