<?xml version="1.0" encoding="UTF-8"?>
<svg width="18px" height="18px" viewBox="0 0 18 18" version="1.1" xmlns="http://www.w3.org/2000/svg" xmlns:xlink="http://www.w3.org/1999/xlink">
    <!-- Generator: sketchtool 57.1 (101010) - https://sketch.com -->
    <title>6314E2E0-7557-4F6B-AC05-49BFDAE8B2D6</title>
    <desc>Created with sketchtool.</desc>
    <g id="nav" stroke="none" stroke-width="1" fill="none" fill-rule="evenodd">
        <g id="nav-level1-large" transform="translate(-601.000000, -8.000000)" fill="#7705BC">
            <g id="header/preheader">
                <g id="preheader">
                    <g id="icon/social/linkedin" transform="translate(599.000000, 8.000000)">
                        <path d="M11.662,8.11825 C11.667,8.11025 11.67275,8.1015 11.6795,8.09275 L11.6795,8.11825 L11.662,8.11825 Z M17.26075,15.06725 L14.542,15.06725 L14.542,10.71875 C14.542,9.626 14.14725,8.88075 13.165,8.88075 C12.412,8.88075 11.96575,9.38375 11.7695,9.869 C11.69725,10.043 11.6795,10.285 11.6795,10.52725 L11.6795,15.06725 L8.96075,15.06725 C8.96075,15.06725 8.99675,7.70225 8.96075,6.9405 L11.6795,6.9405 L11.6795,8.09275 C12.041,7.539 12.6855,6.749 14.12975,6.749 C15.91875,6.749 17.26075,7.91025 17.26075,10.40725 L17.26075,15.06725 Z M6.09775,5.83 L6.07875,5.83 C5.167,5.83 4.57625,5.206 4.57625,4.42575 C4.57625,3.629 5.18425,3.0225 6.11425,3.0225 C7.045,3.0225 7.617,3.629 7.63475,4.42575 C7.63475,5.207 7.045,5.83 6.09775,5.83 L6.09775,5.83 Z M4.73725,15.06725 L7.457,15.06725 L7.457,6.9405 L4.73725,6.9405 L4.73725,15.06725 Z M18.67075,0 L3.32975,0 C2.5955,0 2,0.57725 2,1.29 L2,16.71 C2,17.422 2.5955,18 3.32975,18 L18.67075,18 C19.40525,18 20,17.422 20,16.71 L20,1.29 C20,0.57725 19.40525,0 18.67075,0 L18.67075,0 Z" id="linkedin"></path>
                    </g>
                </g>
            </g>
        </g>
    </g>
</svg>