<?xml version="1.0" encoding="UTF-8"?>
<svg width="10px" height="12px" viewBox="0 0 10 12" version="1.1" xmlns="http://www.w3.org/2000/svg" xmlns:xlink="http://www.w3.org/1999/xlink">
    <!-- Generator: sketchtool 57.1 (101010) - https://sketch.com -->
    <title>970F3ED4-05A1-472E-9D3F-280641F4388D</title>
    <desc>Created with sketchtool.</desc>
    <g id="nav" stroke="none" stroke-width="1" fill="none" fill-rule="evenodd">
        <g id="nav-level1-large" transform="translate(-960.000000, -11.000000)" fill="#FFFFFF">
            <g id="header/preheader">
                <g id="preheader">
                    <g id="location" transform="translate(959.000000, 7.000000)">
                        <g id="icon/ui/location" transform="translate(0.000000, 4.000000)">
                            <path d="M5.47758538,11.7579167 C2.07210471,6.8210656 1.44,6.314357 1.44,4.50002778 C1.44,2.01473531 3.45473538,0 5.94002792,0 C8.42532047,0 10.4400558,2.01473531 10.4400558,4.50002778 C10.4400558,6.314357 9.80795132,6.8210656 6.40247047,11.7579167 C6.17900673,12.0807309 5.70097806,12.080658 5.47758538,11.7579167 Z M5.94002776,6.37499268 C6.97557707,6.37499268 7.81506363,5.53550612 7.81506363,4.50002786 C7.81506363,3.46447855 6.97557707,2.62499199 5.94002776,2.62499199 C4.90447845,2.62499199 4.06506294,3.46447855 4.06506294,4.50002786 C4.06506294,5.53550612 4.90447845,6.37499268 5.94002776,6.37499268 Z" id="Fill-3"></path>
                        </g>
                    </g>
                </g>
            </g>
        </g>
    </g>
</svg>