<?xml version="1.0" encoding="UTF-8"?>
<svg width="12px" height="12px" viewBox="0 0 12 12" version="1.1" xmlns="http://www.w3.org/2000/svg" xmlns:xlink="http://www.w3.org/1999/xlink">
    <!-- Generator: sketchtool 57.1 (101010) - https://sketch.com -->
    <title>82625AEC-C8C3-4583-8A14-3C709E915DC1</title>
    <desc>Created with sketchtool.</desc>
    <defs>
        <path d="M5.01780739,1.26414185 C7.06333165,1.26414185 8.72757019,2.87084741 8.72757019,4.84460435 C8.72757019,6.81941453 7.06333165,8.42585678 5.01780739,8.42585678 C2.97337407,8.42585678 1.30940826,6.81941453 1.30940826,4.84460435 C1.30940826,2.87084741 2.97337407,1.26414185 5.01780739,1.26414185 M11.81713,10.9293896 L8.85957469,7.96006495 C9.62023698,7.08667223 10.0369785,5.98815114 10.0369785,4.84460438 C10.0369785,2.17334445 7.78553808,0 5.01780738,0 C2.2508949,0 0,2.17334445 0,4.84460438 C0,7.51665423 2.2508949,9.68999868 5.01780738,9.68999868 C6.05666097,9.68999868 7.04751293,9.38772107 7.89326902,8.81265634 L10.8742797,11.8056787 C10.9989203,11.9312766 11.1661078,12 11.3463867,12 C11.5157561,12 11.676398,11.9373327 11.7991294,11.8233203 C12.0601383,11.5816035 12.0675022,11.1813753 11.81713,10.9293896" id="path-1"></path>
    </defs>
    <g id="nav" stroke="none" stroke-width="1" fill="none" fill-rule="evenodd">
        <g id="nav-level1-large" transform="translate(-1126.000000, -11.000000)">
            <g id="header/preheader">
                <g id="preheader">
                    <g id="search" transform="translate(1126.000000, 7.000000)">
                        <g id="icon/ui/search" transform="translate(0.000000, 4.000000)">
                            <mask id="mask-2" fill="#00D7C4">
                                <use xlink:href="#path-1"></use>
                            </mask>
                            <use id="search" fill="#00D7C4" xlink:href="#path-1"></use>
                        </g>
                    </g>
                </g>
            </g>
        </g>
    </g>
</svg>