<?xml version="1.0" encoding="UTF-8"?>
<svg width="43px" height="35px" viewBox="0 0 43 35" version="1.1" xmlns="http://www.w3.org/2000/svg" xmlns:xlink="http://www.w3.org/1999/xlink">
    <!-- Generator: Sketch 59.1 (86144) - https://sketch.com -->
    <title>icon/social/weibo</title>
    <desc>Created with Sketch.</desc>
    <g id="footer" stroke="none" stroke-width="1" fill="none" fill-rule="evenodd">
        <g id="footer-large" transform="translate(-419.000000, -190.000000)" fill="#7705BC">
            <g id="connect" transform="translate(233.000000, 51.000000)">
                <g id="icon/social/weibo" transform="translate(186.000000, 139.000000)">
                    <path d="M6.34649986,10.5527245 C11.7112687,4.92125071 17.9578579,2.35941047 20.3122747,4.82975642 C21.3504769,5.92311324 21.4503876,7.8078957 20.7857644,10.0586553 C20.442593,11.1977593 21.8022469,10.5710234 21.8022469,10.5710234 C26.1331575,8.65879264 29.9167314,8.5535742 31.298105,10.62592 C32.0365753,11.7330009 31.9627282,13.2838292 31.2850732,15.0771174 C30.9723094,15.9051408 31.3806399,16.0332328 31.980104,16.2207961 C34.4213996,17.0213711 37.1363636,18.9381766 37.1363636,22.3234655 C37.1363636,27.9366405 29.4345537,35 17.8579472,35 C9.02671232,35 0,30.5076301 0,23.1103164 C0,19.2492572 2.33269707,14.7843357 6.34649986,10.5527245 Z M29.8211646,22.2228218 C29.3650507,17.3644748 23.2835313,14.0203583 16.2333128,14.7523126 C9.18309425,15.484267 3.84004509,20.0178093 4.29615904,24.8715816 C4.75227299,29.7390781 10.8381363,33.0831945 17.8840109,32.3512402 C24.9298855,31.6238605 30.2729346,27.0903182 29.8211646,22.2228218 Z M10.3628676,23.3953008 C11.8382026,20.4635142 15.6828816,18.807917 19.0827581,19.6745187 C22.5971383,20.5626776 24.3939642,23.8048887 22.958265,26.9479364 C21.500546,30.1729017 17.3079521,31.8888592 13.7495322,30.767882 C10.3100198,29.6900192 8.86110869,26.3745134 10.3628676,23.3953008 Z M15.6872856,24.5033437 C14.5774814,24.0463299 13.1505902,24.5162781 12.4679725,25.5596492 C11.7765468,26.6116432 12.0980378,27.8576526 13.199034,28.349158 C14.3176462,28.8449748 15.7973852,28.3750267 16.4844069,27.2971639 C17.1670246,26.2063669 16.8058978,24.964669 15.6872856,24.5033437 Z M18.4133524,23.4039237 C17.9949738,23.2314657 17.4576876,23.4384153 17.2110645,23.8436917 C16.9688453,24.257591 17.1009648,24.7232277 17.5281514,24.8956858 C17.955338,25.0638324 18.5146441,24.8655056 18.7612672,24.4472949 C19.0034864,24.0204612 18.8493469,23.5505131 18.4133524,23.4039237 Z M29.0578143,0.179289509 C32.9461174,-0.483695024 37.1099381,0.696502025 39.9587883,3.64551333 C42.8914281,6.68126026 43.6746798,10.8228559 42.4314955,14.4435499 L42.4314955,14.4435499 C42.140053,15.2889478 41.1837574,15.7500739 40.2821073,15.4768139 C39.3804571,15.2078237 38.888648,14.3111896 39.1800904,13.4657917 L39.1800904,13.4657917 L39.2672375,13.1977475 C40.0321904,10.6846623 39.4405986,7.86646627 37.4268818,5.78462614 C35.3412467,3.62843458 32.2765469,2.80438513 29.4349829,3.36798372 C28.50601,3.55158023 27.5998061,3.0007907 27.4039931,2.13831408 C27.1990727,1.27583745 27.795619,0.426169889 28.7154843,0.24257338 L28.7154843,0.24257338 Z M30.4402377,5.94746294 C32.315362,5.57290519 34.3394448,6.12225656 35.710739,7.56638477 C37.0907954,9.00635123 37.4588105,10.9748603 36.8585955,12.6853407 C36.6176332,13.3886769 35.8202673,13.7715582 35.0754749,13.5468235 C34.3350637,13.3220889 33.9319996,12.5688116 34.1685807,11.8613136 L34.1685807,11.8613136 L34.2201547,11.6909555 C34.4316043,10.8899605 34.2334214,10.0121082 33.6077958,9.35177671 C32.9374827,8.64844049 31.9473469,8.38208831 31.0316904,8.56520544 L31.0316904,8.56520544 L30.8966877,8.58670881 C30.1788706,8.6676364 29.5060258,8.21488378 29.3493359,7.5372525 C29.187234,6.81726927 29.6735396,6.10560955 30.4402377,5.94746294 Z" id="weibo"></path>
                </g>
            </g>
        </g>
    </g>
</svg>