<?xml version="1.0" encoding="UTF-8"?>
<svg width="18px" height="15px" viewBox="0 0 18 15" version="1.1" xmlns="http://www.w3.org/2000/svg" xmlns:xlink="http://www.w3.org/1999/xlink">
    <!-- Generator: sketchtool 57.1 (101010) - https://sketch.com -->
    <title>343271AB-D6F4-4772-AB72-66EEBC70C3FC</title>
    <desc>Created with sketchtool.</desc>
    <g id="nav" stroke="none" stroke-width="1" fill="none" fill-rule="evenodd">
        <g id="nav-level1-large" transform="translate(-481.000000, -10.000000)" fill="#FFFFFF">
            <g id="header/preheader">
                <g id="preheader">
                    <g id="icon/social/twitter" transform="translate(479.000000, 8.000000)">
                        <path d="M19.7137677,3.74172122 C19.313693,3.91912993 18.8986422,4.05907106 18.4726199,4.16022803 C18.9421441,3.71429254 19.2950415,3.15628346 19.4941189,2.5335427 C19.5508962,2.35591456 19.3578532,2.20203966 19.1973405,2.29721718 C18.6046067,2.64885287 17.9662865,2.91238763 17.2998244,3.08107402 C17.2612597,3.09089349 17.2213784,3.09583065 17.1813325,3.09583065 C17.0598234,3.09583065 16.9419898,3.05084761 16.8489518,2.96900043 C16.1400849,2.34412023 15.2280813,2 14.2814078,2 C13.8716782,2 13.4581085,2.06385397 13.0519995,2.18986133 C11.7937362,2.58006174 10.8228158,3.61807273 10.5180831,4.89860811 C10.4038701,5.37882946 10.3730402,5.85970909 10.426197,6.32747781 C10.4321765,6.38129288 10.4068872,6.41876045 10.3912529,6.43636967 C10.3636048,6.4671995 10.3246012,6.48497329 10.2841165,6.48497329 C10.2796182,6.48497329 10.2749004,6.48480872 10.2704021,6.48436986 C7.51595916,6.2282957 5.03212755,4.90140584 3.27652742,2.74781555 C3.18716477,2.63793625 3.01529666,2.65143117 2.94392723,2.77376308 C2.60019101,3.36369915 2.41850343,4.03828012 2.41850343,4.72481999 C2.41850343,5.77676475 2.84128911,6.7682567 3.57544518,7.4910573 C3.26665309,7.41776786 2.96773533,7.30251255 2.69021194,7.14819879 C2.55586626,7.07364763 2.39063589,7.16964802 2.38871588,7.32330349 C2.36962552,8.88607999 3.28464631,10.2768238 4.65542205,10.9029657 C4.62777394,10.9035692 4.60012583,10.9037886 4.57253258,10.9037886 C4.35524257,10.9037886 4.13515484,10.8829977 3.91874254,10.8414158 C3.76744594,10.8127254 3.64034144,10.9560677 3.68729934,11.1026465 C4.13235711,12.4918544 5.32830244,13.5157121 6.759531,13.7480331 C5.57170456,14.5453848 4.18831162,14.9660311 2.74868989,14.9660311 L2.30001153,14.9658116 C2.16155155,14.9658116 2.0445408,15.056052 2.00943208,15.1899588 C1.97470737,15.3217262 2.03856134,15.461009 2.15661438,15.5295807 C3.77880142,16.4737308 5.62935964,16.9726036 7.50866313,16.9726036 C9.15372568,16.9726036 10.6925295,16.6462572 12.0823956,16.0023415 C13.3565127,15.412186 14.4824052,14.5685346 15.4289141,13.4948115 C16.3106913,12.4944326 17.0000289,11.3398498 17.4781108,10.0627155 C17.9337012,8.84559526 18.174525,7.54657295 18.174525,6.30668687 L18.174525,6.24755063 C18.174525,6.04847327 18.264546,5.86119023 18.4216026,5.7334823 C19.0177375,5.24942094 19.5369625,4.67961753 19.9646853,4.0399807 C20.0776366,3.87112974 19.8995696,3.65943518 19.7137677,3.74172122" id="twitter"></path>
                    </g>
                </g>
            </g>
        </g>
    </g>
</svg>