<?xml version="1.0" encoding="UTF-8"?>
<svg width="43px" height="27px" viewBox="0 0 43 27" version="1.1" xmlns="http://www.w3.org/2000/svg" xmlns:xlink="http://www.w3.org/1999/xlink">
    <!-- Generator: Sketch 59.1 (86144) - https://sketch.com -->
    <title>icon/social/vk</title>
    <desc>Created with Sketch.</desc>
    <g id="footer" stroke="none" stroke-width="1" fill="none" fill-rule="evenodd">
        <g id="footer-large" transform="translate(-419.000000, -195.000000)" fill="#7705BC">
            <g id="connect" transform="translate(233.000000, 51.000000)">
                <g id="icon/social/vk" transform="translate(186.000000, 139.000000)">
                    <path d="M42.0132927,7.5449785 C42.3122003,6.55833056 42.013293,5.83333333 40.5906875,5.83333333 L35.8864707,5.83333333 C34.6903433,5.83333333 34.1389114,6.4596247 33.8398381,7.15023721 C33.8398381,7.15023721 31.4475831,12.9220661 28.0586382,16.6712462 C26.9622296,17.7565179 26.4638016,18.1018242 25.865738,18.1018242 C25.5667475,18.1018242 25.118179,17.7565179 25.118179,16.7699521 L25.118179,7.5449785 C25.118179,6.36100097 24.786769,5.83333333 23.789913,5.83333333 L16.3975723,5.83333333 C15.6500964,5.83333333 15.2005583,6.38284436 15.2005583,6.90363681 C15.2005583,8.02602584 16.8949479,8.28486183 17.0696032,11.4421353 L17.0696032,18.2992359 C17.0696032,19.8026316 16.7953121,20.0752021 16.1972483,20.0752021 C14.6024947,20.0752021 10.723252,14.2775882 8.42250275,7.64360224 C7.97161132,6.35418517 7.51937418,5.83333333 6.31710762,5.83333333 L1.61289076,5.83333333 C0.268828799,5.83333333 0,6.4596247 0,7.15023721 C0,8.38356768 1.59483663,14.5007028 7.42581283,22.5910518 C11.3131026,28.1161161 16.7900386,31.1111111 21.7738201,31.1111111 C24.7640558,31.1111111 25.133975,30.4459064 25.133975,29.3000936 L25.133975,25.124269 C25.133975,23.7938596 25.4172523,23.5283468 26.3641659,23.5283468 C27.0618653,23.5283468 28.2579929,23.8736531 31.0489569,26.5375614 C34.2385472,29.6947528 34.7643934,31.1111111 36.5585017,31.1111111 L41.2627185,31.1111111 C42.6067805,31.1111111 43.2788114,30.4459064 42.8911273,29.1331623 C42.4668845,27.824804 40.9440273,25.9265505 38.9233383,23.6763234 C37.8268467,22.3937222 36.1822337,21.0124972 35.6838056,20.3217205 C34.9861061,19.4338605 35.1854608,19.0391192 35.6838056,18.2498829 C35.6838056,18.2498829 41.4152291,10.2581577 42.0132927,7.5449785 Z" id="vk"></path>
                </g>
            </g>
        </g>
    </g>
</svg>