<?xml version="1.0" encoding="UTF-8"?>
<svg width="51px" height="51px" viewBox="0 0 51 51" version="1.1" xmlns="http://www.w3.org/2000/svg" xmlns:xlink="http://www.w3.org/1999/xlink">
    <!-- Generator: Sketch 47.1 (45422) - http://www.bohemiancoding.com/sketch -->
    <title>icon</title>
    <desc>Created with Sketch.</desc>
    <defs></defs>
    <g id="states" stroke="none" stroke-width="1" fill="none" fill-rule="evenodd">
        <g id="2d-v2" transform="translate(-1082.000000, -638.000000)">
            <g id="switch-copy" transform="translate(1076.000000, 632.000000)">
                <g id="icon" transform="translate(6.000000, 6.000000)">
                    <circle id="Oval-3" fill="#007DBB" cx="25.5" cy="25.5" r="25.5"></circle>
                    <g id="Page-1-Copy" transform="translate(24.243653, 26.087540) rotate(1.000000) translate(-24.243653, -26.087540) translate(7.243653, 11.587540)" fill="#FFFFFF">
                        <path d="M3.2712923,22.6407175 L22.9532797,27.5052264 C22.9458778,25.5296272 22.8933824,11.7455687 22.8753645,11.0868111 C22.8742931,11.0505289 22.8632876,10.922627 22.8619241,10.9087685 L1.40249399,8.26671249 L3.18802033,22.2948337 C3.21246625,22.4758597 3.24694377,22.5830702 3.2712923,22.6407175 M23.1916032,28.9171524 C23.0904107,28.9171524 22.9870755,28.9037751 22.8830586,28.8767319 L2.8490888,23.9252227 C2.56820417,23.8693077 1.99046227,23.6138888 1.83580041,22.4679681 L0.0194001357,8.19819015 C-0.0082597934,8.02351592 -0.0515027812,7.51614262 0.294343727,7.15794014 C0.508708178,6.93581996 0.810532545,6.83601987 1.14391261,6.87711402 L1.14401,6.87711402 L23.0911898,9.57912709 L23.111253,9.58288042 C23.4891422,9.65236515 24.2110274,10.0484859 24.2382977,11.0504327 C24.2580687,11.7720345 24.3152391,27.0825437 24.3176739,27.7339871 L24.3177713,27.7720016 L24.3135834,27.8097274 C24.3021883,27.9129921 24.2230068,28.4432703 23.7858047,28.7384361 C23.61069,28.8567141 23.4064546,28.9171524 23.1916032,28.9171524" id="Fill-1"></path>
                        <path d="M29.2976869,17.3998501 L29.2976869,17.3998501 C29.2959869,17.4059501 29.2972869,17.4123501 29.2970869,17.4186501 C29.2972869,17.4123501 29.2974869,17.4061501 29.2976869,17.3998501 M29.5971009,18.5875022 C29.5568397,18.5875022 29.5161914,18.5853232 29.475156,18.5807671 L29.4332495,18.5748244 L25.0083909,17.8009836 L25.2365053,16.4341585 L29.3046266,17.1456999 C29.3950207,13.8865155 29.5961331,6.57370451 29.6303938,5.0875299 L13.9284365,3.76913803 L14.1884889,7.7276812 L12.8365456,7.82068473 L12.5462005,3.4003924 C12.538458,3.28213233 12.5438777,2.93913848 12.821738,2.65596799 C12.9772661,2.49739648 13.2619978,2.31733214 13.7399058,2.36210061 L29.8682832,3.71624784 C30.4161643,3.74249484 30.9902732,4.13788365 30.9902732,4.83021024 C30.9902732,5.24204056 30.6653771,16.9604852 30.6514406,17.4591783 C30.6475693,17.5888286 30.6085663,18.0312639 30.2657656,18.3370167 C30.0823643,18.5006395 29.8483461,18.5875022 29.5971009,18.5875022" id="Fill-4"></path>
                        <path d="M32.822149,2.30080116 C32.825849,2.30210116 32.829449,2.30310116 32.832949,2.30400116 C32.829349,2.30310116 32.825849,2.30130116 32.822149,2.30080116 M32.4322869,12.5963412 C32.3954428,12.5963412 32.3572658,12.5948939 32.3176608,12.5918063 C31.8006056,12.5514752 30.6433007,12.3860982 30.5943657,12.3791512 L30.7808711,11.0415656 C30.790582,11.0430128 31.6185748,11.1613047 32.1605735,11.2199682 C32.2970966,8.38366536 32.5251112,3.62613303 32.585566,2.28931932 C31.2626055,2.20489406 22.4356329,1.64131926 20.5376377,1.51984337 L20.5575354,2.75708351 L19.224864,2.77908232 L19.2015389,1.32677486 C19.1714543,1.06867477 19.2208654,0.727403745 19.445167,0.471426353 C19.6462388,0.242175586 19.9408012,0.127936147 20.2765872,0.149645499 C20.7178597,0.178108873 32.1851363,0.91024474 32.809106,0.950093463 C32.8103436,0.950093463 32.8116765,0.950093463 32.8129142,0.950093463 C32.9810452,0.950093463 33.3721449,0.983863568 33.6572821,1.26936568 C33.8424547,1.45461882 33.9402296,1.70606137 33.9328037,1.97728356 C33.9232833,2.32386132 33.5172364,10.7583791 33.4805827,11.517724 C33.491436,11.7480361 33.4268874,12.0473358 33.2122967,12.2779373 C33.0733934,12.4272012 32.8284325,12.5963412 32.4322869,12.5963412" id="Fill-6"></path>
                    </g>
                </g>
            </g>
        </g>
    </g>
</svg>