<?xml version="1.0" encoding="iso-8859-1"?>
<!-- Generator: Adobe Illustrator 18.1.0, SVG Export Plug-In . SVG Version: 6.00 Build 0)  -->
<!DOCTYPE svg PUBLIC "-//W3C//DTD SVG 1.1//EN" "http://www.w3.org/Graphics/SVG/1.1/DTD/svg11.dtd">
<svg version="1.1" xmlns="http://www.w3.org/2000/svg" xmlns:xlink="http://www.w3.org/1999/xlink" x="0px" y="0px"
	 viewBox="0 0 51 180" style="enable-background:new 0 0 51 180;" xml:space="preserve">
<g id="Layer_2">
</g>
<g id="Layer_1">
	<polygon style="fill:#007DBB;" points="51,140.536 47.464,137 41.808,142.657 36.151,137 32.615,140.536 38.272,146.192 
		32.615,151.849 36.151,155.385 41.808,149.728 47.464,155.385 51,151.849 45.343,146.192 	"/>
	<polygon style="fill:#3E7D9C;" points="18.385,3.536 14.849,0 9.192,5.657 3.536,0 0,3.536 5.657,9.192 0,14.849 3.536,18.385 
		9.192,12.728 14.849,18.385 18.385,14.849 12.728,9.192 	"/>
	<polygon style="fill:#085F8A;" points="18.385,37.786 14.849,34.25 9.192,39.907 3.536,34.25 0,37.786 5.657,43.442 0,49.099 
		3.536,52.635 9.192,46.978 14.849,52.635 18.385,49.099 12.728,43.442 	"/>
	<polygon style="fill:#0B7B67;" points="18.385,72.036 14.849,68.5 9.192,74.157 3.536,68.5 0,72.036 5.657,77.692 0,83.349 
		3.536,86.885 9.192,81.228 14.849,86.885 18.385,83.349 12.728,77.692 	"/>
	<polygon style="fill:#0A6E39;" points="18.385,106.286 14.849,102.75 9.192,108.407 3.536,102.75 0,106.286 5.657,111.942 
		0,117.599 3.536,121.135 9.192,115.478 14.849,121.135 18.385,117.599 12.728,111.942 	"/>
	<polygon style="fill:#57831D;" points="18.385,140.536 14.849,137 9.192,142.657 3.536,137 0,140.536 5.657,146.192 0,151.849 
		3.536,155.385 9.192,149.728 14.849,155.385 18.385,151.849 12.728,146.192 	"/>
	<polygon style="fill:#83751D;" points="51,3.536 47.464,0 41.808,5.657 36.151,0 32.615,3.536 38.272,9.192 32.615,14.849 
		36.151,18.385 41.808,12.728 47.464,18.385 51,14.849 45.343,9.192 	"/>
	<polygon style="fill:#BC4D0C;" points="51,37.786 47.464,34.25 41.808,39.907 36.151,34.25 32.615,37.786 38.272,43.442 
		32.615,49.099 36.151,52.635 41.808,46.978 47.464,52.635 51,49.099 45.343,43.442 	"/>
	<polygon style="fill:#9D0620;" points="51,72.036 47.464,68.5 41.808,74.157 36.151,68.5 32.615,72.036 38.272,77.692 
		32.615,83.349 36.151,86.885 41.808,81.228 47.464,86.885 51,83.349 45.343,77.692 	"/>
	<polygon style="fill:#6A0617;" points="51,106.286 47.464,102.75 41.808,108.407 36.151,102.75 32.615,106.286 38.272,111.942 
		32.615,117.599 36.151,121.135 41.808,115.478 47.464,121.135 51,117.599 45.343,111.942 	"/>
</g>
</svg>
