<svg xmlns="http://www.w3.org/2000/svg" width="10.80301" height="16.03923" viewBox="0 0 10.80301 16.03923"><defs><style>.c2a7d0ee-b155-4dff-9330-2a6d0cb62264{fill:#fff;}</style></defs><title>Asset 1</title><g id="20f2c1d6-ed50-46fa-9ac2-c197e2ce9e4d" data-name="Layer 2"><g id="43d37327-31e7-43f2-8099-19784ce95747" data-name="Layer 1"><g id="9600f1ff-c1a4-40bf-b874-09b8467cce1e" data-name="Taking-Action"><g id="294a85ca-91a4-4679-95bd-b3fb2aaed028" data-name="teamap-02---large"><g id="25cd3167-217b-426b-91c7-d848e2c4dcc7" data-name="tea-map"><g id="5b3e8757-c655-4e7e-a42b-39b425d573e1" data-name="map"><g id="5ddf5219-bfd2-4200-9d1f-86c0ae32719a" data-name="map-pin"><g id="cbe9a48b-171a-4104-b32a-1b668cadbb9f" data-name="Group-3"><path id="47f4817d-bfe6-4b19-a5cd-afbc85c71f81" data-name="Fill-1" class="c2a7d0ee-b155-4dff-9330-2a6d0cb62264" d="M5.4,3.2A2.13535,2.13535,0,0,0,3.3,5.4,2.20186,2.20186,0,0,0,5.4,7.6,2.20186,2.20186,0,0,0,7.5,5.4,2.13535,2.13535,0,0,0,5.4,3.2Zm0-1A3.13821,3.13821,0,0,1,8.5,5.4,3.20316,3.20316,0,0,1,5.4,8.6,3.22711,3.22711,0,0,1,2.3,5.3,3.1156,3.1156,0,0,1,5.4,2.2ZM5.4,0A5.4633,5.4633,0,0,0,0,5.5,6.00748,6.00748,0,0,0,.7,8.2h0v.1h0L5,15.8a.66285.66285,0,0,0,.7.2c.1,0,.1-.1.2-.2l4.2-7.5h0V8.2a5.9395,5.9395,0,0,0,.7-2.6A5.42182,5.42182,0,0,0,5.4,0Z"/></g></g></g></g></g></g></g></g></svg>